<?xml version="1.0" standalone="no"?><!DOCTYPE svg PUBLIC "-//W3C//DTD SVG 1.1//EN" "http://www.w3.org/Graphics/SVG/1.1/DTD/svg11.dtd"><svg t="1617160627704" class="icon" viewBox="0 0 1024 1024" version="1.1" xmlns="http://www.w3.org/2000/svg" p-id="19891" xmlns:xlink="http://www.w3.org/1999/xlink" width="200" height="200"><defs><style type="text/css"></style></defs><path d="M923.563008 336.122317c-22.552645-53.319369-54.831816-101.199866-95.941096-142.309146-41.110303-41.10928-88.989777-73.388451-142.309146-95.941096-55.219649-23.355941-113.860211-35.198663-174.289512-35.198663-60.430324 0-119.069863 11.842723-174.289512 35.198663-53.319369 22.552645-101.199866 54.831816-142.309146 95.941096s-73.388451 88.988754-95.941096 142.309146C75.12756 391.341966 63.284837 449.981505 63.284837 510.411829c0 60.430324 11.842723 119.069863 35.198663 174.289512 22.552645 53.319369 54.831816 101.199866 95.941096 142.309146 41.10928 41.10928 88.988754 73.388451 142.309146 95.941096 55.219649 23.355941 113.859187 35.19764 174.289512 35.19764 60.430324 0 119.069863-11.841699 174.289512-35.19764 53.319369-22.552645 101.199866-54.831816 142.309146-95.941096 41.10928-41.110303 73.388451-88.989777 95.941096-142.309146 23.355941-55.219649 35.19764-113.860211 35.19764-174.289512C958.761672 449.981505 946.919972 391.341966 923.563008 336.122317zM895.316687 510.411829c0 38.260395-5.623068 75.231425-16.081257 110.13333-49.485041-47.417963-83.053578-96.638991-99.851149-146.503679-3.00238-8.91095-5.331425-17.473977-7.111978-25.684986 39.584554 13.859659 77.850066 32.737612 114.217345 57.580416 2.764973 1.890047 5.755074 3.190669 8.823969 3.965312C895.313617 510.073114 895.316687 510.24196 895.316687 510.411829zM768.206708 389.340379c1.243317-13.978363 3.988848-25.847691 7.060813-35.396161 11.255345-34.982746 32.645514-57.06774 50.674123-63.543222 31.271214 44.62536 53.312206 96.169293 63.318094 151.839197C851.83129 420.073334 811.35646 402.385487 768.206708 389.340379zM790.059412 246.444878c-9.03477 5.28026-17.735943 12.066827-25.910113 20.283975-18.24555 18.339694-32.591279 42.647309-41.484833 70.291926-3.467985 10.778484-6.633071 23.759123-8.546653 38.694277-3.549849-0.724501-7.108908-1.430582-10.689457-2.096754-33.795711-6.291287-69.348438-10.06524-106.395192-11.31572-6.452969-62.696947-18.554588-119.341039-35.809577-165.256788-10.463306-27.840068-22.567995-51.421136-36.234249-70.672596C629.191584 130.11543 722.950991 175.543062 790.059412 246.444878zM452.945511 130.501216c21.515013 14.937201 40.885176 44.297902 56.551994 85.98535 14.976086 39.84959 25.882484 89.759303 32.042787 145.80169-19.470447 0.621147-39.290865 1.888-59.431577 3.806699-31.80538 3.031033-63.064314 7.514137-93.656053 13.050224-1.434675-4.988618-3.006474-9.902534-4.732791-14.719236-15.250332-42.535769-41.11542-77.340459-74.797543-100.648304-20.444635-14.148231-42.963511-23.454178-66.714448-27.735691C298.466184 180.912349 371.549689 142.892431 452.945511 130.501216zM196.773084 289.450345c59.249429-6.800893 111.989607 29.641087 134.930085 93.625354 0.839111 2.340301 1.62194 4.714372 2.373047 7.107885-72.719208 16.352433-140.873448 37.762045-202.437595 58.81657C141.10011 390.344243 163.880953 336.090595 196.773084 289.450345zM126.743124 508.275165c2.202155-0.198521 4.41659-0.661056 6.600325-1.419326 65.8825-22.862707 136.820132-45.109384 209.750141-61.798485 2.336208 84.190471-44.259016 184.15623-164.366512 258.218016-33.047674-56.720839-51.997258-122.618689-51.997258-192.863543C126.729821 509.698584 126.739031 508.987387 126.743124 508.275165zM209.922568 748.938364c142.331659-88.687902 194.576557-211.754798 187.92609-315.228451 49.112558-9.070586 98.770538-15.126512 148.07343-16.711614 7.68196 147.93733-15.364943 326.231039-79.872119 475.087299C362.602923 879.973746 271.582907 826.610374 209.922568 748.938364zM524.89724 894.453529c41.094954-102.181217 67.548442-224.070288 75.261101-348.671121 2.721994-43.977607 2.99931-87.222527 0.992607-128.604006 38.062897 1.534959 75.704193 6.108115 112.499214 14.413268 1.961678 18.466584 6.114255 38.561247 13.367449 60.09161 21.25714 63.102177 64.281025 124.233466 127.877459 181.695179 0.959861 0.868787 1.979074 1.62808 3.018753 2.336208C797.885658 801.177122 671.756005 889.216247 524.89724 894.453529z" p-id="19892"></path></svg>