<?xml version="1.0" encoding="UTF-8"?>
<svg width="18px" height="18px" viewBox="0 0 18 18" version="1.1" xmlns="http://www.w3.org/2000/svg" xmlns:xlink="http://www.w3.org/1999/xlink">
    <title>编组</title>
    <g id="页面-1" stroke="none" stroke-width="1" fill="none" fill-rule="evenodd">
        <g id="about备份" transform="translate(-1270.000000, -531.000000)" fill="#FFFFFF" fill-rule="nonzero">
            <g id="编组" transform="translate(1270.000000, 531.000000)">
                <path d="M17.694453,10.7801171 L16.6026604,10.7799273 L16.6026604,11.5060364 L17.5168831,11.5068315 C16.4487121,15.2072832 13.1072547,17.8734545 8.93965964,17.8734545 C4.78741395,17.8734545 1.45523172,15.1523349 0.374330869,11.5067309 L1.35059331,11.5060364 L1.35059331,10.7799273 L0.19154443,10.7800971 C0.115681897,10.4146581 0.0619830863,10.0415916 0.031763185,9.66254844 L17.8487206,9.66269432 C17.8196024,10.0426598 17.767763,10.4156042 17.694453,10.7801171 Z M15.429715,10.7799273 L14.2567695,10.7799273 L14.2567695,11.5060364 L15.429715,11.5060364 L15.429715,10.7799273 Z M13.1396786,10.7799273 L11.9667331,10.7799273 L11.9667331,11.5060364 L13.1396786,11.5060364 L13.1396786,10.7799273 Z M10.8496422,10.7799273 L9.67669678,10.7799273 L9.67669678,11.5060364 L10.8496422,11.5060364 L10.8496422,10.7799273 Z M8.55960587,10.7799273 L7.38666041,10.7799273 L7.38666041,11.5060364 L8.55960587,11.5060364 L8.55960587,10.7799273 Z M6.2695695,10.7799273 L5.09662405,10.7799273 L5.09662405,11.5060364 L6.2695695,11.5060364 L6.2695695,10.7799273 Z M3.97953314,10.7799273 L2.6948786,10.7799273 L2.71247429,10.9151677 C2.72721842,11.1336727 2.68223868,11.3198545 2.77532959,11.5060364 L2.77532959,11.5060364 L3.97953314,11.5060364 L3.97953314,10.7799273 Z M8.99551418,0 C12.9710771,0 16.3858614,2.65435245 17.4964713,6.31141937 L16.6026604,6.31156364 L16.6026604,7.03767273 L17.6833778,7.03690549 C17.7646827,7.41936886 17.8212442,7.81099613 17.851257,8.21007709 L0.031382327,8.21051631 C0.0628266404,7.81109724 0.120001775,7.41943707 0.201238536,7.03717407 L1.35059331,7.03767273 L1.29473877,6.31156364 L0.387546992,6.31121154 C1.49570405,2.63958472 4.87374795,0 8.88380509,0 L8.99551418,0 Z M15.429715,6.31156364 L14.2567695,6.31156364 L14.2567695,7.03767273 L15.429715,7.03767273 L15.429715,6.31156364 Z M13.1396786,6.31156364 L11.9667331,6.31156364 L11.9667331,7.03767273 L13.1396786,7.03767273 L13.1396786,6.31156364 Z M10.8496422,6.31156364 L9.67669678,6.31156364 L9.67669678,7.03767273 L10.8496422,7.03767273 L10.8496422,6.31156364 Z M8.55960587,6.31156364 L7.38666041,6.31156364 L7.38666041,7.03767273 L8.55960587,7.03767273 L8.55960587,6.31156364 Z M6.2695695,6.31156364 L5.09662405,6.31156364 L5.09662405,7.03767273 L6.2695695,7.03767273 L6.2695695,6.31156364 Z M3.9236786,6.31156364 L2.77532959,6.31156364 L2.72942843,6.45142342 C2.69274687,6.64445673 2.73956223,6.85893818 2.6948786,7.03767273 L2.6948786,7.03767273 L3.97953314,7.03767273 L3.9236786,6.31156364 Z" id="形状结合"></path>
            </g>
        </g>
    </g>
</svg>