<?xml version="1.0" standalone="no"?><!DOCTYPE svg PUBLIC "-//W3C//DTD SVG 1.1//EN" "http://www.w3.org/Graphics/SVG/1.1/DTD/svg11.dtd"><svg t="1622254874508" class="icon" viewBox="0 0 1024 1024" version="1.1" xmlns="http://www.w3.org/2000/svg" p-id="7348" xmlns:xlink="http://www.w3.org/1999/xlink" width="200" height="200"><defs><style type="text/css"></style></defs><path d="M512 85.333333A426.666667 426.666667 0 0 0 85.333333 512a426.666667 426.666667 0 0 0 426.666667 426.666667 426.666667 426.666667 0 0 0 426.666667-426.666667A426.666667 426.666667 0 0 0 512 85.333333m0 42.666667c75.093333 0 145.066667 22.613333 203.946667 60.16L704 213.333333H512l-73.386667-35.84 14.933334-43.946666c19.2-3.413333 38.4-5.546667 58.453333-5.546667m-105.386667 16.213333l-14.506666 43.946667-109.226667 54.613333-53.333333 10.666667a384.725333 384.725333 0 0 1 177.066666-109.226667M554.666667 256h128l114.773333 153.173333-53.333333 109.653334-112.213334 26.453333-139.946666-163.84L554.666667 256m-291.84 28.16L298.666667 426.666667l-52.053334 130.56-109.226666 37.546666C131.413333 567.893333 128 540.586667 128 512c0-81.066667 25.173333-155.306667 67.84-217.173333l66.986667-10.666667m614.4 109.226667c12.373333 37.12 18.773333 77.226667 18.773333 118.613333 0 61.44-15.786667 119.04-41.386667 170.666667H810.666667l-35.84-142.506667 64-128 38.4-18.773333M341.333333 426.666667h128l119.893334 139.946666L512 682.666667l-134.826667 33.28-98.56-131.84L341.333333 426.666667m170.666667 298.666666l128 85.333334-37.12 73.386666c-29.44 6.826667-59.733333 11.946667-90.88 11.946667-74.666667 0-143.786667-21.333333-202.666667-58.453333l49.493334-73.386667L512 725.333333m298.666667 0h21.333333c-42.666667 64-106.666667 113.92-178.773333 142.506667L682.666667 810.666667l128-85.333334z" p-id="7349"></path></svg>