<?xml version="1.0" standalone="no"?><!DOCTYPE svg PUBLIC "-//W3C//DTD SVG 1.1//EN" "http://www.w3.org/Graphics/SVG/1.1/DTD/svg11.dtd"><svg t="1617159812738" class="icon" viewBox="0 0 1024 1024" version="1.1" xmlns="http://www.w3.org/2000/svg" p-id="9984" xmlns:xlink="http://www.w3.org/1999/xlink" width="200" height="200"><defs><style type="text/css"></style></defs><path d="M864.103613 204.810645c-19.19865 0-32.010273 6.387026-44.818766 6.387026V159.988748c0-57.59908-51.212054-108.776694-108.811134-108.776694-19.236221 0-38.438001 6.387026-51.249625 12.774053C646.450036 25.591938 608.008903 0 563.227708 0c-44.818766 0-83.259898 25.591938-96.03395 63.986107-19.239351-6.387026-38.428609-12.774053-57.63352-12.774053-57.595949 0-108.845574 51.177614-108.845574 108.776694v352.019079l-51.215185-102.386537c-12.774053-25.626378-38.3973-44.821897-63.979845-51.212054-32.016535-6.387026-57.636651-6.387026-83.259898 12.811624C51.050813 403.190431 38.24232 467.217239 63.862436 518.388592c6.383895 12.814754 38.40043 83.222327 134.434381 268.799882 44.815635 95.99638 102.420977 166.403953 153.667471 204.801253 44.790588 32.013404 76.800861 32.013404 83.219197 32.013404h256.054007c44.815635 0 83.219196-12.811623 121.654067-44.828159 32.013404-25.579414 64.014285-63.982976 89.609354-115.188768 44.815635-95.99638 70.438882-223.974855 70.438881-383.985519V307.19092c0.003131-57.592819-44.818766-102.380275-108.836181-102.380275z m-377.711205 313.577947c19.195519 0 32.016535-12.777184 32.016535-31.975834V108.808003c0-25.620116 19.192388-44.821897 44.818765-44.821896 25.588807 0 44.781195 19.204912 44.781195 44.821896v377.604755c0 19.19865 12.821016 31.975833 32.016536 31.975834 19.19865 0 32.010273-12.777184 32.010273-31.975834V159.988748c0-25.591938 19.204912-44.787457 44.828158-44.787457s44.815635 19.195519 44.815635 44.787457v377.598494c0 19.204912 12.777184 32.016535 32.010273 32.016535 19.204912 0 32.016535-12.811623 32.016535-32.016535V307.19092c0-25.582545 19.201781-44.781195 44.787457-44.781195 25.626378 0 44.818766 19.19865 44.818766 44.781195v179.221838c0 140.783837-25.626378 268.796752-64.026808 351.981509-32.000881 57.592819-83.212935 121.616496-160.045105 121.616495h-249.666981s-19.19865 0-51.212054-25.616985c-32.010273-25.5982-76.83217-70.413835-134.42812-179.187398-89.653186-185.602603-128.047355-256.013306-134.437512-268.793621-12.817885-25.623247-6.427728-51.208923 19.195519-64.017415 0 0 6.393288-6.393288 12.814755-6.393288h12.774052c12.811623 0 19.242482 12.814754 25.626378 19.20178l76.829039 140.786968c19.201781 32.010273 38.403561 44.818766 63.992369 38.403561 25.620116-6.393288 32.013404-25.591938 32.013404-63.989237V159.988748c0-25.591938 19.23309-44.787457 44.818766-44.787457 25.623247 0 44.825028 19.195519 44.825027 44.787457v326.427141c0.003131 19.195519 12.811623 31.972703 32.007143 31.972703z" p-id="9985"></path></svg>