<?xml version="1.0" standalone="no"?><!DOCTYPE svg PUBLIC "-//W3C//DTD SVG 1.1//EN" "http://www.w3.org/Graphics/SVG/1.1/DTD/svg11.dtd"><svg t="1617159556716" class="icon" viewBox="0 0 1024 1024" version="1.1" xmlns="http://www.w3.org/2000/svg" p-id="6871" xmlns:xlink="http://www.w3.org/1999/xlink" width="200" height="200"><defs><style type="text/css"></style></defs><path d="M185.5488 701.19936l59.93984 3.13856 83.0464 313.48224-72.192 5.66784c-85.74464 6.69184-162.54464-53.48864-177.4592-139.13088l-8.9088-51.12832c-10.68032-61.27104 29.7984-119.66976 90.4192-130.4576a109.2096 109.2096 0 0 1 25.15456-1.57184zM303.99488 707.45088l54.44096 2.86208 79.22176 299.008-52.6336 4.10112-81.06496-305.9712zM416.9728 713.4208l54.50752 2.8672 75.37152 284.53376-52.6336 4.096-77.28128-291.49696zM866.23744 563.0976l-73.0112 295.24992a55.72608 55.72608 0 0 1-8.704 19.05152 200.66816 200.66816 0 0 1-166.912 117.92896l-14.26944 1.09056-73.38496-277.0944 7.16288 0.13312a111.62112 111.62112 0 0 0 103.25504-78.98112l23.89504-77.37856h201.96864zM894.09024 450.49344l-13.93152 56.32h-198.4768l17.40288-56.32zM934.15936 0c30.75584 0 55.71072 25.22624 55.71072 56.32 0 4.608-0.54784 9.18016-1.67424 13.65504l-80.1792 324.1984H716.4928L826.1632 39.5264A55.77728 55.77728 0 0 1 879.34464 0h54.81472zM408.7808 611.6352c-99.84 40.7552-199.4752 27.0848-222.5664-30.61248L148.48 489.6c23.04 57.6512 147.2 53.76 226.56 17.21344C440.15104 476.8256 535.04 401.34656 512 343.69536l35.84 89.70752c23.04 57.65632-39.2192 137.42592-139.0592 178.23232z" p-id="6872"></path><path d="M500.992 318.72c-23.04-57.6512-122.6752-71.3728-222.5152-30.6176-99.84 40.8064-162.0992 120.576-139.0592 178.2784 23.04 57.6512 122.6752 71.3728 222.5152 30.6176 99.84-40.8064 162.0992-120.6272 139.0592-178.2784z" p-id="6873"></path></svg>