<?xml version="1.0" standalone="no"?><!DOCTYPE svg PUBLIC "-//W3C//DTD SVG 1.1//EN" "http://www.w3.org/Graphics/SVG/1.1/DTD/svg11.dtd"><svg t="1617159015932" class="icon" viewBox="0 0 1024 1024" version="1.1" xmlns="http://www.w3.org/2000/svg" p-id="4893" xmlns:xlink="http://www.w3.org/1999/xlink" width="200" height="200"><defs><style type="text/css"></style></defs><path d="M370.881592 650.061692l-8.660696 8.660696c-11.717413 11.717413-11.717413 30.057711 0 41.775124 11.717413 11.717413 30.057711 11.717413 41.775124 0l8.660696-8.660696 68.266667 68.266667c11.717413 11.717413 30.057711 11.717413 41.775124 0s11.717413-30.057711 0-41.775125l-68.266666-68.266666 76.927363-76.927364 68.266667 68.266667c11.717413 11.717413 30.057711 11.717413 41.775124 0 11.717413-11.717413 11.717413-30.057711 0-41.775124l-68.266667-68.266667 76.927364-76.927363 68.266666 68.266666c11.717413 11.717413 30.057711 11.717413 41.775125 0s11.717413-30.057711 0-41.775124L691.836816 412.656716l8.660696-8.660696c11.717413-11.717413 11.717413-30.057711 0-41.775124-11.717413-11.717413-30.057711-11.717413-41.775124 0l-8.660696 8.660696L580.776119 303.124378c-11.717413-11.717413-30.057711-11.717413-41.775124 0-11.717413 11.717413-11.717413 30.057711 0 41.775124l68.266667 68.266667L531.868657 489.074627 463.60199 421.826866c-11.717413-11.717413-30.057711-11.717413-41.775124 0-11.717413 11.717413-11.717413 30.057711 0 41.775124l68.266666 68.266667-76.927363 76.927363L344.899502 540.0199c-11.717413-11.717413-30.057711-11.717413-41.775124 0s-11.717413 30.057711 0 41.775125l67.757214 68.266667z" p-id="4894"></path><path d="M823.275622 822.766169c136.533333-137.042786 180.346269-331.144279 180.346269-480.923383 0-51.454726-5.60398-98.324378-14.264677-136.533333-9.679602-38.718408-20.887562-68.266667-41.775124-89.154229-20.887562-20.378109-51.454726-32.095522-89.154229-41.775124-38.208955-9.170149-85.078607-14.264677-136.533334-14.264677-46.360199 0-97.305473 4.075622-148.760199 14.264677-116.155224 21.906468-237.914428 71.832836-332.672636 166.081592-136.533333 137.042786-180.346269 331.144279-180.346269 480.923383 0 51.454726 5.60398 98.324378 14.264677 136.533333 9.679602 38.718408 20.887562 68.266667 41.775124 89.154229 20.887562 20.378109 51.454726 32.095522 89.154229 41.775124 38.208955 9.170149 85.078607 14.264677 136.533333 14.264677 46.360199 0 96.79602-4.075622 148.760199-13.755224 115.645771-22.41592 237.404975-72.342289 332.672637-166.591045z m20.887562-690.81791c32.604975 7.132338 55.530348 19.359204 61.643781 25.982089 6.622886 5.60398 18.849751 29.038806 25.98209 61.643781 7.641791 32.604975 12.736318 75.399005 12.736318 122.77811 0 25.98209-1.018905 52.473632-4.075622 80.493532l-299.048756-299.048756c28.0199-3.056716 55.020896-4.585075 80.493532-4.075622 46.869652-0.509453 89.663682 4.075622 122.268657 12.226866zM282.746269 282.236816c78.965174-79.98408 183.912438-125.325373 285.293532-146.722388L927.20398 494.678607c-21.906468 101.890547-67.757214 206.328358-146.722388 285.802985-78.965174 79.474627-184.421891 124.81592-285.802985 146.722388l-359.164179-358.654726C157.420896 466.149254 202.762189 361.711443 282.746269 282.236816z m59.60597 661.779104c-47.888557 0-90.173134-4.585075-122.77811-12.736318-32.604975-7.132338-55.530348-19.359204-61.643781-25.98209-6.622886-5.60398-18.849751-29.038806-25.982089-61.643781-7.641791-32.604975-12.736318-75.399005-12.736319-122.778109 0-25.98209 1.018905-52.473632 4.075622-80.493532L422.845771 939.940299c-28.0199 2.037811-55.020896 4.075622-80.493532 4.075621z" p-id="4895"></path><path d="M363.239801 636.81592l-8.660697 8.660697c-11.717413 11.717413-11.717413 30.057711 0 41.775124 11.717413 11.717413 30.057711 11.717413 41.775125 0l8.660696-8.660696 68.266667 68.266666c11.717413 11.717413 30.057711 11.717413 41.775124 0 11.717413-11.717413 11.717413-30.057711 0-41.775124L446.79005 636.81592l76.927363-76.927363 68.266667 68.266667c11.717413 11.717413 30.057711 11.717413 41.775124 0 11.717413-11.717413 11.717413-30.057711 0-41.775124L565.492537 518.113433l77.946269-77.436816 68.266667 68.266667c11.717413 11.717413 30.057711 11.717413 41.775124 0s11.717413-30.057711 0-41.775125l-68.266667-68.266666 8.660697-8.660697c11.717413-11.717413 11.717413-30.057711 0-41.775124-11.717413-11.717413-30.057711-11.717413-41.775125 0l-8.660696 8.660696-68.266667-68.266667c-11.717413-11.717413-30.057711-11.717413-41.775124 0-11.717413 11.717413-11.717413 30.057711 0 41.775125L601.154229 398.901493l-76.927363 76.927363L455.960199 407.562189c-11.717413-11.717413-30.057711-11.717413-41.775124 0-11.717413 11.717413-11.717413 30.057711 0 41.775124l68.266666 68.266667-76.927363 76.927363-68.266667-67.757214c-11.717413-11.717413-30.057711-11.717413-41.775124 0-11.717413 11.717413-11.717413 30.057711 0 41.775125L363.239801 636.81592z" p-id="4896"></path><path d="M815.124378 808.501493c136.533333-137.042786 180.346269-331.144279 180.346269-480.923384 0-51.454726-5.60398-98.324378-14.264677-136.533333-9.679602-38.718408-20.887562-68.266667-41.775124-89.154229-20.887562-20.378109-51.454726-32.095522-89.154229-41.775124C812.067662 50.945274 765.19801 45.850746 713.743284 45.850746c-46.360199 0-97.305473 4.075622-148.760199 14.264677C449.846766 83.040796 327.578109 132.457711 232.8199 227.21592c-136.533333 136.533333-180.346269 330.125373-180.346268 479.904478 0 51.454726 5.60398 98.324378 14.264676 136.533333 9.679602 38.718408 20.887562 68.266667 41.775125 89.154229 20.887562 20.378109 51.454726 32.095522 89.154229 41.775125 38.208955 9.170149 85.078607 14.264677 136.533333 14.264676 46.360199 0 96.79602-4.075622 148.760199-13.755224 116.155224-21.906468 237.404975-72.342289 332.163184-166.591044z m21.397015-690.308458c32.604975 7.132338 55.530348 19.359204 61.643781 25.982089 6.622886 5.60398 18.849751 29.038806 25.98209 61.643781 7.641791 32.604975 12.736318 75.399005 12.736318 122.77811 0 25.98209-1.018905 52.473632-4.075622 80.493532l-299.048756-299.048756c28.0199-3.056716 55.020896-4.585075 80.493532-4.075622 47.379104 0 89.663682 4.585075 122.268657 12.226866zM275.104478 268.991045C354.579104 189.006965 459.526368 143.665672 560.907463 122.268657l359.164179 359.164179c-21.906468 101.890547-67.757214 206.328358-146.722388 285.802985-78.965174 79.474627-184.421891 124.81592-285.802985 146.722388L127.363184 554.79403c22.41592-101.890547 68.266667-206.837811 147.741294-285.802985z m59.60597 661.269652c-47.888557 0-90.173134-4.585075-122.77811-12.736319-32.604975-7.132338-55.530348-19.359204-61.643781-25.982089-6.622886-5.60398-18.849751-29.038806-25.982089-61.643782-7.641791-32.604975-12.736318-75.399005-12.736319-122.778109 0-25.98209 1.018905-52.473632 4.075622-80.493532l299.048756 299.048756c-27.510448 3.056716-54.00199 4.585075-79.984079 4.585075z" p-id="4897"></path></svg>