<?xml version="1.0" standalone="no"?><!DOCTYPE svg PUBLIC "-//W3C//DTD SVG 1.1//EN" "http://www.w3.org/Graphics/SVG/1.1/DTD/svg11.dtd"><svg t="1617158961859" class="icon" viewBox="0 0 1024 1024" version="1.1" xmlns="http://www.w3.org/2000/svg" p-id="3452" xmlns:xlink="http://www.w3.org/1999/xlink" width="200" height="200"><defs><style type="text/css"></style></defs><path d="M232.128 582.4c6.4 19.2 12.8 38.4 12.8 57.6 0 38.4-12.8 76.8-44.8 108.8l-99.2 102.4c-12.8 12.8-19.2 32-19.2 44.8 0 19.2 6.4 32 19.2 44.8s22.4 19.2 41.6 19.2c12.8 0 32-6.4 38.4-12.8l105.6-108.8c32-32 70.4-44.8 105.6-44.8 19.2 0 38.4 6.4 57.6 12.8l-217.6-224z m-25.6-115.2l358.4 364.8h19.2c99.2 0 195.2-38.4 265.6-115.2 76.8-70.4 112-166.4 112-262.4 0-128-51.2-249.6-169.6-326.4-64-44.8-131.2-64-208-64-76.8 0-150.4 19.2-214.4 64-108.8 76.8-163.2 198.4-163.2 320v19.2z m-64 556.8c-32 0-70.4-12.8-89.6-38.4-22.4-25.6-35.2-57.6-35.2-89.6 0-32 12.8-64 32-89.6l99.2-102.4c19.2-12.8 25.6-38.4 25.6-64 0-12.8 0-25.6-6.4-38.4-19.2-51.2-25.6-102.4-25.6-153.6 0-140.8 64-281.6 188.8-371.2 76.8-51.2 163.2-76.8 252.8-76.8s169.6 19.2 240 83.2c131.2 89.6 195.2 236.8 195.2 377.6 0 108.8-44.8 224-124.8 307.2-83.2 83.2-195.2 128-307.2 128-51.2 0-99.2-12.8-150.4-32-12.8-6.4-25.6-6.4-38.4-6.4-25.6 0-44.8 6.4-64 25.6l-99.2 102.4c-28.8 25.6-60.8 38.4-92.8 38.4z m409.6-576c-89.6 0-156.8-70.4-156.8-160s70.4-160 156.8-160 156.8 70.4 156.8 160-70.4 160-156.8 160z m0-256c-51.2 0-96 44.8-96 96s44.8 96 96 96 96-44.8 96-96c-3.2-51.2-44.8-96-96-96z" p-id="3453"></path></svg>