<?xml version="1.0" standalone="no"?><!DOCTYPE svg PUBLIC "-//W3C//DTD SVG 1.1//EN" "http://www.w3.org/Graphics/SVG/1.1/DTD/svg11.dtd"><svg t="1617176307723" class="icon" viewBox="0 0 1024 1024" version="1.1" xmlns="http://www.w3.org/2000/svg" p-id="9389" xmlns:xlink="http://www.w3.org/1999/xlink" width="200" height="200"><defs><style type="text/css"></style></defs><path d="M202.406384 206.399837c-169.031764 169.040974-169.023578 443.074188 0 612.116185 169.023578 169.018461 443.145819 169.018461 612.178607 0 169.023578-169.040974 169.023578-443.074188 0-612.116185C645.552204 37.376259 371.429962 37.376259 202.406384 206.399837zM503.003604 842.083787c-9.095145-1.344624-15.137769-2.246157-18.893302 1.503237-1.212618 1.221828-3.096525 3.982708-1.915629 8.5487 1.407046 5.372358 6.347568 10.769274 13.925151 15.193027 7.447623 4.371564 18.382673 7.80271 30.53955 8.528234 0.759293 3.750417 1.414209 7.502881 2.086521 11.270694-102.916974 5.503341-207.609385-30.538527-286.020222-108.932991-74.284867-74.27668-110.738104-172.154895-109.706611-269.714861 10.403954 1.379417 20.697391 3.007497 30.861892 5.060249-2.857071 4.936429-5.957689 9.377578-8.625448 13.126972-5.454222 7.679913-9.055237 12.723789-7.059789 17.872043 0.712221 1.856277 2.445702 4.281513 6.564509 5.183046 8.139378 1.821485 20.051685-3.608178 30.352285-13.907755 4.455475-4.476965 8.219195-9.55461 11.346419-14.94948 18.064424 5.02341 35.488259 11.42726 52.557006 18.489096-1.971911 2.264577-3.919263 4.386914-5.723352 6.193049l-9.381671 9.075703c-3.684926 3.66139-7.196912 7.661494-6.294356 12.386098 0.354064 1.910513 1.622964 4.582365 5.454222 6.245238 10.310833 4.493338 29.265534-2.847861 43.153846-16.774035 1.1328-1.112334 1.968841-2.405793 3.012613-3.590781 16.698311 8.350179 32.701796 17.851577 48.152696 28.096918-4.467755 3.450589-8.943696 6.54609-12.836353 9.058306-4.335748 2.7793-7.762801 4.971222-10.028401 7.236821-2.38021 2.371-3.454682 4.92108-3.220345 7.55507 0.172939 1.733481 1.034563 4.316306 4.14132 6.42227 9.469676 6.564509 31.506575 2.795673 49.305963-10.93505 14.733563 11.361769 28.641317 23.690562 41.875736 36.696784-5.100158 2.582825-10.152221 4.634554-14.447037 6.332219-6.148024 2.425236-10.601452 4.177136-13.207813 6.77838-3.578502 3.573385-3.445472 8.525164 0.287549 12.259208 3.874237 3.982708 10.831696 6.210445 19.60757 6.282077 8.613168 0.052189 19.754926-2.406816 30.610158-7.803733 12.371772 13.996782 23.784706 28.806069 34.42709 44.198641-5.551436 1.574868-10.912537 2.619664-15.467273 3.466961-7.665587 1.433652-12.752442 2.372024-15.703657 5.327332-2.292206 2.28095-3.6399 6.386454-0.63752 10.881838 3.039219 4.652973 9.444093 8.173147 18.003026 9.943466 8.488325 1.716084 19.962657 1.39579 31.737842-1.859347 9.497305 16.067954 17.923208 32.768311 25.460882 49.967018-5.829775 0.49528-11.382235 0.49528-16.064884 0.477884-8.93244-0.070608-14.323217-0.12382-17.702174 3.272533-1.147126 1.150196-3.595898 4.386914-1.451048 9.553587 2.110057 5.1503 7.732102 9.82067 15.835663 13.147438 8.032954 3.326768 19.427468 5.236258 31.670304 4.229325 3.530406 9.94449 6.424316 20.1182 9.281387 30.344099C513.07089 843.497996 507.621784 842.772472 503.003604 842.083787zM774.271844 778.192641c-57.93755 57.927317-130.257669 92.585675-205.561749 104.688317-0.937348-5.434779-1.971911-10.81123-3.095501-16.225543 6.033413-3.573385 10.881838-7.554046 14.314007-10.984169 11.120268-11.091616 17.056468-24.397666 14.781658-33.031301-1.079588-4.121877-3.564175-5.76633-5.457292-6.40385-5.237281-1.788739-10.156314 2.032286-17.605983 7.836479-3.927449 3.044336-8.567119 6.634094-13.893428 9.92607-3.307326-11.908214-7.05058-23.639396-11.208273-35.20992 2.069125-1.663896 4.210905-3.166109 6.122441-5.059226 13.910824-13.907755 21.067828-32.200376 16.689101-42.517349-1.63729-3.875261-4.27435-5.149277-6.198166-5.520737-4.830005-0.937348-8.881274 2.636037-13.322423 7.059789l-6.794753 6.918573c-2.547009 2.529613-5.591345 5.306866-8.855692 8.049327-8.457626-19.339464-18.038842-38.0762-28.758997-56.104809 15.33015-17.941628 20.045545-41.491996 13.375635-51.362808-2.087545-3.133364-4.653997-4.001127-6.414083-4.192485-2.664689-0.248663-5.256724 0.847298-7.66968 3.25309-2.230808 2.248204-4.423753 5.592368-7.201006 9.819646-2.796696 4.247744-6.321986 9.185196-10.334369 14.084787-11.912307-17.285688-24.815175-33.828456-38.752606-49.522903 11.876492-20.773116 11.849886-44.604894 3.405563-53.079916-1.936095-1.927909-4.068665-2.920516-6.364965-2.901073-1.508353 0-3.786233 0.442068-5.953595 2.618641-2.582825 2.565429-4.374634 6.971785-6.856152 13.057387-1.915629 4.725628-4.263094 10.332323-7.368828 16.030092-14.995529-14.789844-30.874171-28.680203-47.660486-41.544185 4.241604-12.633738 4.728698-25.212218 2.994194-34.343179-1.622964-8.66945-5.077645-15.144932-9.692756-18.276249-4.546549-3.096525-8.646937-1.734504-10.951423 0.583285-2.955308 2.937912-3.940752 7.944949-5.453199 15.60542-0.995677 4.971222-2.185782 10.915607-4.13211 17.021675-17.48114-11.643178-35.731806-22.276353-54.717206-31.724539 1.703805-13.127995-0.190335-25.495674-3.618411-34.130332-3.264347-8.191566-7.909134-13.942547-13.052271-16.136515-5.184069-2.211365-8.426927 0.24764-9.599635 1.397836-3.356444 3.361561-3.378957 8.722662-3.405563 17.622356-0.021489 5.077645-0.053212 11.093662-0.782829 17.410532-19.343557-8.05035-39.253002-15.038508-59.776432-20.665669-0.849344-13.234419-5.078669-25.01779-10.099009-32.803103-4.751211-7.396457-10.385535-12.120039-15.84385-13.287631-4.400217-0.937348-7.033184 0.88516-8.197706 2.034333-3.856841 3.875261-2.688225 9.961886-0.950651 19.144012 0.950651 4.972245 2.060939 10.917654 2.574638 17.250896-12.243859-2.494821-24.65554-4.635577-37.235043-6.227842 9.510608-81.053014 44.98454-159.592788 107.021455-221.643006 59.360969-59.343573 133.840264-94.234221 211.141838-105.505939 0.597611 5.273097 1.079588 10.510378 1.850138 15.765055 1.096984 7.448646 2.388397 14.845103 3.803629 22.204721-6.14393-0.565888-11.876492-1.734504-16.702404-2.688225-9.231245-1.87572-15.31787-3.080152-19.22383 0.813528-1.159406 1.150196-2.963495 3.731998-2.057869 8.139378 2.406816 11.642155 21.855774 24.681122 45.432749 26.503631 5.329379 20.47124 11.902074 40.500413 19.674085 59.962673-6.064113 0.565888-11.818163 0.565888-16.679891 0.531096-8.966209-0.070608-14.353916-0.106424-17.755386 3.272533-1.140986 1.150196-3.591805 4.387937-1.424442 9.572006 2.989077 7.16519 12.969383 13.411451 26.070772 16.259312 5.100158 1.151219 13.530155 2.035356 23.25361 1.026376 9.147334 19.056008 19.523659 37.4571 30.999015 55.184857-5.794983 1.698688-11.410887 2.778276-16.181541 3.662413-7.687076 1.451048-12.765745 2.406816-15.745612 5.362124-2.293229 2.300392-3.65525 6.351662-0.629333 10.915607 3.079128 4.635577 9.537214 8.139378 18.171871 9.872858 8.899694 1.787716 21.071921 1.432629 33.465183-2.335185 12.624529 16.879436 26.403347 32.962739 41.158399 48.249911-5.40408 2.794649-10.738575 4.953825-15.276938 6.723122-6.16542 2.441609-10.606569 4.210905-13.221116 6.828522-3.557012 3.574409-3.451612 8.475022 0.26606 12.279674 3.888564 3.944845 10.894118 6.17463 19.678178 6.227842 9.111518 0.070608 21.046339-2.63706 32.483832-8.740058 12.18246 11.057847 24.948205 21.585621 38.314631 31.530111 3.64604 2.705622 7.413853 5.254677 11.111059 7.855922-4.723581 3.733021-9.464559 7.058766-13.588483 9.695826-4.333702 2.777253-7.766894 4.971222-10.014074 7.219425-2.387373 2.388397-3.466961 4.91801-3.219321 7.571443 0.159636 1.750877 0.99977 4.299933 4.121877 6.440689 9.80225 6.725168 32.855292 2.423189 50.903344-12.313443 18.081821 11.040451 36.766368 20.788465 55.876612 29.369911-2.14178 2.477424-4.28356 4.813632-6.263657 6.794753l-9.174963 8.899694c-3.724835 3.715625-7.290033 7.767917-6.395664 12.491499 0.37146 1.928932 1.644453 4.598738 5.484921 6.262634 10.331299 4.495384 29.316699-2.902096 43.207058-16.808828 1.538029-1.538029 2.724041-3.25616 4.068665-4.900613 19.860327 7.377014 40.144302 13.429871 60.734246 18.206664-2.963495 5.16565-6.218632 9.801227-8.988722 13.71128-5.459339 7.696286-9.067516 12.738116-7.067976 17.906835 0.707105 1.858324 2.468215 4.26207 6.54609 5.14723 8.156774 1.857301 20.106943-3.64604 30.414707-13.959943 4.830005-4.812609 8.933463-10.332323 12.190647-16.260335 1.352811 0.229221 2.689249 0.49528 4.031826 0.707105C864.063893 654.162814 829.705364 722.760145 774.271844 778.192641zM882.703415 542.962176c-0.406253-0.070608-0.803295-0.178055-1.228991-0.24764-1.11438-12.579503-5.130857-23.727401-9.943466-31.211862-4.742001-7.30743-10.314926-11.960403-15.678074-13.110599-4.455475-0.973164-7.093559 0.86674-8.278547 2.034333-3.857864 3.875261-2.707668 9.942443-0.973164 19.179828 0.919952 4.79419 1.983167 10.491958 2.503007 16.613376-18.250666-4.245697-36.279275-9.411347-53.903677-15.887852 1.293459-12.579503-0.528026-24.293289-3.820002-32.555463-3.254114-8.067746-7.838525-13.712303-12.890588-15.871479-5.226025-2.281973-8.519024 0.212848-9.668197 1.38044-3.37998 3.378957-3.39533 8.758478-3.450589 17.657148-0.017396 4.865821-0.068562 10.616802-0.706081 16.650215-17.021675-7.661494-33.724079-16.08228-49.851385-25.831318 3.626597-12.033058 4.097318-23.851221 2.423189-32.538067-1.63729-8.581446-5.068436-14.986319-9.598612-18.047028-4.619204-3.131317-8.721639-1.787716-11.057847 0.548492-2.956332 2.955308-3.963265 7.997138-5.467525 15.641235-0.939395 4.707209-2.070148 10.226922-3.822049 15.906272-3.290953-2.318812-6.79373-4.298909-10.04989-6.723122-11.765975-8.775874-23.036669-18.064424-33.81106-27.77867 10.827603-20.330024 10.536984-42.976814 2.388397-51.133587-1.963725-1.983167-4.104481-2.971681-6.440689-2.971681-1.503237 0-3.78521 0.442068-5.961782 2.618641-2.601244 2.601244-4.396123 6.989181-6.901177 13.074783-1.839905 4.530177-4.050246 9.855462-6.952342 15.287171-13.004175-13.500479-25.169239-27.689642-36.378535-42.552142 14.332427-17.729803 18.594497-40.234353 12.173251-49.806359-2.122337-3.202948-4.671393-4.070712-6.457062-4.246721-2.682086-0.265036-5.265934 0.831948-7.697309 3.273557-2.246157 2.228761-4.414543 5.555529-7.184633 9.80225-2.706645 4.105504-6.104021 8.864902-9.921977 13.553691-10.137895-15.694447-19.310811-31.972179-27.477818-48.798403 1.583055-1.363044 3.308349-2.512217 4.796236-3.999081 13.870916-13.836123 21.055548-32.077579 16.709567-42.358737-1.636267-3.927449-4.317329-5.183046-6.251378-5.572926-4.866844-0.955768-8.971325 2.653433-13.465686 7.130398l-6.616698 6.757914c-2.558265 2.566452-5.450129 5.184069-8.509814 7.766894-6.866385-17.249873-12.722766-34.979676-17.508769-53.114708 5.7694-3.220345 11.174504-7.219425 15.870456-11.924587 10.201339-10.172687 15.473413-21.533432 13.775748-29.583782-0.848321-4.193509-3.25616-5.962805-5.113461-6.705726-5.114484-2.034333-10.245342 1.503237-17.992793 6.846942-3.963265 2.7793-8.671497 6.014994-13.963013 8.953929-1.237177-6.600325-2.440585-13.199627-3.413749-19.87056-0.653893-4.545526-1.087774-9.111518-1.609661-13.640672 101.289917-4.033873 203.830315 32.077579 280.93746 109.167329C855.270623 327.740416 891.275651 436.81974 882.703415 542.962176z" p-id="9390"></path></svg>