<?xml version="1.0" standalone="no"?><!DOCTYPE svg PUBLIC "-//W3C//DTD SVG 1.1//EN" "http://www.w3.org/Graphics/SVG/1.1/DTD/svg11.dtd"><svg t="1617160932629" class="icon" viewBox="0 0 1024 1024" version="1.1" xmlns="http://www.w3.org/2000/svg" p-id="24179" xmlns:xlink="http://www.w3.org/1999/xlink" width="200" height="200"><defs><style type="text/css"></style></defs><path d="M973.894434 322.711704c-25.46455-59.597884-61.22328-113.235979-107.276191-159.288889s-99.691005-81.81164-159.288889-107.276191c-61.765079-26.006349-127.322751-39.551323-194.50582-39.551322s-133.28254 13.003175-195.047619 39.551322c-59.597884 25.46455-113.235979 61.22328-159.288889 107.276191s-81.81164 99.691005-107.27619 159.288889c-26.006349 61.765079-39.551323 127.322751-39.551323 195.047619s13.003175 133.28254 39.551323 195.047619c25.46455 59.597884 61.22328 113.235979 107.27619 159.288889s99.691005 81.81164 159.288889 107.27619c61.765079 26.006349 127.322751 39.551323 195.047619 39.551323s133.28254-13.003175 195.047619-39.551323c59.597884-25.46455 113.235979-61.22328 159.288889-107.27619s81.81164-99.691005 107.276191-159.288889c26.006349-61.765079 39.551323-127.322751 39.551323-195.047619s-14.086772-133.28254-40.093122-195.047619z m-256.812699 137.075132c-8.668783-0.541799-17.879365-0.541799-27.089947-0.541799-57.972487 0-114.319577 9.752381-167.957672 29.257143-35.75873-30.88254-65.557672-67.183069-88.855026-106.734392 78.560847-34.133333 164.706878-50.929101 257.354497-50.9291h5.959789c86.687831 0 161.456085 13.003175 229.180952 39.551323 16.795767 47.136508 25.46455 96.982011 25.46455 147.369312v15.17037c-71.51746-43.885714-151.161905-68.808466-234.057143-73.142857z m-198.840211 65.015873l0.541799 1.625397h-1.625397l1.083598-1.625397z m164.706878-411.225397c52.012698 22.213757 99.149206 53.638095 139.242328 93.731217 25.46455 25.46455 47.678307 53.638095 65.557672 83.978836-58.514286-16.253968-122.98836-23.839153-192.338624-23.839153h-5.959789c-102.4 0-198.298413 19.504762-284.986243 57.430687-21.671958-52.554497-33.049735-108.901587-33.049735-167.415873 0-17.879365 1.625397-36.842328 3.792592-56.888888 43.885714-14.628571 89.938624-21.671958 137.075132-21.671958 59.597884 0.541799 117.028571 11.919577 170.666667 34.675132z m-372.757672 15.712169c-0.541799 9.752381-1.083598 19.504762-1.083598 29.257143 0 76.93545 16.795767 151.161905 50.387302 219.970371 29.257143 60.139683 71.51746 114.319577 121.904762 158.74709-8.668783 48.761905-26.006349 95.356614-50.387302 138.15873-66.099471-48.761905-122.98836-110.526984-166.332275-180.419048-48.220106-78.560847-78.560847-164.165079-90.480423-255.7291 8.668783-10.835979 18.421164-21.130159 28.173545-31.424339 32.507937-31.966138 68.266667-58.514286 107.817989-78.560847z m-201.007407 558.594709c-22.755556-54.179894-34.133333-111.068783-34.133334-170.666666s11.377778-116.486772 34.133334-170.666667c4.87619-10.835979 9.752381-21.671958 15.17037-32.507936 5.959788 24.922751 12.461376 49.303704 21.130159 73.684656 16.795767 48.761905 39.009524 95.356614 66.099471 139.242328 47.678307 76.93545 111.068783 145.202116 184.753439 199.38201l-0.541799 0.541799c-42.802116 55.263492-98.607407 99.149206-161.997884 128.406349-10.835979-8.668783-21.130159-18.421164-30.882539-28.173544-40.093122-40.634921-71.51746-87.22963-93.731217-139.242329z m183.128042 208.050794c59.056085-32.507937 111.068783-76.93545 152.787302-130.031746 50.387302-63.932275 83.978836-139.242328 98.607407-219.428571 46.594709-16.253968 94.814815-24.922751 144.660318-24.922752-8.126984 82.895238-31.966138 161.456085-70.975662 235.140741-40.093122 75.310053-93.731217 140.867725-159.288889 195.047619-39.551323-4.87619-78.019048-15.17037-114.861375-30.88254-18.421164-7.585185-34.675132-15.712169-50.929101-24.922751z m529.879365-68.808465c-40.093122 40.093122-87.22963 72.059259-139.242328 93.731216-42.802116 18.421164-88.313228 29.257143-134.907936 33.049736 49.303704-49.303704 91.022222-105.650794 124.071957-167.415873 43.343915-81.269841 69.892063-169.04127 78.560847-260.605291 68.808466 9.752381 134.366138 35.75873 191.796825 76.393651-5.959788 29.257143-14.628571 57.972487-26.006349 85.604232-22.213757 52.012698-54.179894 98.607407-94.273016 139.242329z" p-id="24180"></path><path d="M967.392847 307.541333c-25.46455-59.597884-61.22328-113.235979-107.276191-159.288889s-99.691005-81.81164-159.288889-107.27619c-61.765079-26.006349-127.322751-39.551323-195.047619-39.551323s-132.740741 13.544974-194.50582 39.551323c-59.597884 25.46455-113.235979 61.22328-159.288889 107.27619s-81.81164 99.691005-106.734391 159.288889c-26.006349 61.765079-39.551323 127.322751-39.551323 195.047619s13.003175 133.28254 39.551323 195.047619c25.46455 59.597884 61.22328 113.235979 107.27619 159.288889s99.691005 81.81164 159.288889 107.276191c61.765079 26.006349 127.322751 39.551323 195.047619 39.551323s133.28254-13.003175 195.047619-39.551323c59.597884-25.46455 113.235979-61.22328 159.288889-107.276191s81.81164-99.691005 107.27619-159.288889c26.006349-61.765079 39.551323-127.322751 39.551323-195.047619s-14.628571-133.28254-40.63492-195.047619z m-256.812699 137.075133c-8.668783-0.541799-17.879365-0.541799-27.089947-0.541799-57.972487 0-114.319577 9.752381-167.957672 29.257143-35.75873-31.424339-65.557672-67.724868-89.396825-107.276191 78.560847-34.133333 164.706878-50.929101 257.354497-50.9291h5.959788c86.687831 0 161.456085 13.003175 229.180953 39.551322 16.795767 47.136508 25.46455 96.982011 25.46455 147.369312v15.170371c-70.975661-43.343915-150.620106-68.266667-233.515344-72.601058z m-198.298413 65.015873l0.541799 1.625396h-1.625396l1.083597-1.625396z m164.16508-410.683598c52.012698 22.213757 99.149206 53.638095 139.242328 93.731217 25.46455 25.46455 47.678307 53.638095 65.557672 83.978836-58.514286-16.253968-122.98836-23.839153-192.338625-23.839154h-5.417989c-102.4 0-198.298413 19.504762-284.986243 57.430688-21.671958-52.554497-33.049735-108.901587-33.049736-167.415873 0-17.879365 1.625397-36.842328 3.792593-56.888889 43.885714-14.628571 89.938624-21.671958 137.075132-21.671958 59.056085 0 116.486772 11.919577 170.124868 34.675133z m-372.757672 15.17037c-0.541799 9.752381-1.083598 19.504762-1.083598 29.257143 0 76.93545 16.795767 151.161905 50.387302 219.97037 29.257143 60.139683 71.51746 114.319577 121.904761 158.74709-8.668783 48.761905-26.006349 95.356614-50.387301 138.15873-66.099471-48.761905-122.98836-110.526984-166.332275-180.419047-48.220106-79.102646-78.560847-164.706878-89.938625-255.729101 8.668783-10.835979 18.421164-21.130159 28.173545-31.424338 31.966138-31.966138 67.724868-57.972487 107.276191-78.560847z m-201.007408 558.594709c-22.755556-54.179894-34.133333-111.068783-34.133333-170.666667s11.377778-116.486772 34.133333-170.666666c4.87619-10.835979 9.752381-21.671958 15.170371-32.507937 5.959788 24.922751 12.461376 49.303704 21.130159 73.684656 16.795767 48.761905 39.009524 95.356614 66.09947 139.242328 47.678307 76.93545 111.068783 145.202116 184.75344 199.382011l-0.541799 0.541799c-42.802116 54.721693-98.607407 98.607407-161.997884 127.86455-10.835979-8.668783-21.130159-18.421164-30.88254-28.173545-40.093122-40.093122-71.51746-86.687831-93.731217-138.700529z m183.128043 208.050794c59.056085-32.507937 111.068783-76.93545 152.787301-130.031746 50.387302-63.932275 83.978836-139.242328 98.607408-219.428572 46.594709-16.253968 94.814815-24.922751 144.660317-24.922751-8.126984 82.895238-31.966138 161.456085-70.975661 235.140741-40.093122 75.310053-93.731217 140.867725-159.288889 195.047619-39.551323-4.87619-78.019048-15.17037-114.861376-30.88254-18.421164-7.585185-34.675132-15.712169-50.9291-24.922751z m529.879365-68.808466c-40.093122 40.093122-87.22963 72.059259-139.242328 93.731217-42.802116 18.421164-88.313228 29.257143-134.907937 33.049736 49.303704-49.303704 91.022222-105.650794 124.071958-167.415873 43.343915-81.269841 69.892063-169.04127 78.560847-260.605291 68.808466 9.752381 134.366138 35.75873 191.796825 76.39365-5.959788 29.257143-14.628571 57.972487-26.006349 85.604233-22.213757 52.012698-53.638095 98.607407-94.273016 139.242328z" p-id="24181"></path></svg>