<?xml version="1.0" encoding="UTF-8"?>
<svg width="78px" height="78px" viewBox="0 0 78 78" version="1.1" xmlns="http://www.w3.org/2000/svg" xmlns:xlink="http://www.w3.org/1999/xlink">
    <title>3d</title>
    <defs>
        <circle id="path-1" cx="39" cy="39" r="36"></circle>
        <polygon id="path-3" points="0 0 72 0 72 72 0 72"></polygon>
        <path d="M0,0.0211586875 C0.425223035,0.0841586875 0.85807176,0.111658688 1.29709366,0.101158688 L3.82882295,0.476658688 C3.38980105,0.487158688 2.95695232,0.459658688 2.53136616,0.396658688" id="path-5"></path>
        <path d="M0,0 L2.53172929,0.274954414 C7.67725482,0.833650068 11.7188709,5.22340164 11.7994853,10.6272993 L9.26775601,10.3523449" id="path-7"></path>
        <path d="M0,0 L2.53172929,0.274954414 C7.67725482,0.833650068 11.7188709,5.22340164 11.7994853,10.6272993 L9.26775601,10.3523449" id="path-9"></path>
        <path d="M0,0 L2.53172929,0.274954414 C7.67725482,0.833650068 11.7188709,5.22340164 11.7994853,10.6272993 L9.26775601,10.3523449" id="path-11"></path>
        <path d="M0,0 L2.53172929,0.274954414 C7.67725482,0.833650068 11.7188709,5.22340164 11.7994853,10.6272993 L9.26775601,10.3523449" id="path-13"></path>
        <path d="M0,0 L2.53172929,0.274954414 C7.67725482,0.833650068 11.7188709,5.22340164 11.7994853,10.6272993 L9.26775601,10.3523449" id="path-15"></path>
        <path d="M0,0 L2.53172929,0.274954414 C7.67725482,0.833650068 11.7188709,5.22340164 11.7994853,10.6272993 L9.26775601,10.3523449" id="path-17"></path>
        <path d="M0,0 L2.53172929,0.274954414 C7.67725482,0.833650068 11.7188709,5.22340164 11.7994853,10.6272993 L9.26775601,10.3523449" id="path-19"></path>
        <path d="M0,0 L2.53172929,0.274954414 C7.67725482,0.833650068 11.7188709,5.22340164 11.7994853,10.6272993 L9.26775601,10.3523449" id="path-21"></path>
        <path d="M0,0 L2.53172929,0.274954414 C7.67725482,0.833650068 11.7188709,5.22340164 11.7994853,10.6272993 L9.26775601,10.3523449" id="path-23"></path>
        <path d="M0,0 L2.53172929,0.274954414 C7.67725482,0.833650068 11.7188709,5.22340164 11.7994853,10.6272993 L9.26775601,10.3523449" id="path-25"></path>
        <path d="M10.2485651,0 L12.7802944,0.274954414 C12.8678082,6.12881078 8.278595,10.9513135 2.53172929,11.052362 L0,10.7774076" id="path-27"></path>
        <path d="M10.2485651,0 L12.7802944,0.274954414 C12.8678082,6.12881078 8.278595,10.9513135 2.53172929,11.052362 L0,10.7774076" id="path-29"></path>
        <path d="M10.2485651,0 L12.7802944,0.274954414 C12.8678082,6.12881078 8.278595,10.9513135 2.53172929,11.052362 L0,10.7774076" id="path-31"></path>
        <path d="M10.2485651,0 L12.7802944,0.274954414 C12.8678082,6.12881078 8.278595,10.9513135 2.53172929,11.052362 L0,10.7774076" id="path-33"></path>
        <path d="M10.2485651,0 L12.7802944,0.274954414 C12.8678082,6.12881078 8.278595,10.9513135 2.53172929,11.052362 L0,10.7774076" id="path-35"></path>
        <path d="M10.2485651,0 L12.7802944,0.274954414 C12.8678082,6.12881078 8.278595,10.9513135 2.53172929,11.052362 L0,10.7774076" id="path-37"></path>
        <path d="M10.2485651,0 L12.7802944,0.274954414 C12.8678082,6.12881078 8.278595,10.9513135 2.53172929,11.052362 L0,10.7774076" id="path-39"></path>
    </defs>
    <g id="绿色版" stroke="none" stroke-width="1" fill="none" fill-rule="evenodd">
        <g id="Lottery/On-Sale04" transform="translate(-50.000000, -436.000000)">
            <g id="编组" transform="translate(50.000000, 436.000000)">
                <g id="3d" transform="translate(0.000000, 0.000000)">
                    <circle id="蒙版" fill="#FFFFFF" cx="39" cy="39" r="39"></circle>
                    <mask id="mask-2" fill="white">
                        <use xlink:href="#path-1"></use>
                    </mask>
                    <use id="蒙版" fill="#D8D8D8" xlink:href="#path-1"></use>
                    <g id="编组" mask="url(#mask-2)">
                        <g transform="translate(2.000000, 0.000000)">
                            <g id="编组" stroke="none" stroke-width="1" fill="none" fill-rule="evenodd">
                                <mask id="mask-4" fill="white">
                                    <use xlink:href="#path-3"></use>
                                </mask>
                                <g id="Clip-2"></g>
                                <path d="M72,36.0000364 C72,55.8823621 55.8824191,72 35.9997999,72 C16.1175445,72 -3.63877295e-05,55.8823621 -3.63877295e-05,36.0000364 C-3.63877295e-05,16.1177107 16.1175445,-0.000291102865 35.9997999,-0.000291102865 C55.8824191,-0.000291102865 72,16.1177107 72,36.0000364" id="Fill-1" fill="#4B3779" mask="url(#mask-4)"></path>
                            </g>
                            <g id="编组" stroke="none" stroke-width="1" fill="none" fill-rule="evenodd" transform="translate(4.000000, 5.000000)">
                                <g transform="translate(9.890808, 63.604969)">
                                    <mask id="mask-6" fill="white">
                                        <use xlink:href="#path-5"></use>
                                    </mask>
                                    <g id="Clip-4"></g>
                                    <path d="M1.29705735,0.101258688 L3.82878664,0.476758688 C3.38976474,0.487258688 2.95691601,0.459758688 2.53132985,0.396758688 L-3.63128125e-05,0.0212586875 C0.425186722,0.0842586875 0.858398575,0.111758688 1.29705735,0.101258688" id="Fill-3" fill="#4D316F" mask="url(#mask-6)"></path>
                                </g>
                                <polygon id="Fill-5" fill="#4A306B" points="52.2185108 62.9568737 54.7502401 63.2318281 13.7193039 63.9541784 11.1879377 63.6792239"></polygon>
                                <g transform="translate(52.576882, 0.060228)">
                                    <g>
                                        <mask id="mask-8" fill="white">
                                            <use xlink:href="#path-7"></use>
                                        </mask>
                                        <g id="Clip-8"></g>
                                        <path d="M-3.63128125e-05,-0.000146447092 L2.53169298,0.274807967 C2.73431847,0.296775031 2.93549145,0.324966096 3.13448566,0.358648927 L0.603119503,0.0836945128 C0.403762163,0.0500116818 0.202589181,0.0218206166 -3.63128125e-05,-0.000146447092" id="Fill-7" fill="#56377C" mask="url(#mask-8)"></path>
                                    </g>
                                    <g>
                                        <mask id="mask-10" fill="white">
                                            <use xlink:href="#path-9"></use>
                                        </mask>
                                        <g id="Clip-10"></g>
                                        <path d="M0.603010565,0.0836945128 L3.13473985,0.358648927 C3.514935,0.423085647 3.88823071,0.508391078 4.25317448,0.613832984 L1.72180832,0.33887857 C1.35650142,0.233436664 0.983205712,0.148131233 0.603010565,0.0836945128" id="Fill-9" fill="#593980" mask="url(#mask-10)"></path>
                                    </g>
                                    <g>
                                        <mask id="mask-12" fill="white">
                                            <use xlink:href="#path-11"></use>
                                        </mask>
                                        <g id="Clip-12"></g>
                                        <path d="M1.72162675,0.338805346 L4.25335604,0.613759761 C4.63137242,0.722862844 5.00067373,0.853200755 5.35980744,1.00330902 L2.82807815,0.72835461 C2.46894444,0.578246341 2.09964313,0.447908429 1.72162675,0.338805346" id="Fill-11" fill="#5C3B84" mask="url(#mask-12)"></path>
                                    </g>
                                    <g>
                                        <mask id="mask-14" fill="white">
                                            <use xlink:href="#path-13"></use>
                                        </mask>
                                        <g id="Clip-14"></g>
                                        <path d="M2.8282234,0.728317998 L5.35995269,1.00327241 C5.75794112,1.16985598 6.14394632,1.36096943 6.51615264,1.57478219 L3.98442335,1.29946165 C3.61258015,1.08601502 3.22657496,0.894901564 2.8282234,0.728317998" id="Fill-13" fill="#5F3D88" mask="url(#mask-14)"></path>
                                    </g>
                                    <g>
                                        <mask id="mask-16" fill="white">
                                            <use xlink:href="#path-15"></use>
                                        </mask>
                                        <g id="Clip-16"></g>
                                        <path d="M3.9842781,1.29949827 L6.51600739,1.57445268 C6.96919129,1.8351285 7.40131376,2.12912104 7.80910665,2.45386747 L5.27737736,2.17854693 C4.86958447,1.85416663 4.437462,1.55980797 3.9842781,1.29949827" id="Fill-15" fill="#623F8D" mask="url(#mask-16)"></path>
                                    </g>
                                    <g>
                                        <mask id="mask-18" fill="white">
                                            <use xlink:href="#path-17"></use>
                                        </mask>
                                        <g id="Clip-18"></g>
                                        <path d="M5.27737736,2.17869338 L7.80910665,2.45364779 C8.58256955,3.06945781 9.26851858,3.79437092 9.84407666,4.60642004 L7.31234737,4.33146563 C6.73678929,3.5194165 6.05084026,2.7945034 5.27737736,2.17869338" id="Fill-17" fill="#654191" mask="url(#mask-18)"></path>
                                    </g>
                                    <g>
                                        <mask id="mask-20" fill="white">
                                            <use xlink:href="#path-19"></use>
                                        </mask>
                                        <g id="Clip-20"></g>
                                        <path d="M7.31216581,4.33157546 L9.8438951,4.60652988 C10.1166043,4.99131961 10.3646208,5.3958797 10.5854027,5.8172812 L8.05367344,5.54232679 C7.83289154,5.12092528 7.58487503,4.71636519 7.31216581,4.33157546" id="Fill-19" fill="#684395" mask="url(#mask-20)"></path>
                                    </g>
                                    <g>
                                        <mask id="mask-22" fill="white">
                                            <use xlink:href="#path-21"></use>
                                        </mask>
                                        <g id="Clip-22"></g>
                                        <path d="M8.05367344,5.54240001 L10.5854027,5.81735443 C11.0244246,6.65576403 11.3555975,7.56153929 11.5607649,8.51710656 L9.02903558,8.24215215 C8.82423132,7.28658487 8.49269534,6.38080961 8.05367344,5.54240001" id="Fill-21" fill="#654191" mask="url(#mask-22)"></path>
                                    </g>
                                    <g>
                                        <mask id="mask-24" fill="white">
                                            <use xlink:href="#path-23"></use>
                                        </mask>
                                        <g id="Clip-24"></g>
                                        <path d="M9.0290719,8.24196909 L11.5608012,8.5169235 C11.6701028,9.0269255 11.7438178,9.55120608 11.7779518,10.0864702 L9.24658564,9.81151579 C9.21208847,9.27625167 9.13873659,8.75197108 9.0290719,8.24196909" id="Fill-23" fill="#623F8D" mask="url(#mask-24)"></path>
                                    </g>
                                    <g>
                                        <mask id="mask-26" fill="white">
                                            <use xlink:href="#path-25"></use>
                                        </mask>
                                        <g id="Clip-26"></g>
                                        <path d="M9.24644039,9.81136934 L11.7781697,10.0863238 C11.7894267,10.2653553 11.7966892,10.4458514 11.7995942,10.6274458 L9.26786495,10.3524913 C9.26532306,10.170897 9.25806049,9.99040091 9.24644039,9.81136934" id="Fill-25" fill="#5F3D88" mask="url(#mask-26)"></path>
                                    </g>
                                </g>
                                <polygon id="Fill-27" fill="#623F8C" points="61.8447832 10.4125725 64.3765125 10.6875269 64.9989141 52.4546036 62.4671849 52.1796491"></polygon>
                                <path d="M51.2803693,0.00161218233 C57.027235,-0.0994363108 61.7577051,4.56234073 61.8448559,10.4125359 L62.4672575,52.1796125 C62.5544082,58.0334689 57.9655581,62.8559716 52.2183293,62.9570201 L11.1877561,63.6790043 C5.44125355,63.7800528 0.710783466,59.1219369 0.623632716,53.2680805 L0.00123110897,11.5010039 C-0.0862827692,5.65044262 4.50293048,0.825010954 10.2497962,0.723596343 L51.2803693,0.00161218233 Z" id="Fill-29" fill="#7C4FB2"></path>
                                <g transform="translate(52.218475, 52.179649)">
                                    <g>
                                        <mask id="mask-28" fill="white">
                                            <use xlink:href="#path-27"></use>
                                        </mask>
                                        <g id="Clip-32"></g>
                                        <path d="M10.248674,0 L12.7804033,0.274954414 C12.7843977,0.542220356 12.7785877,0.807289592 12.7633363,1.069796 L10.2319701,0.794475471 C10.2468584,0.532335178 10.2526684,0.267265942 10.248674,0" id="Fill-31" fill="#5F3D88" mask="url(#mask-28)"></path>
                                    </g>
                                    <g>
                                        <mask id="mask-30" fill="white">
                                            <use xlink:href="#path-29"></use>
                                        </mask>
                                        <g id="Clip-34"></g>
                                        <path d="M10.2318249,0.794621919 L12.7635542,1.06957633 C12.7399508,1.47486866 12.6941967,1.8743031 12.6273811,2.26641519 L10.0956518,1.99146077 C10.1624674,1.59934869 10.2085847,1.19991424 10.2318249,0.794621919" id="Fill-33" fill="#5C3B84" mask="url(#mask-30)"></path>
                                    </g>
                                    <g>
                                        <mask id="mask-32" fill="white">
                                            <use xlink:href="#path-31"></use>
                                        </mask>
                                        <g id="Clip-36"></g>
                                        <path d="M10.0954703,1.99131433 L12.6271996,2.26626874 C12.5611102,2.65325518 12.4743226,3.03291927 12.3682892,3.40416264 L9.83655991,3.12920823 C9.94259332,2.75796485 10.0293809,2.37830077 10.0954703,1.99131433" id="Fill-35" fill="#593980" mask="url(#mask-32)"></path>
                                    </g>
                                    <g>
                                        <mask id="mask-34" fill="white">
                                            <use xlink:href="#path-33"></use>
                                        </mask>
                                        <g id="Clip-38"></g>
                                        <path d="M9.83659622,3.12935467 L12.3683255,3.40430909 C12.2575714,3.79056329 12.1264822,4.16729844 11.9754209,4.5341484 L9.44369159,4.25919399 C9.59475289,3.89234402 9.72620527,3.51560888 9.83659622,3.12935467" id="Fill-37" fill="#56377C" mask="url(#mask-34)"></path>
                                    </g>
                                    <g>
                                        <mask id="mask-36" fill="white">
                                            <use xlink:href="#path-35"></use>
                                        </mask>
                                        <g id="Clip-40"></g>
                                        <path d="M9.44387315,4.25915737 L11.9756024,4.53411179 C11.8082004,4.94050247 11.6168319,5.33407903 11.4029494,5.71337699 L8.8712201,5.43805646 C9.08510257,5.05912461 9.27647109,4.66554805 9.44387315,4.25915737" id="Fill-39" fill="#533577" mask="url(#mask-36)"></path>
                                    </g>
                                    <g>
                                        <mask id="mask-38" fill="white">
                                            <use xlink:href="#path-37"></use>
                                        </mask>
                                        <g id="Clip-42"></g>
                                        <path d="M8.87132904,5.43812968 L11.4030583,5.7130841 C11.1401536,6.17915197 10.8434779,6.62325277 10.5162994,7.04172534 L7.98457016,6.76677092 C8.3117486,6.34829836 8.60842428,5.90419755 8.87132904,5.43812968" id="Fill-41" fill="#503373" mask="url(#mask-38)"></path>
                                    </g>
                                    <g>
                                        <mask id="mask-40" fill="white">
                                            <use xlink:href="#path-39"></use>
                                        </mask>
                                        <g id="Clip-44"></g>
                                        <path d="M7.98460647,6.76673431 L10.5163358,7.04168872 C8.64259463,9.43792926 5.77134055,10.9953941 2.53151141,11.0525084 L0.00014525125,10.7771879 C3.23961126,10.7204397 6.11122847,9.16297485 7.98460647,6.76673431" id="Fill-43" fill="#4D316F" mask="url(#mask-40)"></path>
                                    </g>
                                </g>
                            </g>
                            <path d="M16.6672863,43.065743 C16.8418382,44.2428127 17.0397875,44.746748 17.593897,45.3689762 C18.5297925,46.3944258 19.9488625,46.975636 21.6743269,47.0345994 C24.4782993,47.1309184 26.2884399,45.8084546 26.3645743,43.6458545 C26.4158257,42.1926458 25.7365587,41.0335215 24.5306649,40.5310512 C23.7139847,40.2190215 22.6057657,40.0036771 21.2037794,39.9557007 C19.8017932,39.9077243 18.1814314,39.923106 16.7746171,40.0172276 L16.9892789,33.9194645 C18.2066857,34.103313 19.3902963,34.2146475 20.7919112,34.2626239 C24.2071867,34.3794519 25.9367364,33.303096 26.0165846,31.0342886 C26.0838057,29.1199939 24.7568396,27.9740539 22.3840476,27.8931166 C19.8318756,27.8055871 18.5026812,28.7541281 17.8835789,31.0042576 L10.1572421,29.6396771 C10.9178429,27.4649913 11.5302602,26.4215963 12.7242696,25.2199891 C14.9993869,22.9555765 18.3492983,21.8634726 22.7350084,22.0136277 C26.6535134,22.1476686 29.8515276,23.3218085 31.8317635,25.3415781 C33.1156486,26.698834 33.7388361,28.4237868 33.6679012,30.4446551 C33.535316,34.2018294 31.4039256,36.4713692 27.2365911,37.2873342 C29.4181189,37.6810336 30.586874,38.218296 31.8076233,39.3246829 C33.2701456,40.7236892 34.0678851,42.5965998 33.9954646,44.6526263 C33.9319574,46.4603476 33.3700488,48.1091241 32.3914438,49.318056 C31.5632506,50.3544927 30.2700808,51.3041323 28.9189746,51.8611712 C27.0197011,52.6478376 24.0890856,53.0799914 21.3928155,52.9877009 C18.1572912,52.8770988 14.9485069,52.0219471 13.0867434,50.7159637 C11.4704669,49.5960261 10.2671727,47.9933948 9.54482485,46.0161081 C9.34687553,45.5125391 9.21911838,45.046692 9,44.1164627 L16.6672863,43.065743 Z" id="Fill-45" stroke="none" fill="#FFFFFF" fill-rule="evenodd"></path>
                            <path d="M49.1206238,45.793274 C51.3775198,45.9096508 53.0046691,45.3947486 54.318401,44.1946821 C55.8163247,42.7925464 56.6986983,40.4784798 56.8457605,37.5630703 C56.9960989,34.577685 56.4460715,32.3657757 55.1607328,30.9258456 C54.0075317,29.6337253 52.369098,28.985607 49.8690396,28.8568815 L45.3203021,28.6226309 L44.4677778,45.5534103 L49.1206238,45.793274 Z M38.5001078,27.1793329 C38.620597,24.7908002 38.6096765,23.6281539 38.4476896,22 C39.8331326,22.1414484 40.6994894,22.2211535 43.5814001,22.3697118 L50.8384129,22.743914 C55.1090426,22.9639449 58.4863783,24.3353961 60.6977724,26.7385227 C63.1050069,29.3983521 64.2043337,33.1530972 63.9688156,37.8250119 C63.7267453,42.6368782 62.1429139,46.4294177 59.3698439,48.9627668 C56.926572,51.1612048 53.567801,52.1853963 49.4358612,51.9724752 L42.1096854,51.5949052 C39.4359917,51.4571988 38.4618862,51.4422307 37,51.437366 C37.2861162,49.9023885 37.4138856,48.7472263 37.5361948,46.3231443 L38.5001078,27.1793329 Z" id="Fill-47" stroke="none" fill="#FFFFFF" fill-rule="evenodd"></path>
                            <path d="M16.6728884,42.0404228 C16.8418784,43.2181841 17.0372383,43.7228342 17.5884056,44.3479706 C18.5191505,45.3777792 19.9356952,45.9655612 21.6612501,46.0325793 C24.4649983,46.1417126 26.2815479,44.8277178 26.3680856,42.6659254 C26.426025,41.2127672 25.7526649,40.0507534 24.5489362,39.5424411 C23.7333274,39.22676 22.6261644,39.006296 21.224476,38.9517294 C19.8224162,38.8971627 18.2023407,38.9048533 16.7947098,38.9923797 L17.0387239,32.8959272 C18.2550804,33.0856288 19.4383818,33.2024528 20.8404416,33.2570194 C24.2551536,33.3895908 25.9896223,32.3213292 26.0806169,30.0533331 C26.1571267,28.1394711 24.8352907,26.9873453 22.4627455,26.895058 C19.9108109,26.7958126 18.5770899,27.7377286 17.9471844,29.9852163 L10.2271273,28.5844276 C10.9981674,26.4134796 11.6158165,25.3726844 12.8154597,24.1769784 C15.1018386,21.9232649 18.4571256,20.8465802 22.842323,21.0176047 C26.7599195,21.1699519 29.9525304,22.3590659 31.9235851,24.3879208 C33.2008523,25.7513552 33.8155302,27.4788115 33.7345636,29.4992433 C33.5845153,33.2559208 31.4418708,35.5154938 27.2702322,36.3116545 C29.4500174,36.7155944 30.616234,37.2583314 31.8318477,38.3705394 C33.2873901,39.776089 34.0762576,41.6525966 33.9941768,43.7081855 C33.9217525,45.5154776 33.3520148,47.1616333 32.3677874,48.3657624 C31.5347225,49.3985007 30.2370279,50.3418816 28.8828795,50.8926754 C26.9797922,51.6705252 24.0467945,52.0891139 21.3507542,51.9840089 C18.1158029,51.8583957 14.9109356,50.9878925 13.0553884,49.6735314 C11.4442267,48.5459422 10.2486689,46.9375071 9.53593969,44.9573595 C9.34020842,44.4527093 9.214673,43.9861459 9,43.0552165 L16.6728884,42.0404228 Z" id="Fill-49" stroke="none" fill="#583C8D" fill-rule="evenodd"></path>
                            <path d="M48.1205158,45.5863535 C50.3773405,45.7064315 52.0045372,45.174711 53.3183559,43.93453 C54.8163246,42.4860886 55.6986651,40.0946595 55.8454825,37.0822017 C55.9958897,33.9969466 55.4459524,31.7113362 54.1608511,30.2234943 C53.0074906,28.8883766 51.3688069,28.2189415 48.8686028,28.08573 L44.3201338,27.8433224 L43.4675875,45.3386925 L48.1205158,45.5863535 Z M37.5001225,26.3521033 C37.6203764,23.8841244 37.6092484,22.6825935 37.4477133,21 C38.8329664,21.1463451 39.6995124,21.2288988 42.5812983,21.3823735 L49.8381722,21.7688747 C54.1091599,21.9962725 57.48632,23.4135686 59.6975559,25.8969325 C62.1051466,28.6455938 63.2043031,32.5248649 62.9688208,37.3523773 C62.7265182,42.325109 61.1427564,46.2437807 58.3697375,48.8618572 C55.9266091,51.1332083 52.5677562,52.1917713 48.4356887,51.9715031 L41.1091752,51.5816248 C38.4359491,51.4390321 37.461713,51.4240223 36,51.4183937 C36.2860966,49.8326131 36.4138888,48.6385871 36.5359375,46.1338343 L37.5001225,26.3521033 Z" id="Fill-51" stroke="none" fill="#583C8D" fill-rule="evenodd"></path>
                            <path d="M16.6672863,40.0658603 C16.8418382,41.2429161 17.0397875,41.7464792 17.5942684,42.3690663 C18.5297925,43.3945038 19.9488625,43.9757072 21.6743269,44.0346699 C24.4782993,44.1306215 26.2888113,42.8081733 26.3645743,40.645965 C26.4158257,39.1927735 25.7369301,38.0336628 24.5306649,37.5308322 C23.7139847,37.2191724 22.6057657,37.0038306 21.2037794,36.9558547 C19.8017932,36.9075127 18.1814314,36.9232605 16.7746171,37.0170148 L16.9892789,30.9196899 C18.2066857,31.1035362 19.3902963,31.2148694 20.7922825,31.2628452 C24.2071867,31.3796718 25.9367364,30.3033286 26.0165846,28.0345481 C26.0838057,26.1202759 24.7568396,24.9743494 22.3840476,24.8930469 C19.8318756,24.8058847 18.5026812,25.7540482 17.8835789,28.0045174 L10.1572421,26.639953 C10.9178429,24.4652929 11.5302602,23.421544 12.7242696,22.2203172 C14.9993869,19.9555651 18.3492983,18.8634741 22.7350084,19.0136275 C26.6535134,19.1476668 29.8515276,20.3217928 31.8321349,22.3419048 C33.1156486,23.6991446 33.7388361,25.4240771 33.6679012,27.4445553 C33.535316,31.2020514 31.4039256,33.4715644 27.2365911,34.2875197 C29.4181189,34.6812145 30.586874,35.2184705 31.8076233,36.3248444 C33.2701456,37.723468 34.0678851,39.5967226 33.9954646,41.6523587 C33.9319574,43.4604248 33.3700488,45.1091819 32.3914438,46.3180995 C31.5632506,47.3541577 30.2700808,48.3037861 28.9189746,48.8611847 C27.0197011,49.6478417 24.0890856,50.0799904 21.3928155,49.987701 C18.1576626,49.8771003 14.9485069,49.0219586 13.0867434,47.7159906 C11.4704669,46.5957001 10.2671727,44.9930877 9.54482485,43.0161906 C9.34687553,42.5126276 9.21911838,42.0467859 9,41.1165676 L16.6672863,40.0658603 Z" id="Fill-53" stroke="none" fill="#FFFFFF" fill-rule="evenodd"></path>
                            <path d="M48.1205157,44.5863535 C50.3773403,44.7064315 52.004896,44.174711 53.3183557,42.93453 C54.8163244,41.4860886 55.6986649,39.0946595 55.8458413,36.0818265 C55.9958895,32.9969466 55.4459523,30.7113362 54.1608509,29.2234943 C53.0074904,27.8883766 51.3688068,27.2189415 48.8689616,27.08573 L44.3204926,26.8433224 L43.4675874,44.3383173 L48.1205157,44.5863535 Z M37.5001225,25.3521033 C37.6203764,22.8837491 37.6096074,21.6825935 37.4477133,20 C38.8329664,20.1463451 39.6995124,20.2288988 42.5812982,20.3823735 L49.8385311,20.7688747 C54.1091597,20.9962725 57.4863198,22.4135686 59.6979146,24.8965572 C62.1051463,27.6452186 63.2043028,31.5248649 62.9688206,36.3523773 C62.7265179,41.325109 61.1431152,45.2434055 58.3697373,47.8618572 C55.9266089,50.1332083 52.567756,51.1917713 48.4356886,50.9715031 L41.1095342,50.5812495 C38.4359491,50.4390321 37.461713,50.4236471 36,50.4183937 C36.2860966,48.8322378 36.4138888,47.6385871 36.5359375,45.1338343 L37.5001225,25.3521033 Z" id="Fill-55" stroke="none" fill="#FFFFFF" fill-rule="evenodd"></path>
                            <path d="M34,66.5 C34,70.0898056 31.0898056,73 27.5,73 C23.9101944,73 21,70.0898056 21,66.5 C21,62.9101944 23.9101944,60 27.5,60 C31.0898056,60 34,62.9101944 34,66.5" id="Fill-57" stroke="none" fill="#DD9458" fill-rule="evenodd"></path>
                            <path d="M34,66.5 C34,70.0898056 31.0898056,73 27.5,73 C23.9101944,73 21,70.0898056 21,66.5 C21,62.9101944 23.9101944,60 27.5,60 C31.0898056,60 34,62.9101944 34,66.5" id="Fill-59" stroke="none" fill="#F9B428" fill-rule="evenodd"></path>
                            <path d="M50,62 C50,67.5230189 45.5230189,72 40,72 C34.4769811,72 30,67.5230189 30,62 C30,56.4769811 34.4769811,52 40,52 C45.5230189,52 50,56.4769811 50,62" id="Fill-61" stroke="none" fill="#359EAF" fill-rule="evenodd"></path>
                            <path d="M49,62 C49,67.5230189 44.5230189,72 39,72 C33.4769811,72 29,67.5230189 29,62 C29,56.4769811 33.4769811,52 39,52 C44.5230189,52 49,56.4769811 49,62" id="Fill-63" stroke="none" fill="#59C7DF" fill-rule="evenodd"></path>
                            <path d="M17,62.5 C17,64.9852414 14.9852414,67 12.5,67 C10.0147586,67 8,64.9852414 8,62.5 C8,60.0147586 10.0147586,58 12.5,58 C14.9852414,58 17,60.0147586 17,62.5" id="Fill-65" stroke="none" fill="#CE55B4" fill-rule="evenodd"></path>
                            <path d="M17,62.5 C17,64.9852414 14.9852414,67 12.5,67 C10.0147586,67 8,64.9852414 8,62.5 C8,60.0147586 10.0147586,58 12.5,58 C14.9852414,58 17,60.0147586 17,62.5" id="Fill-67" stroke="none" fill="#EF7BD1" fill-rule="evenodd"></path>
                            <path d="M38.2154374,59.558512 C38.2154374,59.9931196 38.3343535,60.3431067 38.5721857,60.6092157 C38.8100179,60.8749536 39.1267916,61.0078225 39.5225067,61.0078225 C39.8732084,61.0078225 40.1610929,60.8764382 40.386496,60.6132983 C40.6118991,60.3505296 40.7247686,60.0101921 40.7247686,59.5930282 C40.7247686,59.1584206 40.6068603,58.8054644 40.3713795,58.5337882 C40.1358988,58.2624832 39.8355852,58.1266452 39.470103,58.1266452 C39.099246,58.1266452 38.7975888,58.2595141 38.5647955,58.5252519 C38.3320021,58.7909898 38.2154374,59.1354098 38.2154374,59.558512 Z M38.0501642,64.9697662 C38.0501642,65.5242527 38.1976336,65.9774174 38.4932443,66.3288891 C38.7888549,66.6803609 39.1267916,66.8562823 39.5077262,66.8562823 C39.8732084,66.8562823 40.2010675,66.6777629 40.4916393,66.3203529 C40.7822111,65.9629429 40.9273291,65.5101493 40.9273291,64.9612299 C40.9273291,64.4067434 40.7808674,63.9520941 40.4879442,63.5976532 C40.1950209,63.2432124 39.8557405,63.0658064 39.470103,63.0658064 C39.0895043,63.0658064 38.7576142,63.2376452 38.4744327,63.5805807 C38.191587,63.9235161 38.0501642,64.3867017 38.0501642,64.9697662 Z M36.8405121,62.0284638 C36.3598089,61.7367459 36.0091072,61.410883 35.7887429,61.050875 C35.4884294,60.5591115 35.3379367,59.9931196 35.3379367,59.3528992 C35.3379367,58.301082 35.771275,57.4404031 36.6376157,56.7716048 C37.313825,56.2568304 38.2080472,56 39.3199463,56 C40.7922887,56 41.8803374,56.3199246 42.5840923,56.960145 C43.2875112,57.6007366 43.6395566,58.4064864 43.6395566,59.378508 C43.6395566,59.9445 43.4991415,60.4733777 43.2189833,60.9651412 C43.0083607,61.3307163 42.6778143,61.6851572 42.2270081,62.0284638 C42.8229322,62.3543267 43.2676918,62.7859651 43.5606151,63.3233791 C43.8535384,63.8607931 44,64.4549919 44,65.1070888 C44,65.7358038 43.8736936,66.323322 43.620745,66.8692723 C43.3677964,67.4152225 43.0574052,67.8368402 42.6892356,68.1341251 C42.321066,68.4314101 41.8628695,68.6500128 41.3143102,68.7903046 C40.7660869,68.9298541 40.1812481,69 39.5601299,69 C38.3931397,69 37.501605,68.8430068 36.8858615,68.5282782 C36.269782,68.2142918 35.801172,67.7511063 35.4807032,67.1394638 C35.1602344,66.5274503 35,65.8445485 35,65.0896451 C35,64.3521855 35.1501568,63.727553 35.4508062,63.216119 C35.7514557,62.704685 36.214355,62.3086762 36.8405121,62.0284638 Z" id="Stroke-69" stroke="#FFFFFF" stroke-width="1" fill="none"></path>
                            <path d="M25.7673596,68.319291 C25.7673596,68.7379284 25.8499665,69.0659175 26.0157898,69.3036344 C26.1813083,69.5409751 26.3840151,69.6594574 26.6242151,69.6594574 C26.8449064,69.6594574 27.0299335,69.5522592 27.1789916,69.3378626 C27.3280497,69.1230899 27.4024264,68.8029997 27.4024264,68.3772157 C27.4024264,67.941276 27.3250015,67.6087733 27.1707614,67.3800837 C27.0159117,67.151394 26.8241785,67.0370492 26.595257,67.0370492 C26.3605438,67.0370492 26.1639334,67.1476327 26.0054258,67.3695519 C25.8466134,67.591095 25.7673596,67.9078001 25.7673596,68.319291 Z M28.8719746,64.8735248 L27.1954521,65.137195 C27.1512528,64.8381682 27.0774858,64.6271569 26.9738462,64.5037849 C26.8705115,64.3807889 26.742791,64.3194791 26.5909895,64.3194791 C26.3178687,64.3194791 26.1054075,64.4951338 25.953606,64.8471954 C25.8432604,65.1003338 25.7618728,65.6419672 25.7094434,66.4724717 C25.9109309,66.2118106 26.1176004,66.019606 26.3303664,65.8943533 C26.5428275,65.7698528 26.7885143,65.7070384 27.0671219,65.7070384 C27.6078766,65.7070384 28.0654149,65.9534064 28.4394318,66.4461423 C28.8131439,66.938502 29,67.5628849 29,68.319291 C29,68.8293291 28.9055051,69.2957356 28.7165153,69.7177582 C28.5275255,70.1397809 28.2653783,70.4591189 27.9300738,70.6753961 C27.5950741,70.8916733 27.1747241,71 26.6696336,71 C26.0627324,71 25.5756264,70.8679769 25.2086204,70.6043067 C24.8416143,70.3406366 24.5483753,69.9189901 24.3289032,69.3404956 C24.109736,68.7616249 24,67.9958155 24,67.0423151 C24,65.6457285 24.2304457,64.6226433 24.6910321,63.9738117 C25.1519234,63.3246039 25.7908309,63 26.6077547,63 C27.0905932,63 27.4719259,63.0710894 27.7520576,63.2136443 C28.0321892,63.3561992 28.2647686,63.5645776 28.4497958,63.8391556 C28.6345181,64.1133575 28.775346,64.4582726 28.8719746,64.8735248 Z" id="Stroke-71" stroke="#FFFFFF" stroke-width="1" fill="none"></path>
                            <path d="M12,61 L12,66 L10.5285924,66 L10.5285924,62.723685 C10.2904273,62.8935976 10.0601173,63.0309555 9.83766234,63.1360443 C9.61489317,63.2411331 9.33588186,63.3419384 9,63.4378891 L9,62.3178937 C9.49518224,62.1682563 9.8797654,61.9880633 10.1537495,61.7781712 C10.4274194,61.5679936 10.6417051,61.3086984 10.7962924,61 L12,61 Z" id="Stroke-73" stroke="#FFFFFF" stroke-width="1" fill="none"></path>
                            <path d="M37.2154374,59.558512 C37.2154374,59.9931196 37.3343535,60.3431067 37.5721857,60.6092157 C37.8100179,60.8749536 38.1267916,61.0078225 38.5225067,61.0078225 C38.8732084,61.0078225 39.1610929,60.8764382 39.386496,60.6132983 C39.6118991,60.3505296 39.7247686,60.0101921 39.7247686,59.5930282 C39.7247686,59.1584206 39.6068603,58.8054644 39.3713795,58.5337882 C39.1358988,58.2624832 38.8355852,58.1266452 38.470103,58.1266452 C38.099246,58.1266452 37.7975888,58.2595141 37.5647955,58.5252519 C37.3320021,58.7909898 37.2154374,59.1354098 37.2154374,59.558512 M37.0501642,64.9697662 C37.0501642,65.5242527 37.1976336,65.9774174 37.4932443,66.3288891 C37.7888549,66.6803609 38.1267916,66.8562823 38.5077262,66.8562823 C38.8732084,66.8562823 39.2010675,66.6777629 39.4916393,66.3203529 C39.7822111,65.9629429 39.9273291,65.5101493 39.9273291,64.9612299 C39.9273291,64.4067434 39.7808674,63.9520941 39.4879442,63.5976532 C39.1950209,63.2432124 38.8557405,63.0658064 38.470103,63.0658064 C38.0895043,63.0658064 37.7576142,63.2376452 37.4744327,63.5805807 C37.191587,63.9235161 37.0501642,64.3867017 37.0501642,64.9697662 M35.8405121,62.0284638 C35.3598089,61.7367459 35.0091072,61.410883 34.7887429,61.050875 C34.4884294,60.5591115 34.3379367,59.9931196 34.3379367,59.3528992 C34.3379367,58.301082 34.771275,57.4404031 35.6376157,56.7716048 C36.313825,56.2568304 37.2080472,56 38.3199463,56 C39.7922887,56 40.8803374,56.3199246 41.5840923,56.960145 C42.2875112,57.6007366 42.6395566,58.4064864 42.6395566,59.378508 C42.6395566,59.9445 42.4991415,60.4733777 42.2189833,60.9651412 C42.0083607,61.3307163 41.6778143,61.6851572 41.2270081,62.0284638 C41.8229322,62.3543267 42.2676918,62.7859651 42.5606151,63.3233791 C42.8535384,63.8607931 43,64.4549919 43,65.1070888 C43,65.7358038 42.8736936,66.323322 42.620745,66.8692723 C42.3677964,67.4152225 42.0574052,67.8368402 41.6892356,68.1341251 C41.321066,68.4314101 40.8628695,68.6500128 40.3143102,68.7903046 C39.7660869,68.9298541 39.1812481,69 38.5601299,69 C37.3931397,69 36.501605,68.8430068 35.8858615,68.5282782 C35.269782,68.2142918 34.801172,67.7511063 34.4807032,67.1394638 C34.1602344,66.5274503 34,65.8445485 34,65.0896451 C34,64.3521855 34.1501568,63.727553 34.4508062,63.216119 C34.7514557,62.704685 35.214355,62.3086762 35.8405121,62.0284638" id="Fill-75" stroke="none" fill="#FFFFFF" fill-rule="evenodd"></path>
                            <path d="M24.7673596,68.319291 C24.7673596,68.7379284 24.8499665,69.0659175 25.0157898,69.3036344 C25.1813083,69.5409751 25.3840151,69.6594574 25.6242151,69.6594574 C25.8449064,69.6594574 26.0299335,69.5522592 26.1789916,69.3378626 C26.3280497,69.1230899 26.4024264,68.8029997 26.4024264,68.3772157 C26.4024264,67.941276 26.3250015,67.6087733 26.1707614,67.3800837 C26.0159117,67.151394 25.8241785,67.0370492 25.595257,67.0370492 C25.3605438,67.0370492 25.1639334,67.1476327 25.0054258,67.3695519 C24.8466134,67.591095 24.7673596,67.9078001 24.7673596,68.319291 M27.8719746,64.8735248 L26.1954521,65.137195 C26.1512528,64.8381682 26.0774858,64.6271569 25.9738462,64.5037849 C25.8705115,64.3807889 25.742791,64.3194791 25.5909895,64.3194791 C25.3178687,64.3194791 25.1054075,64.4951338 24.953606,64.8471954 C24.8432604,65.1003338 24.7618728,65.6419672 24.7094434,66.4724717 C24.9109309,66.2118106 25.1176004,66.019606 25.3303664,65.8943533 C25.5428275,65.7698528 25.7885143,65.7070384 26.0671219,65.7070384 C26.6078766,65.7070384 27.0654149,65.9534064 27.4394318,66.4461423 C27.8131439,66.938502 28,67.5628849 28,68.319291 C28,68.8293291 27.9055051,69.2957356 27.7165153,69.7177582 C27.5275255,70.1397809 27.2653783,70.4591189 26.9300738,70.6753961 C26.5950741,70.8916733 26.1747241,71 25.6696336,71 C25.0627324,71 24.5756264,70.8679769 24.2086204,70.6043067 C23.8416143,70.3406366 23.5483753,69.9189901 23.3289032,69.3404956 C23.109736,68.7616249 23,67.9958155 23,67.0423151 C23,65.6457285 23.2304457,64.6226433 23.6910321,63.9738117 C24.1519234,63.3246039 24.7908309,63 25.6077547,63 C26.0905932,63 26.4719259,63.0710894 26.7520576,63.2136443 C27.0321892,63.3561992 27.2647686,63.5645776 27.4497958,63.8391556 C27.6345181,64.1133575 27.775346,64.4582726 27.8719746,64.8735248" id="Fill-77" stroke="none" fill="#FFFFFF" fill-rule="evenodd"></path>
                            <path d="M12,61 L12,66 L10.5285924,66 L10.5285924,62.723685 C10.2904273,62.8935976 10.0601173,63.0309555 9.83766234,63.1360443 C9.61489317,63.2411331 9.33588186,63.3419384 9,63.4378891 L9,62.3178937 C9.49518224,62.1682563 9.8797654,61.9880633 10.1537495,61.7781712 C10.4274194,61.5679936 10.6417051,61.3086984 10.7962924,61 L12,61 Z" id="Fill-79" stroke="none" fill="#FFFFFF" fill-rule="evenodd"></path>
                        </g>
                    </g>
                </g>
            </g>
        </g>
    </g>
</svg>