<?xml version="1.0" encoding="UTF-8"?>
<svg width="78px" height="78px" viewBox="0 0 78 78" version="1.1" xmlns="http://www.w3.org/2000/svg" xmlns:xlink="http://www.w3.org/1999/xlink">
    <title>5/90</title>
    <defs>
        <circle id="path-1" cx="36" cy="36" r="36"></circle>
    </defs>
    <g id="绿色版" stroke="none" stroke-width="1" fill="none" fill-rule="evenodd">
        <g id="Lottery/On-Sale04" transform="translate(-50.000000, -163.000000)">
            <g id="5-OF-90备份" transform="translate(30.000000, 148.000000)">
                <g id="编组" transform="translate(20.000000, 15.000000)">
                    <g id="5/90" transform="translate(0.000000, -0.000000)">
                        <circle id="蒙版" fill="#FFFFFF" cx="39" cy="39" r="39"></circle>
                        <g id="lottery-icon备份" transform="translate(3.000000, 3.000000)">
                            <mask id="mask-2" fill="white">
                                <use xlink:href="#path-1"></use>
                            </mask>
                            <use id="蒙版" fill="#D8D8D8" xlink:href="#path-1"></use>
                            <g id="编组" mask="url(#mask-2)">
                                <path d="M72,36 C72,55.8820645 55.8820645,72 36,72 C16.1179355,72 0,55.8820645 0,36 C0,16.1179355 16.1179355,0 36,0 C55.8820645,0 72,16.1179355 72,36" id="Fill-1" fill="#BF5B00"></path>
                                <path d="M55,27 C55,40.8069231 43.8069231,52 30,52 C16.1930769,52 5,40.8069231 5,27 C5,13.1930769 16.1930769,2 30,2 C43.8069231,2 55,13.1930769 55,27" id="Fill-3" fill="#DB8F1F"></path>
                                <path d="M52,26 C52,39.254912 41.254912,50 28,50 C14.745088,50 4,39.254912 4,26 C4,12.745088 14.745088,2 28,2 C41.254912,2 52,12.745088 52,26" id="Fill-5" fill="#EDB324"></path>
                                <path d="M62,52 C62,61.3889663 54.3889663,69 45,69 C35.6110337,69 28,61.3889663 28,52 C28,42.6110337 35.6110337,35 45,35 C54.3889663,35 62,42.6110337 62,52" id="Fill-7" fill="#525C81"></path>
                                <path d="M61,51.5 C61,60.6124238 53.612723,68 44.4998072,68 C35.387277,68 28,60.6124238 28,51.5 C28,42.3875762 35.387277,35 44.4998072,35 C53.612723,35 61,42.3875762 61,51.5" id="Fill-9" fill="#6B99E8"></path>
                                <path d="M20,57 C20,59.2091429 18.2091429,61 16,61 C13.7908571,61 12,59.2091429 12,57 C12,54.7908571 13.7908571,53 16,53 C18.2091429,53 20,54.7908571 20,57" id="Fill-11" fill="#E07F20"></path>
                                <path d="M20,57 C20,59.2091011 18.2094172,61 16.0002036,61 C13.7909901,61 12,59.2091011 12,57 C12,54.7908989 13.7909901,53 16.0002036,53 C18.2094172,53 20,54.7908989 20,57" id="Fill-13" fill="#FFB266"></path>
                                <path d="M27,61.5 C27,64.5375172 24.5375172,67 21.5,67 C18.4624828,67 16,64.5375172 16,61.5 C16,58.4624828 18.4624828,56 21.5,56 C24.5375172,56 27,58.4624828 27,61.5" id="Fill-15" fill="#E07F20"></path>
                                <path d="M27,61.5 C27,64.5374889 24.5375797,67 21.5002027,67 C18.4624203,67 16,64.5374889 16,61.5 C16,58.4621056 18.4624203,56 21.5002027,56 C24.5375797,56 27,58.4621056 27,61.5" id="Fill-17" fill="#FFB266"></path>
                                <path d="M22.4048177,22.7017165 C22.4048177,21.6553212 22.1895733,20.8349191 21.7594655,20.2412948 C21.3289767,19.6476704 20.8051518,19.3506621 20.1879909,19.3506621 C19.6070215,19.3506621 19.1243406,19.6194213 18.7407104,20.1557626 C18.3566991,20.692104 18.1650744,21.4968122 18.1650744,22.5698872 C18.1650744,23.6515939 18.3639374,24.478666 18.7620443,25.0499264 C19.1601512,25.6215792 19.6573086,25.9076018 20.2527547,25.9076018 C20.8695346,25.9076018 21.3826925,25.6306032 21.7914664,25.0762138 C22.2002403,24.5222168 22.4048177,23.7308485 22.4048177,22.7017165 M14.3337241,31.3298676 L18.692328,30.6569887 C18.806998,31.4048063 19.0005275,31.9321236 19.2732974,32.2401177 C19.5460673,32.5481118 19.8794104,32.7019127 20.2740886,32.7019127 C20.9773473,32.7019127 21.5259348,32.2664051 21.9206131,31.3957822 C22.2074786,30.753899 22.422723,29.3951937 22.5663463,27.3192742 C22.0425214,27.9788131 21.5046009,28.4625797 20.9522037,28.7701815 C20.3994256,29.0781756 19.7613117,29.2319765 19.036719,29.2319765 C17.6229633,29.2319765 16.4305474,28.6163806 15.4583284,27.3851888 C14.4861095,26.1539971 14,24.5971555 14,22.7150564 C14,21.4308975 14.2476263,20.2609122 14.7428789,19.2054929 C15.2377506,18.1500736 15.9192943,17.3520353 16.7875103,16.8113781 C17.6553452,16.2703286 18.7460438,16 20.0588442,16 C21.6371762,16 22.903499,16.3319274 23.8574317,16.9961746 C24.8117454,17.6600294 25.5740535,18.7154487 26.1443559,20.1620402 C26.7146583,21.609024 27,23.5197646 27,25.8942619 C27,29.3861697 26.4011253,31.9431094 25.202995,33.5658656 C24.0048646,35.1886219 22.3438636,36 20.2203728,36 C18.9647169,36 17.9749736,35.8218735 17.25,35.4656204 C16.5254073,35.1093673 15.922723,34.5883276 15.442328,33.9021089 C14.961552,33.2162825 14.5920173,32.3586072 14.3337241,31.3298676" id="Fill-19" fill="#FFFFFF"></path>
                                <path d="M33.3841676,25.9338892 C33.3841676,28.396665 33.5631759,30.0782737 33.9211926,30.9798921 C34.2792093,31.8819029 34.7981798,32.3323198 35.4784883,32.3323198 C35.9267774,32.3323198 36.3155251,32.1408534 36.6447314,31.7583129 C36.9739377,31.3757724 37.2163288,30.7711623 37.3719047,29.9444826 C37.5274806,29.1178028 37.6050765,27.8293281 37.6050765,26.0790584 C37.6050765,23.5107406 37.4260682,21.7847965 37.0680515,20.9008337 C36.7100349,20.016871 36.1730099,19.5746935 35.4569765,19.5746935 C34.7259618,19.5746935 34.1981561,20.025895 33.8724071,20.9271211 C33.546658,21.8291319 33.3841676,23.497793 33.3841676,25.9338892 M29,25.9205493 C29,22.2446297 29.5443236,19.6719961 30.633355,18.2030407 C31.7220022,16.7344777 33.3803262,16 35.6087111,16 C36.6789197,16 37.5582117,16.1604708 38.2454347,16.4814125 C38.9326576,16.8023541 39.4931151,17.220206 39.9271911,17.7349681 C40.3612671,18.2493379 40.7031499,18.7899951 40.9528397,19.357332 C41.2025294,19.924669 41.4030495,20.586562 41.5551681,21.3430113 C41.8513386,22.7852869 42,24.2895537 42,25.8546346 C42,29.3638058 41.5117605,31.9321236 40.5348975,33.5591957 C39.5584185,35.1866601 37.876278,36 35.4892441,36 C34.1509072,36 33.0691744,35.7402648 32.2448141,35.2211869 C31.4200697,34.7025012 30.7432185,33.9417361 30.2154128,32.9388916 C29.832043,32.2267778 29.5335678,31.2529671 29.3203711,30.0170672 C29.1067904,28.7815596 29,27.4157921 29,25.9205493" id="Fill-21" fill="#FFFFFF"></path>
                                <path d="M39.5381659,42 L53.0239328,42 L53.0239328,46.5772422 L43.8891957,46.5772422 L43.4013577,49.6760174 C44.033552,49.3753457 44.6583132,49.1501383 45.2768151,49 C45.895317,48.8498617 46.5063859,48.7743975 47.1108043,48.7743975 C49.1560465,48.7743975 50.8155563,49.3994469 52.0893338,50.6479652 C53.3631113,51.8968787 54,53.4693797 54,55.3658633 C54,56.6993283 53.6721666,57.9810352 53.0164998,59.2113789 C52.3616155,60.4409324 51.431711,61.3800869 50.2275687,62.0280522 C49.0238177,62.6760174 47.4824531,63 45.6046485,63 C44.25615,63 43.1013002,62.8708021 42.1389253,62.6128013 C41.1765505,62.3544054 40.3585318,61.9695772 39.6844782,61.4575267 C39.0100334,60.9462663 38.4642964,60.3658633 38.0460937,59.7182932 C37.6274997,59.0703279 37.2789322,58.262742 37,57.2955354 L42.7456909,56.6617938 C42.8853527,57.5914658 43.2104476,58.297906 43.7217581,58.7819044 C44.2330687,59.2651126 44.8421816,59.5069143 45.5487056,59.5069143 C46.3389483,59.5069143 46.9922679,59.203872 47.5082729,58.5985776 C48.024278,57.9932833 48.2824761,57.0892928 48.2824761,55.8873963 C48.2824761,54.6574476 48.0219307,53.7558277 47.5012312,53.1829316 C46.9805316,52.6104307 46.2880911,52.3235875 45.4235186,52.3235875 C44.8746519,52.3235875 44.3449546,52.4602924 43.8332528,52.7325168 C43.4522149,52.9296721 43.0340122,53.286448 42.5782534,53.8028447 L37.7393856,53.0983801 L39.5381659,42 Z" id="Fill-23" fill="#FFFFFF"></path>
                            </g>
                        </g>
                    </g>
                </g>
            </g>
        </g>
    </g>
</svg>