<?xml version="1.0" encoding="UTF-8"?>
<svg width="27px" height="30px" viewBox="0 0 27 30" version="1.1" xmlns="http://www.w3.org/2000/svg" xmlns:xlink="http://www.w3.org/1999/xlink">
    <g id="" stroke="none" stroke-width="1" fill="none" fill-rule="evenodd">
        <g id="account" transform="translate(-1049.000000, -315.000000)" fill="#FFFFFF" fill-rule="nonzero" stroke="#FFFFFF" stroke-width="0.3">
            <g id="" transform="translate(1049.477903, 316.000000)">
                <path d="M25.3279319,14.4850983 C25.4523451,14.3556241 25.5220965,14.1810307 25.5220965,13.9969988 C25.5220965,13.8149561 25.4523452,13.6385003 25.3279319,13.5108885 M25.3279319,13.5090261 L12.734517,0.415030849 C12.1820743,-0.161275422 11.2602173,-0.125637203 10.7079021,0.448849071 C10.1573296,1.02147304 10.1535467,1.94870138 10.7058618,2.5250077 L21.7270444,13.9951364 L10.7059043,25.4652228 C10.1535892,26.0434338 10.1573296,26.9708315 10.7079446,27.5434131 C11.2602598,28.1178993 12.1820744,28.1535799 12.7345596,27.5772313 L25.3279319,14.4832783 M15.556663,14.4926746 C15.6810763,14.3630734 15.7508277,14.1884801 15.7508277,14.0045751 C15.7508277,13.8225324 15.6810764,13.6459497 15.556663,13.5183378 M15.556663,13.5183378 L2.96324821,0.424342481 C2.41093304,-0.15183681 1.48894844,-0.116198591 0.936633269,0.458160703 C0.386188353,1.03078467 0.382277864,1.95814 0.934763051,2.53448862 L11.9559456,14.004575 L0.934763051,25.4747038 C0.382277864,26.0510524 0.386188353,26.9784077 0.936633269,27.5508624 C1.48894844,28.1253487 2.41093304,28.1610292 2.96324821,27.5866699 L15.556663,14.4926323" id="形状"></path>
            </g>
        </g>
    </g>
</svg>
