<svg width="18px" height="18px" viewBox="0 0 18 18" version="1.1" xmlns="http://www.w3.org/2000/svg" xmlns:xlink="http://www.w3.org/1999/xlink"><g id="" stroke="none" stroke-width="1" fill="none" fill-rule="evenodd"><g id="account" transform="translate(-1152.000000, -300.000000)" fill="#FFFFFF" fill-rule="nonzero"><g id="close" transform="translate(1152.000000, 300.000000)"><path d="M9,11.5415938 L14.9319839,17.4735777 C15.3859959,17.9275897 16.0477329,18.1049016 16.6679248,17.9387217 C17.2881167,17.7725418 17.7725418,17.2881167 17.9387217,16.6679248 C18.1049016,16.0477329 17.9275897,15.3859959 17.4735777,14.9319839 L11.5439915,9 L17.4735777,3.06801605 C17.9275897,2.61400405 18.1049016,1.95226713 17.9387217,1.3320752 C17.7725418,0.711883259 17.2881167,0.227458213 16.6679248,0.0612782906 C16.0477329,-0.104901632 15.3859959,0.0724102548 14.9319839,0.526422276 L9,6.45600849 L3.06801605,0.526422276 C2.61400405,0.072410266 1.95226714,-0.104901612 1.33207521,0.0612783119 C0.711883277,0.227458236 0.227458236,0.711883277 0.0612783119,1.33207521 C-0.104901612,1.95226714 0.072410266,2.61400405 0.526422276,3.06801605 L6.45600849,9 L0.526422276,14.9319839 C0.0724102548,15.3859959 -0.104901632,16.0477329 0.0612782906,16.6679248 C0.227458213,17.2881167 0.711883259,17.7725418 1.3320752,17.9387217 C1.95226713,18.1049016 2.61400405,17.9275897 3.06801605,17.4735777 L9,11.5439915 L9,11.5415938 Z" id="路径"></path></g></g></g></svg>
