<?xml version="1.0" encoding="UTF-8"?>
<svg width="28px" height="29px" viewBox="0 0 28 29" version="1.1" xmlns="http://www.w3.org/2000/svg" xmlns:xlink="http://www.w3.org/1999/xlink">
    <g id="" stroke="none" stroke-width="1" fill="none" fill-rule="evenodd" opacity="0.5">
        <g id="" transform="translate(-1167.000000, -871.000000)" fill="#FFFFFF">
            <g id="" transform="translate(1167.000000, 871.000000)">
                <path d="M13.9293805,1 C14.9865102,1 16.0257035,1.116989 17.0321614,1.34483921 C16.4737619,1.9376674 16.0115466,2.61978893 15.6688127,3.36805298 C15.1551519,3.29737846 14.6323849,3.26200446 14.1041935,3.26200446 C11.0323517,3.26200446 8.14424764,4.45820067 5.97233428,6.63011403 C3.80023394,8.80224553 2.60397541,11.6901626 2.60397541,14.7618175 C2.60397541,17.8336905 3.80023394,20.7215453 5.97230311,22.8938949 C8.14465276,25.0657771 11.0323206,26.2620045 14.1041624,26.2620045 C17.1760354,26.2620045 20.0637343,25.0657771 22.236084,22.8936768 C24.8361686,20.2936825 25.9284882,16.7480236 25.5130428,13.353349 C26.2629318,13.0238627 26.949665,12.5732175 27.5476483,12.0270337 C28.4918271,16.4862879 27.2350824,21.3222869 23.7787832,24.7785664 C21.1478053,27.4095442 17.6500664,28.8584204 13.9293805,28.8584204 C10.2087566,28.8584204 6.71098673,27.4095442 4.08003982,24.7787832 C1.44887611,22.1476814 9.09494702e-13,18.6496947 9.09494702e-13,14.9290398 C9.09494702e-13,11.208354 1.44887611,7.71061504 4.08003982,5.07966814 C6.7105531,2.44893805 10.2087566,1 13.9293805,1 Z" id="形状结合" fill-rule="nonzero"></path>
                <path d="M16.2287225,3.55364631 C16.7875101,3.35496376 17.3543713,2.93403919 17.3875918,2.17624534 C17.4208123,1.41845149 17.0060893,0.958861126 16.4039721,1.101466 C15.8018549,1.24407087 15.1717181,1.58081605 15.1717181,2.18832927 C15.1717181,2.7958425 15.669935,3.75232887 16.2287225,3.55364631 Z" id="椭圆形" transform="translate(16.280586, 2.327966) rotate(31.000000) translate(-16.280586, -2.327966) "></path>
                <path d="M26.7767563,13.7591194 C27.4088485,13.5449273 27.7156555,13.3678313 27.7156555,12.7603181 C27.7156555,12.1710861 27.17107,11.2929265 26.2687755,11.5346956 C26.2523337,11.5391012 26.2355566,11.5418846 26.2194855,11.5467876 C25.6854181,11.7097215 25.2601422,11.9717442 25.2601422,12.5792574 C25.2601422,13.1867706 26.144664,13.9733114 26.7767563,13.7591194 Z" id="椭圆形备份" transform="translate(26.487899, 12.644338) rotate(-75.000000) translate(-26.487899, -12.644338) "></path>
                <g id="" transform="translate(6.991142, 1.987858)" fill-rule="nonzero">
                    <path d="M4.79613372,19.4048928 L1.77270283,19.4048928 L1.77270283,11.8020477 C1.77270283,11.3657061 1.68127026,11.0564648 1.49858616,10.8737807 C1.31590206,10.6909156 0.965199285,10.5996641 0.446658887,10.5996641 L0.00434247541,10.5996641 L0.00434247541,9.18526546 C0.676236121,9.04368076 1.25977512,8.80215391 1.75477843,8.46032282 C2.17917043,8.16556592 2.59758762,7.75891727 3.01021107,7.24019581 L4.79595267,7.24019581 L4.79595267,19.4048928 L4.79613372,19.4048928 Z M13.9886382,15.8687152 L13.9886382,16.0986546 C13.9886382,16.3579248 13.9826634,16.5994516 13.9708949,16.8234162 C13.9591264,17.0473807 13.9355893,17.2418334 13.9002836,17.4069552 C13.6408323,18.8921461 12.5858271,19.6348321 10.7354491,19.6348321 C8.88470886,19.6348321 7.84147221,18.8744028 7.60573912,17.3539062 C7.56769806,17.1074418 7.53822874,16.8597304 7.51738448,16.6112202 C7.49283063,16.3171721 7.48099069,16.0222006 7.48184936,15.7271305 C7.48184936,14.654563 7.55269012,13.9267235 7.69409377,13.543612 C7.83549742,13.1605004 8.13043537,12.8157724 8.57818341,12.509247 C8.23635232,12.297051 7.99464441,12.0435745 7.85324076,11.7488177 C7.67653147,11.3836305 7.58799576,10.8471657 7.58799576,10.1399664 C7.58799576,8.05367417 8.62543867,7.01043752 10.6999624,7.01043752 C11.796248,7.01043752 12.6035705,7.26391397 13.122292,7.77086687 C13.6408323,8.27763872 13.9002836,9.09672976 13.9002836,10.2283211 C13.9002836,10.94747 13.7999793,11.4660104 13.599733,11.7843044 C13.4699168,11.9965004 13.175341,12.2382083 12.7156433,12.509247 C13.2577208,12.7802857 13.6055267,13.1398602 13.7586989,13.5877893 C13.9120521,14.0357184 13.9886382,14.7959667 13.9886382,15.8687152 L13.9886382,15.8687152 Z M11.212709,11.1124107 L11.212709,9.89246475 C11.212709,9.53886511 11.2009405,9.32069431 11.1774034,9.23831445 C11.106611,9.00258135 10.9534388,8.88471481 10.7175247,8.88471481 C10.5172783,8.88471481 10.3934369,8.97596633 10.3463627,9.15865043 C10.2992885,9.34151559 10.2755704,9.58593931 10.2755704,9.89246475 L10.2755704,11.1832031 C10.2755704,11.3481438 10.3168508,11.4897285 10.3994117,11.607595 C10.4817916,11.7252805 10.5996581,11.7843044 10.7530114,11.7843044 C11.0593558,11.7843044 11.212709,11.5603398 11.212709,11.1125918 L11.212709,11.1124107 Z M11.265758,16.4875599 L11.265758,14.9491389 C11.265758,14.5600525 11.2302713,14.2712704 11.15966,14.0826115 C11.0890487,13.8941337 10.9414892,13.7998042 10.7175247,13.7998042 C10.5055097,13.7998042 10.3698998,13.8881589 10.310876,14.0650492 C10.2520333,14.2417585 10.2225214,14.5365154 10.2225214,14.9491389 L10.2225214,16.5226845 C10.2225214,16.9470765 10.2551112,17.2593957 10.3197477,17.4598231 C10.3845652,17.6602506 10.5348406,17.7603738 10.7705737,17.7603738 C10.9827696,17.7603738 11.1183796,17.6689412 11.1774034,17.4862571 C11.2362461,17.303573 11.265758,16.9706136 11.265758,16.4873788 L11.265758,16.4875599 Z" id="形状"></path>
                    <g transform="translate(12.000000, 0.000000)" id="" stroke="#FFFFFF" stroke-width="0.8">
                        <path d="M7.52,4.48 L4.48,4.48 L4.48,7.52 C4.48,7.69632653 4.26448979,8 4,8 C3.73485714,8 3.52,7.69632653 3.52,7.52 L3.52,4.48 L0.48,4.48 C0.303673473,4.48 0,4.26448979 0,4 C0,3.73485714 0.303020411,3.52 0.48,3.52 L3.52,3.52 L3.52,0.48 C3.52,0.303673473 3.73485714,0 4,0 C4.26514286,0 4.48,0.303020411 4.48,0.48 L4.48,3.52 L7.52,3.52 C7.69632653,3.52 8,3.73485714 8,4 C8,4.26514286 7.69632653,4.48 7.52,4.48 Z"></path>
                    </g>
                </g>
            </g>
        </g>
    </g>
</svg>
