<?xml version="1.0" encoding="UTF-8"?>
<svg width="40px" height="40px" viewBox="0 0 40 40" version="1.1" xmlns="http://www.w3.org/2000/svg" xmlns:xlink="http://www.w3.org/1999/xlink">
    <defs>
        <circle id="path-1" cx="20" cy="20" r="20"></circle>
    </defs>
    <g id="" stroke="none" stroke-width="1" fill="none" fill-rule="evenodd">
        <g id="account" transform="translate(-760.000000, -309.000000)">
            <g id="" transform="translate(760.000000, 309.000000)">
                <path d="M31.8081756,30.682052 C30.2116032,29.2480262 26.0971484,28.7698093 25.2986276,28.5394469 C24.5002632,28.3090844 24.2701703,27.86632 24.1367446,27.6186217 C24.0036317,27.3706112 24.1181307,27.0779337 24.1092148,26.7949393 C24.1007681,26.5116325 24.1456605,25.6350057 24.1456605,25.6350057 C25.4135958,24.4839743 26.0255083,22.9698292 26.0255083,22.9698292 C27.7550372,22.0046495 27.6927823,21.2965387 27.7636402,20.5526632 C27.8343418,19.8087877 27.7107705,18.7552113 27.4798955,18.2416982 C27.249177,17.728029 26.8057281,17.4803308 26.8057281,17.4803308 C26.8057281,17.4803308 26.8323194,17.3121271 26.8590671,16.7544157 C26.8856584,16.1967043 26.8590671,15.3820801 26.7794496,13.9122896 C26.6996758,12.442499 26.3180125,11.4862214 25.4846102,10.92851 C24.6512078,10.3707986 23.045876,10.5301001 23.045876,10.5301001 C22.3279111,9.75092834 21.840352,9.43216916 21.5384626,9.29941792 C21.2365732,9.16666667 20.7136633,9.16666667 20.7136633,9.16666667 L18.7981519,9.5827247 C18.1244537,9.53837016 17.477034,10.0201791 17.477034,10.0201791 C17.2729067,9.97941667 15.7830123,9.93678009 14.8252566,10.7159518 C13.424052,11.8138827 13.2466724,13.8769933 13.2113216,14.355054 C13.1758144,14.8332709 13.2113216,17.4451907 13.2113216,17.4451907 C12.4928875,17.8525028 12.3510152,18.6318307 12.3067485,19.0124364 C12.262169,19.3931982 12.262169,20.4998751 12.4661398,21.5625098 C12.6701107,22.6249883 13.8405967,23.085557 13.8405967,23.085557 C14.4260744,24.4489904 15.9338006,25.6354743 15.9338006,25.6354743 C15.9338006,25.6354743 15.9605483,26.6714025 15.9780672,27.1586777 C15.9960555,27.6456405 15.9693078,27.7960399 15.3663111,28.1947622 C14.7633145,28.5931721 13.5038258,28.81432 12.7146902,28.9384815 C11.9253981,29.0631115 10.9410511,29.2397488 10.09842,29.5585079 C9.25610174,29.8772671 8.43130246,30.284423 7.47339031,31.1519915 C6.51579099,32.0197161 6.36515915,32.5685254 6.18746676,33.1087449 C6.14528771,33.2373168 6.10562089,33.4571434 6.06966139,33.7174938 C6.00633172,34.1760071 8.13849119,35.6364591 12.4661398,38.0988498 L20.3017578,39.3988715 C24.5121401,38.7976508 27.3080386,38.208024 28.6894531,37.6299913 C32.4394619,36.060855 33.8581506,33.7154644 33.7996508,33.4796863 C33.4558208,32.0939106 32.9392254,31.6989403 31.8081756,30.682052 Z M20.8960483,10.9425427 L20.788901,10.9425427 L20.8596026,10.8933907 C20.8689877,10.9041427 20.8815013,10.9215507 20.8960483,10.9425427 Z" id="形状" fill="#FFFFFF" fill-rule="nonzero"></path>
                <mask id="mask-2" fill="white">
                    <use xlink:href="#path-1"></use>
                </mask>
                <circle stroke="#FFFFFF" stroke-width="2.5" cx="20" cy="20" r="18.75"></circle>
            </g>
        </g>
    </g>
</svg>
