<?xml version="1.0" encoding="UTF-8"?>
<svg width="66px" height="66px" viewBox="0 0 66 66" version="1.1" xmlns="http://www.w3.org/2000/svg" xmlns:xlink="http://www.w3.org/1999/xlink">
    <g id="" stroke="none" stroke-width="1" fill="none" fill-rule="evenodd">
        <g id="" transform="translate(-1111.000000, -938.000000)">
            <g id="" transform="translate(1111.000000, 938.000000)">
                <rect id="" fill="#46495D" x="0" y="0" width="66" height="66"></rect>
                <g id="" opacity="0.5" transform="translate(3.000000, 3.000000)" fill="#FFFFFF" fill-rule="nonzero">
                    <path d="M0.0078579832,28.2546338 L28.2187044,28.2546338 L28.2187044,0.043855633 L0.0078579832,0.043855633 L0.0078579832,28.2546338 Z M7.06062078,7.09655017 L21.1660098,7.09655017 L21.1660098,21.2019392 L7.06062078,21.2019392 L7.06062078,7.09655017 Z M31.7450858,0.043855633 L31.7450858,28.254702 L59.9559322,28.254702 L59.9559322,0.043855633 L31.7450858,0.043855633 Z M52.9031694,21.2019392 L38.7977803,21.2019392 L38.7977803,7.09655017 L52.9031694,7.09655017 L52.9031694,21.2019392 Z M10.5869339,17.6756261 L17.6396284,17.6756261 L17.6396284,10.6228633 L10.5869339,10.6228633 L10.5869339,17.6756261 Z M0.0078579832,59.9918616 L28.2187044,59.9918616 L28.2187044,31.7810152 L0.0078579832,31.7810152 L0.0078579832,59.9918616 Z M7.06062078,38.8337097 L21.1660098,38.8337097 L21.1660098,52.9390988 L7.06062078,52.9390988 L7.06062078,38.8337097 Z M49.3768562,10.6228633 L42.3240935,10.6228633 L42.3240935,17.6755578 L49.3768562,17.6755578 L49.3768562,10.6228633 L49.3768562,10.6228633 Z M31.7450858,59.9918616 L38.7977803,59.9918616 L38.7977803,52.939167 L31.7450858,52.939167 L31.7450858,59.9918616 Z M38.7977803,38.8337097 L38.7977803,52.9390988 L45.8504748,52.9390988 L45.8504748,38.8337097 L38.7977803,38.8337097 Z M52.9031694,52.939167 L45.8504748,52.939167 L45.8504748,59.9918616 L59.9558639,59.9918616 L59.9558639,45.8864042 L52.9031694,45.8864042 L52.9031694,52.939167 Z M52.9031694,38.8337097 L59.9558639,38.8337097 L59.9558639,31.7810152 L52.9031694,31.7810152 L52.9031694,38.8337097 Z M31.7450858,31.7810152 L31.7450858,38.8337097 L38.7977803,38.8337097 L38.7977803,31.7810152 L31.7450858,31.7810152 Z M10.5869339,49.4127856 L17.6396284,49.4127856 L17.6396284,42.3600911 L10.5869339,42.3600911 L10.5869339,49.4127856 Z" id="形状"></path>
                </g>
            </g>
        </g>
    </g>
</svg>
