<?xml version="1.0" encoding="UTF-8"?>
<svg width="37px" height="30px" viewBox="0 0 37 30" version="1.1" xmlns="http://www.w3.org/2000/svg" xmlns:xlink="http://www.w3.org/1999/xlink">
    <g id="" stroke="none" stroke-width="1" fill="none" fill-rule="evenodd">
        <g id="lives" transform="translate(-1565.000000, -1035.000000)" fill="#FF5D27" fill-rule="nonzero">
            <g id="" transform="translate(0.000000, 1020.000000)">
                <g id="" transform="translate(1565.000000, 15.000000)">
                    <path d="M33.8351087,12.481019 C32.2327174,5.18351902 25.8847826,0.0111277174 18.27,0.0111277174 C10.6643478,0.0111277174 4.31413043,5.1789538 2.70945652,12.4650408 C1.04907029,13.2604907 -0.00540641132,14.9403689 -2.06909153e-05,16.7814538 C-2.06909153e-05,19.4201495 2.0748913,21.6639538 4.725,21.6639538 L4.725,12.7001495 C6.20641304,6.45264946 11.7029348,2.04493207 18.27,2.04493207 C24.7640217,2.04493207 30.2126087,6.36362772 31.7579348,12.5061277 L31.7579348,21.5612364 C34.4605435,21.5612364 36.5148913,19.4201495 36.5148913,16.7814538 C36.5148913,14.8891712 35.4238043,13.257106 33.8351087,12.481019 Z" id="路径"></path>
                    <path d="M18.2745652,5.2839538 C11.4655435,5.2839538 5.94163043,10.1755842 5.94163043,16.2108016 C5.94163043,21.4813451 10.1507609,25.8776495 15.7545652,26.9116712 C15.2444235,27.7022758 14.5845285,28.3854338 13.8120652,28.9226495 C14.3393478,29.0641712 14.8917391,29.1372147 15.4623913,29.1372147 C17.3797826,29.1372147 19.0963043,28.3063451 20.2627174,27.0006929 C26.1290217,26.1584103 30.6052181,21.6502582 30.6052181,16.2108016 C30.6075,10.1733016 25.0904348,5.2839538 18.2745652,5.2839538 L18.2745652,5.2839538 Z M12.6022826,11.5086277 C13.3920798,11.5086277 14.032337,12.1488849 14.032337,12.9386821 C14.032337,13.7284793 13.3920798,14.3687364 12.6022826,14.3687364 C11.8124854,14.3687364 11.1722283,13.7284793 11.1722283,12.9386821 C11.1722283,12.1488849 11.8124854,11.5086277 12.6022826,11.5086277 L12.6022826,11.5086277 Z M25.1064134,17.2493886 C25.1076742,21.0556606 22.0237714,24.142629 18.2175,24.1451495 C14.4099679,24.1438891 11.3240217,21.0569209 11.3240217,17.2493886 C11.3240217,17.1740625 11.3240217,17.101019 11.328587,17.0256929 L25.1064134,17.0256929 L25.1064134,17.2493886 L25.1064134,17.2493886 Z M23.8395652,14.3641712 C23.0510287,14.3641712 22.4117935,13.724936 22.4117935,12.9363995 C22.4117935,12.1478629 23.0510287,11.5086277 23.8395652,11.5086277 C24.6270652,11.5086277 25.2593478,12.1500408 25.2593478,12.9375408 C25.2593478,13.7250408 24.6270652,14.3641712 23.8395652,14.3641712 L23.8395652,14.3641712 Z" id="形状"></path>
                </g>
            </g>
        </g>
    </g>
</svg>
