<?xml version="1.0" encoding="UTF-8"?>
<svg width="80px" height="73px" viewBox="0 0 80 73" version="1.1" xmlns="http://www.w3.org/2000/svg" xmlns:xlink="http://www.w3.org/1999/xlink">
    <defs>
        <path d="M44.107692,16.0238583 L44.2083394,15.923211 C45.8931759,14.2122061 48.0329384,13.1926485 50.2582512,13.1926485 C55.7415184,13.1926485 58.7810683,16.3650528 60.4236329,19.2928841 C61.9011359,16.3529752 64.7675722,13.1926485 70.2649302,13.1926485 C72.6291363,13.1926485 74.9238957,14.3460671 76.6811984,16.2543407 C77.6905307,17.3630753 78.4850412,18.6497181 79.0242685,20.0487456 C79.6100333,21.5570601 79.9099655,23.1611062 79.9099655,24.7791707 C79.9099655,28.5987374 78.2814911,32.8812819 74.061348,36.7652629 C70.8788789,39.6981265 61.7411066,47.1621335 61.7149383,47.1832695 C61.2140575,47.5950952 60.5195384,47.6783746 59.9354933,47.3966419 L59.928448,47.4016742 C58.1738193,58.6091218 50.2751122,67.8822255 39.489428,71.3971394 C28.7037438,74.9120533 16.8579782,72.0734159 8.8368368,64.0517643 L8.82677203,64.0517643 C-1.69210425,53.5228488 -2.95300756,36.8930549 5.8580956,24.8985027 C14.6691988,12.9039506 30.9151736,9.1345709 44.107692,16.0238583 Z M8.40163415,27.0498868 C0.704345836,37.717716 1.88606583,52.3947029 11.1909781,61.6935971 C18.5574516,69.055083 29.5203351,71.4848774 39.3073431,67.9252594 C49.094351,64.3656414 55.9346824,55.4606662 56.8506522,45.0867853 C55.6427834,44.1571729 54.1671267,43.0110569 52.6762246,41.8274992 L51.8630112,41.1792854 C49.5632242,39.3382575 47.3366936,37.4855624 46.1156065,36.2821557 C42.2698715,32.4937896 40.7682131,28.3632226 40.7682131,24.673491 C40.7658173,22.9954104 41.0856257,21.3324754 41.7102722,19.7749848 C41.8491656,19.4307709 42.0011431,19.0952798 42.1662047,18.7685114 L42.158153,18.7755567 C30.4000461,12.8765949 16.0989225,16.3820576 8.40163415,27.0498868 Z M50.9819336,16.119873 C48.4597168,16.119873 47.4328174,16.992693 45.9274231,18.5719406 C44.4220289,20.1511881 43.6804896,22.5116171 43.7041016,24.744873 C43.7041016,31.3012571 51.2875977,37.4997559 53.9095573,39.4848633 C55.6575304,40.8082682 57.6982574,42.2832845 60.0317383,43.9099121 L60.0317383,43.9099121 L56.1819954,33.3189961 L62,25.6897076 C59.2518338,22.2041203 57.1661404,19.6108552 55.7429199,17.9099121 C55.484337,17.6008702 54.8732162,17.1858312 53.9095573,16.6647949 C53.0015902,16.3360656 51.9424344,16.119873 50.9819336,16.119873 Z M69.1152344,16.454834 C66.3486328,16.454834 63.7890112,19.3198242 63.0263672,21.0898437 L63.0263672,21.0898437 L65.8430176,25.2648926 L60,33.3189961 L61.0539551,43.7797852 L63.5539551,41.7597656 C63.6691852,41.66908 63.7844733,41.5783281 63.8997829,41.4875098 L64.9371736,40.6683429 C71.1532715,35.7424925 77.1152344,30.6206531 77.1152344,25.2648926 C77.1388464,23.0316366 76.3036017,20.882621 74.7982075,19.3033735 C73.2928132,17.7241259 71.8818359,16.454834 69.1152344,16.454834 Z M53.3863706,7.34403139 C53.7366027,7.82929041 53.799793,8.46506899 53.5519294,9.00977301 C53.3040658,9.55447704 52.7831996,9.92448492 52.1872586,9.9791947 C51.5913176,10.0339045 51.0117891,9.76491725 50.6688923,9.2744474 L47.2468826,4.45042021 C46.8966505,3.96516119 46.8334602,3.32938262 47.0813238,2.78467859 C47.3291875,2.23997456 47.8500536,1.86996668 48.4459947,1.8152569 C49.0419357,1.76054712 49.6214642,2.02953435 49.9643609,2.5200042 L53.3863706,7.34403139 Z M61.2137145,6.42310819 C61.1677844,7.30214236 60.4450919,7.99328167 59.5648838,8.00000096 C58.6846758,8.00661816 57.951595,7.32650745 57.8923522,6.44827004 L57.8420285,1.75609082 C57.8075774,1.14373708 58.113032,0.562144046 58.6367413,0.242937976 C59.1604506,-0.0762680947 59.8173587,-0.0812446736 60.3458441,0.22999022 C60.8743295,0.541225113 61.1885605,1.11812356 61.1633909,1.73092897 L61.214721,6.42310819 L61.2137145,6.42310819 Z M67.8634846,9.03993907 C67.5116372,9.51997618 66.9304201,9.77584041 66.338772,9.71115018 C65.747124,9.64645995 65.2349306,9.27104324 64.99513,8.72631591 C64.7553294,8.18158857 64.8243531,7.55030766 65.1762005,7.0702706 L68.7904466,2.15364783 C69.3343556,1.41157483 70.3768499,1.25093112 71.1189229,1.79484007 C71.8609959,2.33874902 72.0216396,3.38124337 71.4777307,4.12331637 L67.8675105,9.04195203 L67.8634846,9.03993907 Z M23.9077715,37.6328431 C23.9089916,36.3766341 23.1531558,35.2434591 21.9928815,34.7619761 C20.8326071,34.2804931 19.4965299,34.5455799 18.6079675,35.433566 C17.7194051,36.3215522 17.4534516,37.6574571 17.9341818,38.8180436 C18.414912,39.9786301 19.5475965,40.7352008 20.803806,40.7347943 C22.5159811,40.7320251 23.903439,39.3450172 23.9067636,37.6328431 L23.9077715,37.6328431 Z M42.4621086,37.6328431 C42.4629218,36.3769493 41.7068546,35.244323 40.5466766,34.7634313 C39.3864986,34.2825397 38.0508614,34.5481584 37.1629544,35.4363537 C36.2750473,36.324549 36.009862,37.6602722 36.4911301,38.8202942 C36.9723982,39.9803161 38.1052698,40.7360156 39.3611633,40.7347956 C41.073011,40.732022 42.4598913,39.3446916 42.4621086,37.6328431 Z M29.8248274,45.4620471 C34.3582236,45.4654277 38.4973302,48.0399356 40.5045171,52.1047718 C40.9043041,52.9282517 40.5643478,53.9200215 39.7434465,54.3250769 C38.9225453,54.7301323 37.9286175,54.3965378 37.5183104,53.5782489 C36.804272,52.1414014 35.7035285,50.9322566 34.3398673,50.0867925 C31.5953347,48.3950807 28.1355727,48.3787666 25.3752083,50.0445206 C24.0280792,50.863432 22.9314729,52.0362786 22.204817,53.4353297 C21.7831972,54.2529996 20.7785544,54.5740617 19.9608845,54.152442 C19.1432146,53.7308222 18.8221524,52.7261794 19.2437722,51.9085095 C21.2919239,47.9546202 25.3719461,45.4708247 29.8248274,45.4670795 L29.8248274,45.4620471 Z" id="path-1"></path>
    </defs>
    <g id="" stroke="none" stroke-width="1" fill="none" fill-rule="evenodd">
        <g id="" transform="translate(-920.000000, -420.000000)" fill-rule="nonzero">
            <g id="" transform="translate(920.000000, 420.000000)">
                <use fill="#000000" xlink:href="#path-1"></use>
                <use fill="#F35757" xlink:href="#path-1"></use>
            </g>
        </g>
    </g>
</svg>
