<?xml version="1.0" encoding="UTF-8"?>
<svg width="14px" height="14px" viewBox="0 0 14 14" version="1.1" xmlns="http://www.w3.org/2000/svg" xmlns:xlink="http://www.w3.org/1999/xlink">
    <g id="" stroke="none" stroke-width="1" fill="none" fill-rule="evenodd">
        <g id="" transform="translate(-1256.000000, -410.000000)" fill="#FFFFFF" fill-rule="nonzero">
            <g id="" transform="translate(1256.000000, 410.000000)">
                <path d="M7,8.97679515 L11.6137653,13.5905604 C11.9668857,13.9436809 12.48157,14.0815902 12.9639415,13.9523391 C13.446313,13.8230881 13.8230881,13.446313 13.9523391,12.9639415 C14.0815902,12.48157 13.9436809,11.9668857 13.5905604,11.6137653 L8.97866005,7 L13.5905604,2.3862347 C13.9436809,2.03311426 14.0815901,1.51842999 13.9523391,1.03605849 C13.823088,0.55368698 13.446313,0.176911943 12.9639415,0.0476608927 C12.48157,-0.0815901579 11.9668857,0.056319087 11.6137653,0.409439548 L7,5.02133994 L2.3862347,0.409439548 C2.03311426,0.0563190958 1.51843,-0.0815901425 1.03605849,0.0476609093 C0.553686993,0.176911961 0.176911961,0.553686993 0.0476609093,1.03605849 C-0.0815901425,1.51843 0.0563190958,2.03311426 0.409439548,2.3862347 L5.02133994,7 L0.409439548,11.6137653 C0.056319087,11.9668857 -0.0815901579,12.48157 0.0476608927,12.9639415 C0.176911943,13.446313 0.55368698,13.823088 1.03605849,13.9523391 C1.51842999,14.0815901 2.03311426,13.9436809 2.3862347,13.5905604 L7,8.97866005 L7,8.97679515 Z" id="路径"></path>
            </g>
        </g>
    </g>
</svg>
