<?xml version="1.0" encoding="UTF-8"?>
<svg width="40px" height="40px" viewBox="0 0 40 40" version="1.1" xmlns="http://www.w3.org/2000/svg" xmlns:xlink="http://www.w3.org/1999/xlink">
    <g id="" stroke="none" stroke-width="1" fill="none" fill-rule="evenodd">
        <g id="account" transform="translate(-826.000000, -383.000000)" fill="#FFB845" fill-rule="nonzero">
            <g id="" transform="translate(826.000000, 383.000000)">
                <path d="M31.6266667,31.9688889 C31.3261584,31.6674517 30.9189611,31.4965885 30.4933333,31.4933333 C29.6067885,31.4981912 28.8893023,32.2156774 28.8844445,33.1022222 C28.8844445,33.5244445 29.0488889,33.9377778 29.3577778,34.2377778 L31.8555555,36.7355555 L20,36.7355555 C10.7666667,36.7355555 3.25555555,29.2244445 3.25555555,19.9888889 C3.25555555,10.7555555 10.7666667,3.24444445 20,3.24444445 C29.2333333,3.24444445 36.7444445,10.7555555 36.7444445,19.9888889 C36.7465855,22.9294636 35.9748134,25.8188187 34.5066667,28.3666667 C34.2208542,28.8644567 34.2223204,29.4769129 34.510513,29.9733288 C34.7987056,30.4697447 35.3298412,30.774703 35.9038463,30.7733288 C36.4778514,30.7719546 37.0075209,30.4644568 37.2933333,29.9666667 C39.0424928,26.9322004 39.9636173,23.4913942 39.9644445,19.9888889 C39.9644445,8.98 31.0088889,0.0244444531 20,0.0244444531 C8.99111109,0.0355555469 0.0355555469,8.99111109 0.0355555469,20 C0.0355555469,31.0088889 8.99111109,39.9644445 20,39.9644445 L35.7333333,39.9644445 C36.3827644,39.9627523 36.9674987,39.5707803 37.2157963,38.9706871 C37.464094,38.370594 37.3272618,37.6800629 36.8688889,37.22 L31.6266667,31.9688889 Z" id="形状结合"></path>
                <path d="M24.3112253,20.608148 C23.3213113,19.9547884 22.0598499,19.6100054 20.8403549,19.2783883 C18.254071,18.5731878 16.6683983,18.0325614 16.6683983,15.9564576 C16.6683983,15.5022328 16.7547998,14.6316351 17.3299867,13.9190287 C17.966889,13.1274267 19.0580161,12.7283342 20.5737447,12.7283342 C21.7751365,12.7283342 22.7181468,12.9192403 23.3764437,13.2952924 C23.9664423,13.6326696 24.3342657,14.1255694 24.5037771,14.8044381 C24.6165104,15.2512571 25.0715582,15.5252732 25.5175543,15.4133627 C25.9643733,15.3006293 26.2383894,14.8464045 26.1264789,14.3995855 C25.8442341,13.2689606 25.1991032,12.4098831 24.2067206,11.8429249 C23.470251,11.4224378 22.5321779,11.1665249 21.4122503,11.0858835 L21.4122503,9.18340547 C21.4122503,8.72167496 21.0379438,8.34736842 20.5762133,8.34736842 C20.1144828,8.34736842 19.7401762,8.72167496 19.7401762,9.18340547 L19.7401762,11.0924665 C19.0168725,11.1599419 18.3643357,11.3146417 17.7949089,11.5573886 C17.1081097,11.8412502 16.5022794,12.2907462 16.0314961,12.8657537 C15.1329208,13.9782755 15.0004386,15.2767661 15.0004386,15.9531661 C15.0004386,16.7653399 15.1748873,17.4919351 15.5196703,18.1049741 C15.8331842,18.6645265 16.2742431,19.1286258 16.8724704,19.5260725 C17.883779,20.200004 19.1633436,20.5497242 20.4042332,20.8862785 C21.5480241,21.1997924 22.6259852,21.4927345 23.3945468,21.9988002 C24.146651,22.4958144 24.4832053,23.1351852 24.4832053,24.0757269 C24.4832053,24.5299518 24.3976267,25.3997265 23.8224398,26.1131558 C23.1855376,26.9014663 22.0944105,27.3038503 20.5786819,27.3038503 C19.3772901,27.3038503 18.4342798,27.1129442 17.7768057,26.7368921 C17.1859843,26.3995149 16.8181609,25.9057923 16.6478266,25.2277465 C16.5357119,24.7802803 16.0826412,24.5079226 15.6348722,24.6188218 C15.1870022,24.730925 14.9145275,25.1845586 15.0259476,25.6325991 C15.3081924,26.7599325 15.9533233,27.6198328 16.9457059,28.186791 C17.6821756,28.6064553 18.6202486,28.8631911 19.7401762,28.9438324 L19.7401762,30.8446647 C19.7401762,31.3063952 20.1144828,31.6807018 20.5762133,31.6807018 C21.0379438,31.6807018 21.4122503,31.3063952 21.4122503,30.8446647 L21.4122503,28.9356037 C22.135554,28.8681283 22.7880908,28.7134285 23.3575176,28.4715044 C24.0443169,28.1876429 24.6501471,27.7381468 25.1209304,27.1631393 C26.0195057,26.0497947 26.1519879,24.752127 26.1519879,24.0757269 C26.1519879,22.5789244 25.5331889,21.4112702 24.3112253,20.6073252 L24.3112253,20.608148 Z" id="路径" stroke="#FFB845" stroke-width="1.5"></path>
            </g>
        </g>
    </g>
</svg>
