<?xml version="1.0" encoding="UTF-8"?>
<svg width="27px" height="24px" viewBox="0 0 27 24" version="1.1" xmlns="http://www.w3.org/2000/svg" xmlns:xlink="http://www.w3.org/1999/xlink">
    <g id="" stroke="none" stroke-width="1" fill="none" fill-rule="evenodd">
        <g id="about" transform="translate(-1310.000000, -503.000000)" fill="#FFFFFF" fill-rule="nonzero">
            <g id="" transform="translate(693.000000, 250.000000)">
                <g id="" transform="translate(617.000000, 253.000000)">
                    <path d="M1.22699587,14 C1.55212258,14 1.86404809,14.1263199 2.09473917,14.3513301 C2.32505358,14.5751817 2.45468768,14.8801745 2.45478276,15.1984121 L2.45478276,20.4076383 C2.45478276,21.0690981 3.00377343,21.6053252 3.68177863,21.6053252 L23.3182477,21.6053252 C23.9962529,21.6053252 24.5452436,21.0690981 24.5452436,20.4076383 L24.5452436,15.197687 C24.5452436,14.7704558 24.7792522,14.3749213 25.1587547,14.1605548 C25.5391017,13.9469448 26.0061419,13.9469448 26.3864889,14.1605548 C26.7659914,14.3741963 27,14.7697308 27,15.197687 L27,20.4076383 C27,22.3920178 25.351525,24 23.3175095,24 L3.68249054,24 C1.64773667,24 0,22.3920178 0,20.4076383 L0,15.197687 C0,14.5362271 0.549755323,14 1.22699587,14 Z" id="路径"></path>
                    <path d="M8.99954697,1.19993026 C9.00124765,0.535891275 9.56005767,-0.00120461573 10.2479657,1.10669988e-05 L17.7477809,1.10669988e-05 C18.0786703,-0.00135805816 18.3965423,0.124355927 18.6313112,0.34944642 C18.8660802,0.574536914 18.9984669,0.880519562 18.9992825,1.19993026 L18.9992825,8.15214458 L22.7491901,8.15214458 C23.2684068,8.15214458 23.7337548,8.45954823 23.9183742,8.92587455 C24.1029182,9.39210492 23.9679842,9.91994106 23.5799368,10.2497777 L14.8278629,17.6979989 C14.353742,18.100667 13.643546,18.100667 13.1694252,17.6979989 L4.42043406,10.2497777 C4.03243331,9.92024588 3.89720759,9.39278265 4.08121246,8.92660547 C4.26667072,8.45989437 4.73104642,8.15189563 5.2488822,8.15214458 L8.99878977,8.15214458 L8.99878977,1.19993026 L8.99954697,1.19993026 Z M11.4994944,2.3998121 L11.4994944,9.35207863 C11.4986784,9.67136217 11.3663956,9.97723357 11.1317906,10.202303 C10.8971857,10.4273724 10.5795085,10.5531724 10.24875,10.5519866 L8.54263625,10.5519866 L13.9986575,15.1964547 L19.4546518,10.5519866 L17.7485381,10.5519866 C17.4179151,10.5529711 17.1004396,10.4270821 16.8660045,10.2020345 C16.6315694,9.97698684 16.4993943,9.67123056 16.4985779,9.35207863 L16.4985779,2.3998121 L11.4987101,2.3998121 L11.4994944,2.3998121 Z" id="形状"></path>
                </g>
            </g>
        </g>
    </g>
</svg>
