<?xml version="1.0" encoding="UTF-8"?>
<svg width="28px" height="28px" viewBox="0 0 28 28" version="1.1" xmlns="http://www.w3.org/2000/svg" xmlns:xlink="http://www.w3.org/1999/xlink">
    <g id="" stroke="none" stroke-width="1" fill="none" fill-rule="evenodd" opacity="0.5">
        <g id="" transform="translate(-1071.000000, -872.000000)" fill="#FFFFFF">
            <g id="" transform="translate(1071.000000, 872.000000)">
                <path d="M14,0 C21.7319865,0 28,6.2680135 28,14 C28,21.7319865 21.7319865,28 14,28 C6.2680135,28 0,21.7319865 0,14 C0,6.2680135 6.2680135,0 14,0 Z M17.607625,6.125 L15.460375,6.125 C13.153,6.125 12.112625,7.140875 12.112625,9.086875 L12.112625,11.15975 L10.5,11.15975 L10.5,13.79175 L12.112625,13.79175 L12.112625,21.525 L15.213625,21.525 L15.213625,13.759375 L17.3775,13.759375 L17.607625,11.15975 L15.213625,11.15975 L15.213625,9.67925 C15.213625,9.065875 15.337,8.8235 15.929375,8.8235 L17.607625,8.8235 L17.607625,6.125 Z" id="形状结合"></path>
            </g>
        </g>
    </g>
</svg>
