<?xml version="1.0" encoding="UTF-8"?>
<svg width="78px" height="78px" viewBox="0 0 78 78" version="1.1" xmlns="http://www.w3.org/2000/svg" xmlns:xlink="http://www.w3.org/1999/xlink">
    <title>football14</title>
    <defs>
        <circle id="path-1" cx="39" cy="39" r="36"></circle>
        <polygon id="path-3" points="0 5.4486688e-15 68 5.4486688e-15 68 15 0 15"></polygon>
        <polygon id="path-5" points="0 71 72 71 72 0 0 0"></polygon>
    </defs>
    <g id="绿色版" stroke="none" stroke-width="1" fill="none" fill-rule="evenodd">
        <g id="Lottery/On-Sale04" transform="translate(-50.000000, -847.000000)">
            <g id="football14" transform="translate(50.000000, 847.000000)">
                <circle id="蒙版" fill="#FFFFFF" cx="39" cy="39" r="39"></circle>
                <mask id="mask-2" fill="white">
                    <use xlink:href="#path-1"></use>
                </mask>
                <use id="蒙版" fill="#FFFFFF" xlink:href="#path-1"></use>
                <g id="编组" mask="url(#mask-2)">
                    <g transform="translate(3.000000, 4.000000)">
                        <path d="M71,35.5 C71,55.1058191 55.1065745,71 35.5,71 C15.8934255,71 0,55.1058191 0,35.5 C0,15.8941809 15.8934255,0 35.5,0 C55.1065745,0 71,15.8941809 71,35.5" id="Fill-1" stroke="none" fill="#3E6000" fill-rule="evenodd"></path>
                        <path d="M57.8734582,17.3219823 L57.1262445,12.4063007 C61.7051091,16.2796758 65.1642912,21.5162421 66.7125786,27.2587899 L65.1491193,26.7323264 L57.8734582,17.3219823 Z M43.2614484,19.36639 L32.9946568,12.743116 L31.1778276,6.14411687 C36.4083233,4.87650824 41.9991504,5.01760651 47.4716371,6.85946992 C49.7534835,7.62716587 51.8471989,8.74988327 53.8362286,9.97576929 L54.7465397,16.269814 L43.2614484,19.36639 L43.2614484,19.36639 Z M23.3885993,37.0438789 L22.6755223,23.9596696 L33.1501683,16.7287627 L42.2092805,22.4925511 L45.0069699,32.9027206 L32.7685962,40.2011422 L23.3885993,37.0438789 L23.3885993,37.0438789 Z M61.8401386,52.7004764 L59.4885017,50.3776651 L57.9553862,39.419033 L64.0969515,29.8592461 L67.3171768,30.9432753 C67.9202579,35.357527 67.6562677,39.9690128 66.1405998,44.4712613 C65.1202928,47.5041155 63.6615193,50.2851168 61.8401386,52.7004764 L61.8401386,52.7004764 Z M14.1201155,45.5514975 L9.47449472,43.1171731 C7.87386443,37.5316541 7.86020977,31.4697387 9.85985974,25.5284396 C10.5645922,23.4347234 11.4885579,21.5170007 12.5885171,19.6948607 L19.6669443,25.1407987 L20.2616808,35.9917106 L14.1201155,45.5514975 L14.1201155,45.5514975 Z M34.8130032,54.8131574 L33.3102313,44.0737587 L47.6074251,35.5183487 L55.1781788,40.2239 L56.3820652,49.5758325 L44.1930001,57.9696622 L34.8130032,54.8131574 L34.8130032,54.8131574 Z M21.2061285,59.3533356 C16.6560904,56.2203472 13.1521514,51.9441593 10.9234065,46.9822036 L14.5692023,49.0789542 L21.2266105,55.7750532 L21.2061285,59.3533356 L21.2061285,59.3533356 Z M28.5288225,63.140231 C27.0594287,62.6463871 25.705341,62.016755 24.3823556,61.2930575 L24.3717353,57.7033962 L30.6339168,56.8871503 L33.7600767,57.9400771 L44.7042914,61.6222867 L44.9591785,63.7622771 C39.7180626,65.0617467 34.0324114,64.9934733 28.5288225,63.140231 L28.5288225,63.140231 Z M27.4766546,66.2671507 C44.7452554,72.0802476 63.4559408,62.7920369 69.2675183,45.5234296 C75.0798544,28.2548223 65.7916472,9.54488856 48.523805,3.73255025 C31.2552041,-2.07978806 12.5445188,7.20766403 6.73218264,24.4770299 C0.920605099,41.7448787 10.2080537,60.455571 27.4766546,66.2671507 L27.4766546,66.2671507 Z" id="Fill-3" stroke="none" fill="#4C7700" fill-rule="evenodd"></path>
                        <g id="编组" stroke="none" stroke-width="1" fill="none" fill-rule="evenodd" transform="translate(4.000000, 28.000000)">
                            <mask id="mask-4" fill="white">
                                <use xlink:href="#path-3"></use>
                            </mask>
                            <g id="Clip-6"></g>
                            <path d="M65.7977749,15 L1.51716061,15 C0.679246709,15 0,14.3489597 0,13.5460866 L0,1.72843924 C0,0.773733449 0.807691581,5.4486688e-15 1.80351712,5.4486688e-15 L66.2276874,5.4486688e-15 C67.2068907,5.4486688e-15 68.0002267,0.761464138 68.0002267,1.69929963 L68.0002267,12.8889116 C68.0002267,14.055263 67.0142234,15 65.7977749,15" id="Fill-5" fill="#4C7700" mask="url(#mask-4)"></path>
                        </g>
                        <polygon id="Fill-7" stroke="none" fill="#4C7700" fill-rule="evenodd" points="7 31 13 31 13 32.7198958 9.43722185 32.7198958 9.43722185 34.1168103 12.4797033 34.1168103 12.4797033 35.7317171 9.43722185 35.7317171 9.43722185 39 7 39"></polygon>
                        <path d="M16.0066865,36.0103202 C16.0066865,36.5223604 16.1010401,36.9002382 16.2897474,37.1455411 C16.4777117,37.3900503 16.7147103,37.5130987 17,37.5130987 C17.2890045,37.5130987 17.52526,37.391638 17.7109955,37.1510982 C17.8959881,36.9097645 17.9888559,36.5223604 17.9888559,35.9888859 C17.9888559,35.4911352 17.8952452,35.1211961 17.7087667,34.8774808 C17.5215453,34.6353533 17.2904903,34.5130987 17.0148588,34.5130987 C16.7228826,34.5130987 16.4821694,34.636941 16.2919762,34.8830378 C16.1017831,35.1307224 16.0066865,35.5054247 16.0066865,36.0103202 M14,36.0158772 C14,35.1394549 14.268945,34.4186293 14.8060921,33.8510188 C15.3439822,33.2826144 16.0705795,33 16.9851412,33 C18.0312036,33 18.8216939,33.3326277 19.3558692,33.9994708 C19.7852897,34.5369145 20,35.1974067 20,35.9841228 C20,36.8661021 19.7340267,37.5893093 19.2013373,38.1529505 C18.6686478,38.7173856 17.9316493,39 16.9903418,39 C16.1508172,39 15.4717682,38.7658111 14.9539376,38.2974332 C14.3179792,37.7163271 14,36.9558084 14,36.0158772" id="Fill-9" stroke="none" fill="#4C7700" fill-rule="evenodd"></path>
                        <path d="M22.0071809,36.0103202 C22.0071809,36.5223604 22.10078,36.9002382 22.2894639,37.1455411 C22.4781478,37.3900503 22.715117,37.5130987 23.0003714,37.5130987 C23.2885973,37.5130987 23.5255664,37.391638 23.7112789,37.1510982 C23.8955058,36.9097645 23.988362,36.5223604 23.988362,35.9888859 C23.988362,35.4911352 23.8955058,35.1211961 23.7083075,34.8774808 C23.5218522,34.6353533 23.2908258,34.5130987 23.0152284,34.5130987 C22.7232883,34.5130987 22.4826049,34.636941 22.2916925,34.8830378 C22.1015228,35.1307224 22.0071809,35.5054247 22.0071809,36.0103202 M20,36.0158772 C20,35.1394549 20.2689117,34.4186293 20.8067352,33.8510188 C21.3445586,33.2826144 22.0703231,33 22.9855144,33 C24.0314473,33 24.8218398,33.3326277 25.355949,33.9994708 C25.7853163,34.5369145 26,35.1974067 26,35.9841228 C26,36.8661021 25.7340597,37.5893093 25.2006933,38.1529505 C24.6688127,38.7173856 23.9311626,39 22.9907144,39 C22.1512938,39 21.4723288,38.7658111 20.9545623,38.2974332 C20.3186827,37.7163271 20,36.9558084 20,36.0158772" id="Fill-11" stroke="none" fill="#4C7700" fill-rule="evenodd"></path>
                        <path d="M29.8006065,32 L29.8006065,34.1699192 L30.9249431,34.1699192 L30.9249431,35.768973 L29.8006065,35.768973 L29.8006065,37.7890794 C29.8006065,38.0319338 29.8218347,38.1927853 29.8658074,38.2716341 C29.9325246,38.3930613 30.0500379,38.4545634 30.2168309,38.4545634 C30.3677028,38.4545634 30.5784685,38.4072541 30.8498863,38.315001 L31,39.8225902 C30.495072,39.9408634 30.0227445,40 29.5845337,40 C29.075815,40 28.7012889,39.930613 28.4601971,39.7910507 C28.2198635,39.6514883 28.0416983,39.4401735 27.9257013,39.1555293 C27.8104625,38.8708851 27.7528431,38.411985 27.7528431,37.7748867 L27.7528431,35.768973 L27,35.768973 L27,34.1699192 L27.7528431,34.1699192 L27.7528431,33.122807 L29.8006065,32 Z" id="Fill-13" stroke="none" fill="#4C7700" fill-rule="evenodd"></path>
                        <path d="M34.094069,37.004829 C34.094069,37.4944319 34.1824525,37.8492165 34.3584442,38.0699714 C34.534436,38.2899379 34.7577206,38.4003154 35.0282982,38.4003154 C35.2779429,38.4003154 35.4872723,38.2923031 35.6570616,38.0754903 C35.826851,37.8586774 35.9113581,37.4944319 35.9113581,36.9827535 C35.9113581,36.5317828 35.8276263,36.199862 35.6617134,35.9893565 C35.4965758,35.7780625 35.2949994,35.6732039 35.05931,35.6732039 C34.7747771,35.6732039 34.5429642,35.7827929 34.3638713,36.0027594 C34.1840031,36.2235143 34.094069,36.5570119 34.094069,37.004829 L34.094069,37.004829 Z M32,32 L34.1095749,32 L34.1095749,34.7278999 C34.318129,34.4992609 34.5553689,34.3273874 34.8205194,34.2130679 C35.08567,34.09796 35.3787311,34.0411944 35.7004781,34.0411944 C36.364905,34.0411944 36.9138132,34.2903321 37.3479778,34.7893959 C37.7829177,35.2884596 38,36.0059131 38,36.939391 C38,37.5622351 37.9007624,38.1109688 37.7022871,38.5848034 C37.5038119,39.0594264 37.2293578,39.4134227 36.8781496,39.648369 C36.5277168,39.8817384 36.1385192,40 35.7105569,40 C35.3446182,40 35.0096912,39.9172169 34.7050006,39.7524391 C34.4755136,39.6239283 34.225869,39.3826747 33.9560667,39.0271016 L33.9560667,39.8707007 L32,39.8707007 L32,32 Z" id="Fill-15" stroke="none" fill="#4C7700" fill-rule="evenodd"></path>
                        <path d="M42.7969618,36.1452765 C42.5220452,36.2532416 42.2360133,36.3492988 41.9381252,36.4318603 C41.5327899,36.5509394 41.2756577,36.6676369 41.1682104,36.7835406 C41.0570582,36.9026197 41.001482,37.0375761 41.001482,37.1884096 C41.001482,37.3614713 41.0563172,37.5027785 41.1659874,37.6131252 C41.2749166,37.722678 41.4364579,37.7782482 41.6491293,37.7782482 C41.8714339,37.7782482 42.0781771,37.7179148 42.269359,37.5996295 C42.4605409,37.4805504 42.5961467,37.3352739 42.6761764,37.1637999 C42.756947,36.9931199 42.7969618,36.7708388 42.7969618,36.496163 L42.7969618,36.1452765 Z M41.0652093,34.9894152 L39.1570952,34.7671342 C39.2289737,34.3995766 39.3327158,34.1106113 39.4683216,33.9002382 C39.6039274,33.6882773 39.7995554,33.5056893 40.0544646,33.3508865 C40.2374954,33.2389521 40.4894405,33.1524213 40.8103001,33.091294 C41.1304187,33.0301667 41.4772138,33 41.8499444,33 C42.4486847,33 42.9296036,33.0365176 43.29196,33.1111405 C43.6550574,33.1849696 43.9573916,33.3381847 44.1997036,33.5731675 C44.3701371,33.7343212 44.5042608,33.9645409 44.6020748,34.2622387 C44.7006299,34.5591426 44.7495369,34.8425509 44.7495369,35.1124636 L44.7495369,37.648055 C44.7495369,37.9179677 44.7650982,38.1299286 44.7962208,38.2831437 C44.8273435,38.4363588 44.8947758,38.6324424 45,38.8698068 L43.1252316,38.8698068 C43.050389,38.7221487 43.001482,38.6094205 42.9785106,38.5316221 C42.9555391,38.4546176 42.9325676,38.3331569 42.9095961,38.16724 C42.6480178,38.4442974 42.3879215,38.6427626 42.1300482,38.7618418 C41.7765839,38.9198201 41.3660615,39 40.8984809,39 C40.2775102,39 39.8054835,38.8412278 39.4831419,38.5236835 C39.1608003,38.2069331 39,37.8155597 39,37.3511511 C39,36.9153215 39.1155984,36.5564964 39.3482771,36.2754697 C39.5802149,35.994443 40.0085217,35.7856576 40.6339385,35.6483197 C41.3823638,35.4824028 41.8684698,35.3672929 42.0900333,35.2998148 C42.3130789,35.2339243 42.5487217,35.1458058 42.7969618,35.0370468 C42.7969618,34.7671342 42.7458318,34.5781953 42.6450537,34.4702302 C42.5435346,34.3614713 42.36495,34.3082826 42.1100408,34.3082826 C41.7832531,34.3082826 41.537977,34.3654406 41.3742127,34.4805504 C41.2467581,34.5710505 41.1437569,34.739349 41.0652093,34.9894152 L41.0652093,34.9894152 Z" id="Fill-17" stroke="none" fill="#4C7700" fill-rule="evenodd"></path>
                        <mask id="mask-6" fill="white">
                            <use xlink:href="#path-5"></use>
                        </mask>
                        <g id="Clip-20" stroke="none" fill="none"></g>
                        <polygon id="Fill-19" stroke="none" fill="#4C7700" fill-rule="evenodd" mask="url(#mask-6)" points="46 39 48 39 48 31 46 31"></polygon>
                        <polygon id="Fill-21" stroke="none" fill="#4C7700" fill-rule="evenodd" mask="url(#mask-6)" points="49 39 51 39 51 31 49 31"></polygon>
                        <path d="M60,31 L60,39 L58.037763,39 L58.037763,33.7575608 C57.7205539,34.0302433 57.4134149,34.249335 57.116346,34.4179884 C56.8199964,34.5858536 56.4474015,34.747414 56,34.9003054 L56,33.1081667 C56.6603129,32.8685844 57.1731703,32.580928 57.5378529,32.2444094 C57.9025355,31.9078908 58.188815,31.4933504 58.3952527,31 L60,31 Z" id="Fill-22" stroke="none" fill="#4C7700" fill-rule="evenodd" mask="url(#mask-6)"></path>
                        <path d="M66.4757694,35.8345154 L66.4757694,33.357762 L64.6391935,35.8345154 L66.4757694,35.8345154 Z M66.4757694,37.5295508 L63,37.5295508 L63,35.7320725 L66.4757694,31 L68.1383092,31 L68.1383092,35.8345154 L69,35.8345154 L69,37.5295508 L68.1383092,37.5295508 L68.1383092,39 L66.4757694,39 L66.4757694,37.5295508 Z" id="Fill-23" stroke="none" fill="#4C7700" fill-rule="evenodd" mask="url(#mask-6)"></path>
                        <path d="M55.8734632,18.3219823 L55.1262494,13.4063007 C59.7051145,17.2796758 63.1642969,22.5162421 64.7125844,28.2587899 L63.149125,27.7323264 L55.8734632,18.3219823 Z M41.261452,20.36639 L30.9946595,13.743116 L29.1770715,7.14411687 C34.4075677,5.87650824 39.9991539,6.01760651 45.4708825,7.85946992 C47.7534877,8.62716587 49.8472034,9.74988327 51.8362332,10.9757693 L52.7465444,17.269814 L41.261452,20.36639 L41.261452,20.36639 Z M21.3886011,38.0438789 L20.675524,24.9596696 L31.1494124,17.7287627 L40.2092841,23.4925511 L43.0069737,33.9027206 L30.7685989,41.2011422 L21.3886011,38.0438789 L21.3886011,38.0438789 Z M59.840144,53.7004764 L57.4885069,51.3776651 L55.9553912,40.419033 L62.0969571,30.8592461 L65.3171828,31.9432753 C65.9202639,36.357527 65.6562737,40.9690128 64.1406056,45.4712613 C63.1202985,48.5041155 61.6615249,51.2851168 59.840144,53.7004764 L59.840144,53.7004764 Z M12.1201164,46.5514975 L7.47449515,44.1171731 C5.87310611,38.5316541 5.85945145,32.4697387 7.85910161,26.5284396 C8.56459275,24.4347234 9.48779997,22.5170007 10.5885179,20.6948607 L17.6669456,26.1407987 L18.2616823,36.9917106 L12.1201164,46.5514975 L12.1201164,46.5514975 Z M32.813006,55.8131574 L31.310234,45.0737587 L45.6066706,36.5183487 L53.1781836,41.2239 L54.3820701,50.5758325 L42.1930038,58.9696622 L32.813006,55.8131574 L32.813006,55.8131574 Z M19.2061301,60.3533356 C14.6560915,57.2203472 11.1521522,52.9441593 8.92340706,47.9822036 L12.5692032,50.0789542 L19.2266121,56.7750532 L19.2061301,60.3533356 L19.2061301,60.3533356 Z M26.5288247,64.140231 C25.0594308,63.6463871 23.7053429,63.016755 22.3823574,62.2930575 L22.3717371,58.7033962 L28.6339192,57.8871503 L31.7600794,58.9400771 L42.7042952,62.6222867 L42.9591823,64.7622771 C37.7173073,66.0617467 32.0324142,65.9934733 26.5288247,64.140231 L26.5288247,64.140231 Z M25.4766567,67.2671507 C42.7452592,73.0802476 61.4559463,63.7920369 67.2675244,46.5234296 C73.0798611,29.2548223 63.791653,10.5448886 46.5230505,4.73255025 C29.2552066,-1.07978806 10.5445195,8.20766403 4.73218281,25.4770299 C-1.07939529,42.7448787 8.20805421,61.455571 25.4766567,67.2671507 L25.4766567,67.2671507 Z" id="Fill-24" stroke="none" fill="#5BA600" fill-rule="evenodd" mask="url(#mask-6)"></path>
                        <path d="M66.7975556,43 L2.5164,43 C1.67924444,43 1,42.3489597 1,41.5460866 L1,29.7284392 C1,28.7737334 1.80693333,28 2.80351111,28 L67.2274667,28 C68.2066667,28 69,28.7614641 69,29.6992996 L69,40.8889116 C69,42.055263 68.014,43 66.7975556,43" id="Fill-25" stroke="none" fill="#5BA600" fill-rule="evenodd" mask="url(#mask-6)"></path>
                        <path d="M66.7975556,43 L2.5164,43 C1.67924444,43 1,42.3489597 1,41.5460866 L1,29.7284392 C1,28.7737334 1.80693333,28 2.80351111,28 L67.2274667,28 C68.2066667,28 69,28.7614641 69,29.6992996 L69,40.8889116 C69,42.055263 68.014,43 66.7975556,43 Z" id="Stroke-26" stroke="#FEFFFD" stroke-width="2" fill="none" mask="url(#mask-6)"></path>
                        <polygon id="Fill-27" stroke="none" fill="#FCFCFC" fill-rule="evenodd" mask="url(#mask-6)" points="5 32 11 32 11 33.7198958 7.43722185 33.7198958 7.43722185 35.1168103 10.4797033 35.1168103 10.4797033 36.7317171 7.43722185 36.7317171 7.43722185 40 5 40"></polygon>
                        <path d="M13.0066865,37.0103202 C13.0066865,37.5223604 13.1010401,37.9002382 13.2897474,38.1455411 C13.4777117,38.3900503 13.7147103,38.5130987 14,38.5130987 C14.2890045,38.5130987 14.52526,38.391638 14.7109955,38.1510982 C14.8959881,37.9097645 14.9888559,37.5223604 14.9888559,36.9888859 C14.9888559,36.4911352 14.8952452,36.1211961 14.7087667,35.8774808 C14.5215453,35.6353533 14.2904903,35.5130987 14.0148588,35.5130987 C13.7228826,35.5130987 13.4821694,35.636941 13.2919762,35.8830378 C13.1010401,36.1307224 13.0066865,36.5054247 13.0066865,37.0103202 M11,37.0158772 C11,36.1394549 11.268945,35.4186293 11.8060921,34.8510188 C12.3439822,34.2826144 13.0705795,34 13.9851412,34 C15.0312036,34 15.8216939,34.3326277 16.3558692,34.9994708 C16.7852897,35.5369145 17,36.1974067 17,36.9841228 C17,37.8661021 16.7340267,38.5893093 16.2013373,39.1529505 C15.6686478,39.7173856 14.9316493,40 13.9903418,40 C13.1508172,40 12.4717682,39.7658111 11.9539376,39.2974332 C11.3179792,38.7163271 11,37.9558084 11,37.0158772" id="Fill-28" stroke="none" fill="#FCFCFC" fill-rule="evenodd" mask="url(#mask-6)"></path>
                        <path d="M20.0066865,37.0103202 C20.0066865,37.5223604 20.1010401,37.9002382 20.2897474,38.1455411 C20.4777117,38.3900503 20.7147103,38.5130987 21,38.5130987 C21.2890045,38.5130987 21.526003,38.391638 21.7109955,38.1510982 C21.8959881,37.9097645 21.9888559,37.5223604 21.9888559,36.9888859 C21.9888559,36.4911352 21.8952452,36.1211961 21.7087667,35.8774808 C21.5215453,35.6353533 21.2904903,35.5130987 21.0148588,35.5130987 C20.7228826,35.5130987 20.4821694,35.636941 20.2919762,35.8830378 C20.1017831,36.1307224 20.0066865,36.5054247 20.0066865,37.0103202 M18,37.0158772 C18,36.1394549 18.268945,35.4186293 18.8060921,34.8510188 C19.3439822,34.2826144 20.0705795,34 20.9851412,34 C22.0312036,34 22.8216939,34.3326277 23.3566122,34.9994708 C23.7852897,35.5369145 24,36.1974067 24,36.9841228 C24,37.8661021 23.7340267,38.5893093 23.2013373,39.1529505 C22.6686478,39.7173856 21.9316493,40 20.9903418,40 C20.1508172,40 19.4717682,39.7658111 18.9539376,39.2974332 C18.3179792,38.7163271 18,37.9558084 18,37.0158772" id="Fill-29" stroke="none" fill="#FCFCFC" fill-rule="evenodd" mask="url(#mask-6)"></path>
                        <path d="M27.8006065,32 L27.8006065,34.1699192 L28.924185,34.1699192 L28.924185,35.768973 L27.8006065,35.768973 L27.8006065,37.7890794 C27.8006065,38.0319338 27.8218347,38.1927853 27.8658074,38.2716341 C27.9325246,38.3930613 28.0500379,38.4545634 28.2168309,38.4545634 C28.3677028,38.4545634 28.5784685,38.4072541 28.8491281,38.315001 L29,39.8225902 C28.495072,39.9408634 28.0227445,40 27.5845337,40 C27.075815,40 26.7012889,39.930613 26.4601971,39.7910507 C26.2198635,39.6514883 26.0416983,39.4401735 25.9257013,39.1555293 C25.8104625,38.8708851 25.7520849,38.411985 25.7520849,37.7748867 L25.7520849,35.768973 L25,35.768973 L25,34.1699192 L25.7520849,34.1699192 L25.7520849,33.122807 L27.8006065,32 Z" id="Fill-30" stroke="none" fill="#FCFCFC" fill-rule="evenodd" mask="url(#mask-6)"></path>
                        <path d="M32.094069,37.004829 C32.094069,37.4944319 32.1824525,37.8492165 32.3584442,38.0699714 C32.534436,38.2899379 32.7577206,38.4003154 33.0282982,38.4003154 C33.2779429,38.4003154 33.4872723,38.2923031 33.6570616,38.0754903 C33.8260757,37.8586774 33.9105828,37.4944319 33.9105828,36.9827535 C33.9105828,36.5317828 33.8276263,36.199862 33.6617134,35.9893565 C33.4965758,35.7780625 33.2949994,35.6732039 33.05931,35.6732039 C32.7747771,35.6732039 32.5429642,35.7827929 32.3638713,36.0027594 C32.1840031,36.2235143 32.094069,36.5570119 32.094069,37.004829 L32.094069,37.004829 Z M30,32 L32.1095749,32 L32.1095749,34.7278999 C32.318129,34.4992609 32.5553689,34.3273874 32.8205194,34.2130679 C33.08567,34.09796 33.3787311,34.0411944 33.7004781,34.0411944 C34.3641297,34.0411944 34.9138132,34.2903321 35.3479778,34.7893959 C35.7829177,35.2884596 36,36.0059131 36,36.939391 C36,37.5622351 35.9007624,38.1109688 35.7022871,38.5848034 C35.5038119,39.0594264 35.2293578,39.4134227 34.8781496,39.648369 C34.5277168,39.8817384 34.1385192,40 33.7105569,40 C33.3446182,40 33.0096912,39.9172169 32.7050006,39.7524391 C32.4755136,39.6239283 32.225869,39.3826747 31.9552914,39.0271016 L31.9552914,39.8707007 L30,39.8707007 L30,32 Z" id="Fill-31" stroke="none" fill="#FCFCFC" fill-rule="evenodd" mask="url(#mask-6)"></path>
                        <path d="M39.7972339,37.1452765 C39.5223512,37.2532416 39.2363547,37.3492988 38.9385033,37.4318603 C38.5332181,37.5509394 38.2761176,37.6676369 38.1686836,37.7835406 C38.0575451,37.9026197 38.0019758,38.0375761 38.0019758,38.1884096 C38.0019758,38.3614713 38.0560632,38.5027785 38.1664609,38.6131252 C38.2753766,38.722678 38.436898,38.7782482 38.6495431,38.7782482 C38.8718202,38.7782482 39.0785379,38.7179148 39.2696962,38.5996295 C39.4608545,38.4805504 39.5964436,38.3352739 39.6764633,38.1637999 C39.757224,37.9931199 39.7972339,37.7708388 39.7972339,37.496163 L39.7972339,37.1452765 Z M38.0656952,35.9894152 L36.1570758,35.7671342 C36.2296863,35.3995766 36.3334157,35.1106113 36.4690047,34.9002382 C36.6045937,34.6882773 36.8001976,34.5056893 37.0550753,34.3508865 C37.2380835,34.2389521 37.4899975,34.1524213 37.8108175,34.091294 C38.1308965,34.0301667 38.4776488,34 38.8503334,34 C39.4489998,34 39.9298592,34.0365176 40.2921709,34.1111405 C40.6552235,34.1849696 40.9575204,34.3381847 41.1998024,34.5731675 C41.3702149,34.7343212 41.5043221,34.9645409 41.602124,35.2622387 C41.6999259,35.5591426 41.7495678,35.8425509 41.7495678,36.1124636 L41.7495678,38.648055 C41.7495678,38.9179677 41.7651272,39.1299286 41.796246,39.2831437 C41.8266239,39.4363588 41.8947888,39.6324424 42,39.8698068 L40.1254631,39.8698068 C40.0506298,39.7221487 40.0009879,39.6094205 39.9787602,39.5316221 C39.9557916,39.4546176 39.9328229,39.3331569 39.9098543,39.16724 C39.6483082,39.4442974 39.388244,39.6427626 39.1304026,39.7618418 C38.776982,39.9198201 38.3665102,40 37.8989874,40 C37.2773524,40 36.805384,39.8412278 36.4838232,39.5236835 C36.1615214,39.2069331 36,38.8155597 36,38.3511511 C36,37.9153215 36.116325,37.5564964 36.3489751,37.2754697 C36.5808842,36.994443 37.0091381,36.7856576 37.6344776,36.6483197 C38.3828106,36.4824028 38.8688565,36.3664991 39.0903927,36.2998148 C39.3134107,36.2339243 39.5482835,36.1458058 39.7972339,36.0370468 C39.7972339,35.7671342 39.7461102,35.5781953 39.6446036,35.4702302 C39.543838,35.3614713 39.3652754,35.3082826 39.1103976,35.3082826 C38.7836503,35.3082826 38.5384045,35.3654406 38.3746604,35.4805504 C38.2472215,35.5710505 38.1442331,35.739349 38.0656952,35.9894152 L38.0656952,35.9894152 Z" id="Fill-32" stroke="none" fill="#FCFCFC" fill-rule="evenodd" mask="url(#mask-6)"></path>
                        <polygon id="Fill-33" stroke="none" fill="#FCFCFC" fill-rule="evenodd" mask="url(#mask-6)" points="43 40 45 40 45 32 43 32"></polygon>
                        <polygon id="Fill-34" stroke="none" fill="#FCFCFC" fill-rule="evenodd" mask="url(#mask-6)" points="47 40 49 40 49 32 47 32"></polygon>
                        <path d="M58,32 L58,40 L56.037763,40 L56.037763,34.7575608 C55.7205539,35.0302433 55.4134149,35.249335 55.116346,35.4179884 C54.8199964,35.5858536 54.4474015,35.747414 54,35.9003054 L54,34.1081667 C54.6603129,33.8685844 55.1731703,33.580928 55.5378529,33.2444094 C55.9025355,32.9078908 56.188815,32.4933504 56.3952527,32 L58,32 Z" id="Fill-35" stroke="none" fill="#FCFCFC" fill-rule="evenodd" mask="url(#mask-6)"></path>
                        <path d="M63.4754717,36.8345154 L63.4754717,34.357762 L61.6393868,36.8345154 L63.4754717,36.8345154 Z M63.4754717,38.5295508 L60,38.5295508 L60,36.7320725 L63.4754717,32 L65.1382075,32 L65.1382075,36.8345154 L66,36.8345154 L66,38.5295508 L65.1382075,38.5295508 L65.1382075,40 L63.4754717,40 L63.4754717,38.5295508 Z" id="Fill-36" stroke="none" fill="#FCFCFC" fill-rule="evenodd" mask="url(#mask-6)"></path>
                    </g>
                </g>
            </g>
        </g>
    </g>
</svg>