<svg width="22px" height="18px" viewBox="0 0 22 18" version="1.1" xmlns="http://www.w3.org/2000/svg" xmlns:xlink="http://www.w3.org/1999/xlink">
    <g stroke="none" stroke-width="1" fill="none" fill-rule="evenodd">
        <g id="lives-soccer" transform="translate(-1868.000000, -63.000000)" fill="#FFFFFF" fill-rule="nonzero">
            <g transform="translate(1540.000000, 34.000000)">
                <g transform="translate(328.000000, 29.000000)">
                    <path d="M18.4749695,0.0146112805 C18.7196524,0.0146112805 18.9643354,0.106806402 19.1575061,0.304367378 C19.5309695,0.686318598 19.5309695,1.30534299 19.1575061,1.68729421 L19.1575061,1.68729421 L16.478872,4.4268064 L14.7274573,6.23119665 L13.5169207,7.46924543 L9.69214024,11.3809527 L8.50735976,12.5926601 L7.32257927,13.8043674 L4.09018902,17.110221 C3.89701829,17.307782 3.65233537,17.3999771 3.40765244,17.3999771 C3.16296951,17.3999771 2.91828659,17.307782 2.72511585,17.110221 C2.35165244,16.7282698 2.35165244,16.1092454 2.72511585,15.7272942 L2.72511585,15.7272942 L5.41662805,12.9746113 L7.16804268,11.1833918 L8.36570122,9.95851372 L12.1904817,6.03363567 L13.3881402,4.80875762 L14.5729207,3.5970503 L17.7924329,0.304367378 C17.9856037,0.106806402 18.2302866,0.0146112805 18.4749695,0.0146112805 Z M17.7924329,3.84729421 C20.3422866,5.34875762 21.8490183,7.4165625 21.8490183,8.72046494 C21.8490183,10.8672942 17.3545793,15.4507088 10.941311,15.4507088 C9.55048171,15.4507088 8.23692073,15.2268064 7.0392622,14.8580259 L7.0392622,14.8580259 L8.35282317,13.5146113 C9.1255061,13.9624162 10.0140915,14.2258308 10.954189,14.2258308 C13.85175,14.2258308 16.2084329,11.762904 16.2084329,8.72046494 C16.2084329,7.77217226 15.976628,6.88973323 15.5774085,6.11266006 L15.5774085,6.11266006 Z M10.9284329,1.99022104 C12.3450183,1.99022104 13.6457012,2.20095274 14.8433598,2.5565625 L14.8433598,2.5565625 L13.5169207,3.91314787 C12.7571159,3.46534299 11.8814085,3.21509909 10.941311,3.21509909 C8.04375,3.21509909 5.68706707,5.67802591 5.68706707,8.72046494 C5.68706707,9.65558689 5.91887195,10.5380259 6.30521341,11.3019284 L6.30521341,11.3019284 L4.11594512,13.5541235 C1.59184756,12.0526601 0.0336036585,9.99802591 0.0207256098,8.72046494 C0.0207256098,6.49461128 4.69545732,1.99022104 10.9284329,1.99022104 Z M14.122189,7.60095274 C14.2252134,7.9565625 14.2896037,8.32534299 14.2896037,8.70729421 C14.2896037,10.6433918 12.79575,12.2107088 10.941311,12.2107088 C10.5420915,12.2107088 10.168628,12.1448552 9.82092073,12.0131479 L9.82092073,12.0131479 Z M10.941311,5.2170503 C11.3276524,5.2170503 11.7139939,5.28290396 12.0617012,5.41461128 L12.0617012,5.41461128 L7.76043293,9.81363567 C7.65740854,9.45802591 7.59301829,9.08924543 7.59301829,8.70729421 C7.59301829,6.78436738 9.08687195,5.2170503 10.941311,5.2170503 Z" id="形状结合"></path>
                </g>
            </g>
        </g>
    </g>
</svg>
