<?xml version="1.0" encoding="UTF-8"?>
<svg width="90px" height="40px" viewBox="0 0 90 40" version="1.1" xmlns="http://www.w3.org/2000/svg" xmlns:xlink="http://www.w3.org/1999/xlink">
    <title>编组 6</title>
    <g id="绿色版" stroke="none" stroke-width="1" fill="none" fill-rule="evenodd">
        <g id="footer" transform="translate(-31.000000, -289.000000)" fill="#FF5D27">
            <g id="编组-6" transform="translate(31.000000, 289.000000)">
                <path d="M86.0940262,2.54506893 C87.8510296,2.54506893 89.2753623,3.96940164 89.2753623,5.72640509 C89.2753623,7.48340854 87.8510296,8.90774125 86.0940262,8.90774125 L82.0672679,8.90774125 C81.7482469,8.99880882 81.4853563,9.1457362 81.2785961,9.34852339 C81.0718359,9.55131057 80.9095703,9.82136974 80.7917992,10.1587009 L80.7917992,10.1587009 L80.7917992,36.0551432 C80.7917992,37.695013 79.462422,39.0243902 77.8225521,39.0243902 C76.1826823,39.0243902 74.8533051,37.695013 74.8533051,36.0551432 L74.852742,10.1500689 L74.7802373,9.96437484 C74.6717821,9.71603695 74.5348505,9.51075313 74.3694423,9.34852339 C74.1626821,9.1457362 73.8997915,8.99880882 73.5807706,8.90774125 L69.5510781,8.90774125 C67.7940747,8.90774125 66.369742,7.48340854 66.369742,5.72640509 C66.369742,3.96940164 67.7940747,2.54506893 69.5510781,2.54506893 L86.0940262,2.54506893 Z" id="形状结合"></path>
                <path d="M8.4835631,10.1802757 L8.4835631,39.0243902 L0.84835631,39.0243902 L0.84835631,10.1802757 L8.4835631,10.1802757 Z M4.6659597,0 C7.24289809,0 9.33191941,2.08902132 9.33191941,4.6659597 C9.33191941,7.24289809 7.24289809,9.33191941 4.6659597,9.33191941 C2.08902132,9.33191941 0,7.24289809 0,4.6659597 C0,2.08902132 2.08902132,0 4.6659597,0 Z" id="形状结合"></path>
                <path d="M20.3605514,29.6924708 C20.3605514,31.2737739 21.5966688,32.5663664 23.1553327,32.6566774 L23.3297985,32.6617179 L29.9045599,32.6617179 C31.6615634,32.6617179 33.0858961,34.0860506 33.0858961,35.8430541 C33.0858961,37.6000575 31.6615634,39.0243902 29.9045599,39.0243902 L23.3297985,39.0243902 C18.3181046,39.0243902 14.2291458,35.0736918 14.0073513,30.1167242 L13.9978791,30.116649 L13.9978791,5.72640509 C13.9978791,3.96940164 15.4222118,2.54506893 17.1792153,2.54506893 C18.9362187,2.54506893 20.3605514,3.96940164 20.3605514,5.72640509 L20.3605514,29.6924708 Z" id="形状结合"></path>
                <path d="M49.0915518,2.12089077 C59.3993053,2.12089077 67.7553906,10.476976 67.7553906,20.7847296 C67.7553906,31.0924831 59.3993053,39.4485684 49.0915518,39.4485684 C38.7837982,39.4485684 30.427713,31.0924831 30.427713,20.7847296 C30.427713,10.476976 38.7837982,2.12089077 49.0915518,2.12089077 Z M49.0915518,8.05938494 C42.063538,8.05938494 36.3662071,13.7567158 36.3662071,20.7847296 C36.3662071,27.8127434 42.063538,33.5100742 49.0915518,33.5100742 C56.1195656,33.5100742 61.8168964,27.8127434 61.8168964,20.7847296 C61.8168964,13.7567158 56.1195656,8.05938494 49.0915518,8.05938494 Z M49.0915518,14.4220573 C52.6055587,14.4220573 55.4542241,17.2707227 55.4542241,20.7847296 C55.4542241,24.2987365 52.6055587,27.1474019 49.0915518,27.1474019 C45.5775449,27.1474019 42.7288795,24.2987365 42.7288795,20.7847296 C42.7288795,17.2707227 45.5775449,14.4220573 49.0915518,14.4220573 Z" id="形状结合"></path>
            </g>
        </g>
    </g>
</svg>