<?xml version="1.0" encoding="UTF-8"?>
<svg width="15px" height="18px" viewBox="0 0 15 18" version="1.1" xmlns="http://www.w3.org/2000/svg" xmlns:xlink="http://www.w3.org/1999/xlink">
    <g id="" stroke="none" stroke-width="1" fill="none" fill-rule="evenodd">
        <g id="" transform="translate(-454.000000, -451.000000)" fill="#303242" fill-rule="nonzero" stroke="#303242" stroke-width="0.3">
            <g id="" transform="translate(454.000000, 452.000000)">
                <path d="M14.4731039,8.27719905 C14.5441972,8.20321378 14.5840552,8.10344614 14.5840552,7.998285 C14.5840552,7.8942606 14.5441973,7.79342876 14.4731039,7.72050769 M14.4731039,7.71944349 L7.27686687,0.237160485 C6.96118533,-0.0921573843 6.43440986,-0.0717926877 6.11880119,0.256485184 C5.80418837,0.583698878 5.80202667,1.11354365 6.11763532,1.44286154 L12.4154539,7.99722082 L6.11765963,14.5515559 C5.80205095,14.8819622 5.80418837,15.4119037 6.1188255,15.7390932 C6.43443417,16.067371 6.96118536,16.0877599 7.27689118,15.7584179 L14.4731039,8.27615905 M8.88952174,8.28152837 C8.96061505,8.20747053 9.00047298,8.10770289 9.00047298,8.00261432 C9.00047298,7.89858992 8.96061507,7.79768554 8.88952174,7.72476444 M8.88952174,7.72476444 L1.69328469,0.242481418 C1.37767602,-0.0867638917 0.850827682,-0.0663991951 0.535219011,0.261806116 C0.220679059,0.58901981 0.218444494,1.11893714 0.534150315,1.44827921 L6.83196894,8.00261429 L0.534150315,14.5569736 C0.218444494,14.8863156 0.220679059,15.416233 0.535219011,15.7433499 C0.850827682,16.0716278 1.37767602,16.0920167 1.69328469,15.7638114 L8.88952174,8.28150416" id="形状"></path>
            </g>
        </g>
    </g>
</svg>
