<?xml version="1.0" encoding="UTF-8"?>
<svg width="30px" height="20px" viewBox="0 0 30 20" version="1.1" xmlns="http://www.w3.org/2000/svg" xmlns:xlink="http://www.w3.org/1999/xlink">
    <title>编组备份 3</title>
    <defs>
        <filter id="filter-1">
            <feColorMatrix in="SourceGraphic" type="matrix" values="0 0 0 0 0.592157 0 0 0 0 0.592157 0 0 0 0 0.592157 0 0 0 1.000000 0"></feColorMatrix>
        </filter>
    </defs>
    <g id="绿色版" stroke="none" stroke-width="1" fill="none" fill-rule="evenodd">
        <g id="Lives页面/默认" transform="translate(-30.000000, -469.000000)">
            <g id="编组备份-3" transform="translate(30.000000, 469.000000)" filter="url(#filter-1)">
                <g>
                    <path d="M14.5579069,19.5347839 C13.5343203,19.5347839 12.7080642,18.7085544 12.7080642,17.6849942 L12.7080642,1.86308992 C12.7080642,0.839529723 13.5343203,0.0133002153 14.5579069,0.0133002153 C15.5814936,0.0133002153 16.4076701,0.839529723 16.4076701,1.86308992 L16.4076701,17.678821 C16.4076701,18.7023812 15.5814406,19.5347839 14.5578804,19.5347839 L14.5579069,19.5347839 Z M20.9088392,14.6020467 C19.885279,14.6020467 19.0590495,13.7757642 19.0590495,12.752204 L19.0590495,6.7897334 C19.0590495,5.76617321 19.885279,4.9399437 20.9088392,4.9399437 C21.9323994,4.9399437 22.7586289,5.76617321 22.7586289,6.7897334 L22.7586289,12.7522305 C22.7586289,13.7757907 21.9323994,14.6020467 20.9088392,14.6020467 L20.9088392,14.6020467 Z M27.2659712,13.7572711 C26.242411,13.7572711 25.4161815,12.9310151 25.4161815,11.9074814 L25.4161815,7.64060275 C25.4161815,6.61706905 26.242411,5.79081305 27.2659712,5.79081305 C28.2895314,5.79081305 29.1157609,6.61706905 29.1157609,7.64060275 L29.1157609,11.9074814 C29.1157609,12.9310151 28.2895314,13.7572711 27.2659712,13.7572711 Z M8.20692168,14.6020467 C7.18336148,14.6020467 6.35713198,13.7757642 6.35713198,12.752204 L6.35713198,6.7897334 C6.35713198,5.76617321 7.18336148,4.9399437 8.20692168,4.9399437 C9.23048187,4.9399437 10.0567114,5.76617321 10.0567114,6.7897334 L10.0567114,12.7522305 C10.0567114,13.7757907 9.22430866,14.6020467 8.20692168,14.6020467 L8.20692168,14.6020467 Z M1.8497897,13.7572711 C0.826229508,13.7572711 0,12.9310151 0,11.9074814 L0,7.64060275 C0,6.61706905 0.826229508,5.79081305 1.8497897,5.79081305 C2.87334989,5.79081305 3.6995794,6.61706905 3.6995794,7.64060275 L3.6995794,11.9074814 C3.6995794,12.9310151 2.87334989,13.7572711 1.8497897,13.7572711 L1.8497897,13.7572711 Z" id="形状" fill="#FF5D27" fill-rule="nonzero"></path>
                </g>
            </g>
        </g>
    </g>
</svg>