<?xml version="1.0" encoding="UTF-8"?>
<svg width="18px" height="13px" viewBox="0 0 18 13" version="1.1" xmlns="http://www.w3.org/2000/svg" xmlns:xlink="http://www.w3.org/1999/xlink">
    <g id="" stroke="none" stroke-width="1" fill="none" fill-rule="evenodd">
        <g id="lives" transform="translate(-1628.000000, -273.000000)" fill="#FF5D27" fill-rule="nonzero">
            <g id="" transform="translate(1628.000000, 273.000000)">
                <path d="M8.82387421,11.8404711 C8.20345534,11.8404711 7.70264302,11.3396748 7.70264302,10.719272 L7.70264302,1.12926062 C7.70264302,0.508857812 8.20345534,0.00806155905 8.82387421,0.00806155905 C9.44429307,0.00806155905 9.94505721,0.508857812 9.94505721,1.12926062 L9.94505721,10.7155303 C9.94505721,11.3359331 9.44426096,11.8404711 8.82385815,11.8404711 L8.82387421,11.8404711 Z M12.6733168,8.8506283 C12.052914,8.8506283 11.5521178,8.34979993 11.5521178,7.72939712 L11.5521178,4.11540984 C11.5521178,3.49500703 12.052914,2.99421077 12.6733168,2.99421077 C13.2937196,2.99421077 13.7945159,3.49500703 13.7945159,4.11540984 L13.7945159,7.72941318 C13.7945159,8.34981599 13.2937196,8.8506283 12.6733168,8.8506283 L12.6733168,8.8506283 Z M16.5265172,8.33859083 C15.9061144,8.33859083 15.4053182,7.83777852 15.4053182,7.21739177 L15.4053182,4.63114085 C15.4053182,4.0107541 15.9061144,3.50994179 16.5265172,3.50994179 C17.14692,3.50994179 17.6477163,4.0107541 17.6477163,4.63114085 L17.6477163,7.21739177 C17.6477163,7.83777852 17.14692,8.33859083 16.5265172,8.33859083 Z M4.97439946,8.8506283 C4.35399665,8.8506283 3.8532004,8.34979993 3.8532004,7.72939712 L3.8532004,4.11540984 C3.8532004,3.49500703 4.35399665,2.99421077 4.97439946,2.99421077 C5.59480228,2.99421077 6.09559853,3.49500703 6.09559853,4.11540984 L6.09559853,7.72941318 C6.09559853,8.34981599 5.59106056,8.8506283 4.97439946,8.8506283 L4.97439946,8.8506283 Z M1.12119906,8.33859083 C0.500796253,8.33859083 0,7.83777852 0,7.21739177 L0,4.63114085 C0,4.0107541 0.500796253,3.50994179 1.12119906,3.50994179 C1.74160187,3.50994179 2.24239813,4.0107541 2.24239813,4.63114085 L2.24239813,7.21739177 C2.24239813,7.83777852 1.74160187,8.33859083 1.12119906,8.33859083 L1.12119906,8.33859083 Z" id="形状"></path>
            </g>
        </g>
    </g>
</svg>
