<?xml version="1.0" encoding="UTF-8"?>
<svg width="50px" height="22px" viewBox="0 0 50 22" version="1.1" xmlns="http://www.w3.org/2000/svg" xmlns:xlink="http://www.w3.org/1999/xlink">
    <title>编组 6</title>
    <defs>
        <filter id="filter-1">
            <feColorMatrix in="SourceGraphic" type="matrix" values="0 0 0 0 1.000000 0 0 0 0 1.000000 0 0 0 0 1.000000 0 0 0 1.000000 0"></feColorMatrix>
        </filter>
    </defs>
    <g id="绿色版" stroke="none" stroke-width="1" fill="none" fill-rule="evenodd">
        <g id="编组-6" transform="translate(-41.000000, -183.000000)" filter="url(#filter-1)">
            <g transform="translate(41.000000, 183.000000)">
                <path d="M47.7989842,1.77011494 C48.7733439,1.77011494 49.5632184,2.55998948 49.5632184,3.5343491 C49.5632184,4.50870873 48.7733439,5.29858327 47.7989842,5.29858327 L45.5844208,5.29858327 C45.4083244,5.34908548 45.2632114,5.43056518 45.1490818,5.54302235 C45.0349521,5.65547953 44.9453831,5.80524289 44.8803746,5.99231245 L44.8803746,5.99231245 L44.8803746,20.3610047 C44.8803746,21.2661968 44.1465714,22 43.2413793,22 C42.3361872,22 41.602384,21.2661968 41.602384,20.3610047 L41.6015402,5.98711494 L41.5506422,5.85900519 C41.4926756,5.73269285 41.4208937,5.62736523 41.3352965,5.54302235 C41.2211669,5.43056518 41.0760539,5.34908548 40.8999574,5.29858327 L38.6837744,5.29858327 C37.7094148,5.29858327 36.9195402,4.50870873 36.9195402,3.5343491 C36.9195402,2.55998948 37.7094148,1.77011494 38.6837744,1.77011494 L47.7989842,1.77011494 Z" id="形状结合" fill="#FF5D27"></path>
                <path d="M4.85057471,6.11294353 L4.85057471,22 L0.712643678,22 L0.712643678,6.11294353 L4.85057471,6.11294353 Z M2.7816092,0.505747126 C4.17819132,0.505747126 5.31034483,1.65635966 5.31034483,3.07571214 C5.31034483,4.49506463 4.17819132,5.64567716 2.7816092,5.64567716 C1.38502707,5.64567716 0.252873563,4.49506463 0.252873563,3.07571214 C0.252873563,1.65635966 1.38502707,0.505747126 2.7816092,0.505747126 Z" id="形状结合" fill="#FF5D27"></path>
                <path d="M11.210728,16.8249131 C11.210728,17.6837931 11.8390809,18.3890873 12.6409488,18.4648025 L12.7841635,18.4715317 L16.1897888,18.4715317 C17.1641484,18.4715317 17.954023,19.2614062 17.954023,20.2357658 C17.954023,21.2101255 17.1641484,22 16.1897888,22 L12.7841635,22 C10.1285016,22 7.96177447,19.8092551 7.84411153,17.0604588 L7.83908046,17.0601443 L7.83908046,3.4559387 C7.83908046,2.52488395 8.59384946,1.77011494 9.52490421,1.77011494 C10.455959,1.77011494 11.210728,2.52488395 11.210728,3.4559387 L11.210728,16.8249131 Z" id="形状结合" fill="#FF5D27"></path>
                <path d="M26.8045977,1.77011494 C32.3909262,1.77011494 36.9195402,6.29872897 36.9195402,11.8850575 C36.9195402,17.471386 32.3909262,22 26.8045977,22 C21.2182692,22 16.6896552,17.471386 16.6896552,11.8850575 C16.6896552,6.29872897 21.2182692,1.77011494 26.8045977,1.77011494 Z M26.8045977,4.98850575 C22.9957374,4.98850575 19.908046,8.07619713 19.908046,11.8850575 C19.908046,15.6939178 22.9957374,18.7816092 26.8045977,18.7816092 C30.613458,18.7816092 33.7011494,15.6939178 33.7011494,11.8850575 C33.7011494,8.07619713 30.613458,4.98850575 26.8045977,4.98850575 Z M26.8045977,8.43678161 C28.7090279,8.43678161 30.2528736,9.9806273 30.2528736,11.8850575 C30.2528736,13.7894876 28.7090279,15.3333333 26.8045977,15.3333333 C24.9001675,15.3333333 23.3563218,13.7894876 23.3563218,11.8850575 C23.3563218,9.9806273 24.9001675,8.43678161 26.8045977,8.43678161 Z" id="形状结合" fill="#FF5D27"></path>
            </g>
        </g>
    </g>
</svg>