<?xml version="1.0" encoding="UTF-8"?>
<svg width="65px" height="29px" viewBox="0 0 65 29" version="1.1" xmlns="http://www.w3.org/2000/svg" xmlns:xlink="http://www.w3.org/1999/xlink">
    <title>logo</title>
    <g id="logo-1" stroke="none" stroke-width="1" fill="none" fill-rule="evenodd" opacity="0.542628089">
        <g id="logo-2" transform="translate(-40.000000, -184.000000)" fill="#FF5D27">
            <g id="logo-3" transform="translate(40.000000, 184.000000)">
                <path d="M62.7325581,2 C63.9848317,2 65,3.0151683 65,4.26744186 C65,5.51971542 63.9848317,6.53488372 62.7325581,6.53488372 L59.6503258,6.53488372 C59.4135562,6.59979055 59.2184451,6.70451047 59.0649926,6.8490435 C58.9115402,6.99357653 58.7911105,7.18605649 58.7037037,7.42648339 L58.7037037,7.42648339 L58.7037037,25.7962963 C58.7037037,27.0133682 57.7170719,28 56.5,28 C55.2829281,28 54.2962963,27.0133682 54.2962963,25.7962963 L54.296,7.421 L54.2420671,7.28798088 C54.1615744,7.11098238 54.059947,6.96466992 53.937185,6.8490435 C53.7837326,6.70451047 53.5886215,6.59979055 53.3518519,6.53488372 L50.2674419,6.53488372 C49.0151683,6.53488372 48,5.51971542 48,4.26744186 C48,3.0151683 49.0151683,2 50.2674419,2 L62.7325581,2 Z" id="形状结合"></path>
                <path d="M6.36363636,7.30434783 L6.36363636,28 L0.636363636,28 L0.636363636,7.30434783 L6.36363636,7.30434783 Z M3.5,0 C5.43299662,0 7,1.49887279 7,3.34782609 C7,5.19677938 5.43299662,6.69565217 3.5,6.69565217 C1.56700338,6.69565217 0,5.19677938 0,3.34782609 C0,1.49887279 1.56700338,0 3.5,0 Z" id="形状结合"></path>
                <path d="M14.6666667,21.3488372 C14.6666667,22.466809 15.5587494,23.3823075 16.6889164,23.4598027 L16.8444444,23.4651163 L21.7325581,23.4651163 C22.9848317,23.4651163 24,24.4802846 24,25.7325581 C24,26.9848317 22.9848317,28 21.7325581,28 L16.8444444,28 L16.8444444,28 C13.1688132,28 10.169895,25.1844656 10.0069696,21.6517002 L10,21.6511628 L10,4.33333333 C10,3.04466892 11.0446689,2 12.3333333,2 C13.6219977,2 14.6666667,3.04466892 14.6666667,4.33333333 L14.6666667,21.3488372 Z" id="形状结合"></path>
                <path d="M35.5,2 C42.9558441,2 49,8.04415588 49,15.5 C49,22.9558441 42.9558441,29 35.5,29 C28.0441559,29 22,22.9558441 22,15.5 C22,8.04415588 28.0441559,2 35.5,2 Z M35.5,6.29545455 C30.4164699,6.29545455 26.2954545,10.4164699 26.2954545,15.5 C26.2954545,20.5835301 30.4164699,24.7045455 35.5,24.7045455 C40.5835301,24.7045455 44.7045455,20.5835301 44.7045455,15.5 C44.7045455,10.4164699 40.5835301,6.29545455 35.5,6.29545455 Z M35.5,10.8977273 C38.041765,10.8977273 40.1022727,12.958235 40.1022727,15.5 C40.1022727,18.041765 38.041765,20.1022727 35.5,20.1022727 C32.958235,20.1022727 30.8977273,18.041765 30.8977273,15.5 C30.8977273,12.958235 32.958235,10.8977273 35.5,10.8977273 Z" id="形状结合"></path>
            </g>
        </g>
    </g>
</svg>