<?xml version="1.0" encoding="UTF-8"?>
<svg width="29px" height="24px" viewBox="0 0 29 24" version="1.1" xmlns="http://www.w3.org/2000/svg" xmlns:xlink="http://www.w3.org/1999/xlink">
    <defs>
        <path d="M12.1007916,3.17237104 C12.8710308,3.17237104 12.6529032,2.83928043 12.8710308,2.53940429 C13.1268137,2.49460155 13.8994178,1.43723069 14.6456922,1.72144558 C15.3919665,2.00566048 15.9280227,3.00777026 16.1648334,3.09007065 C16.4016441,3.17237104 17.8223507,3.17237104 17.8223507,3.17237104 C17.8223507,3.17237104 18.4430197,1.98474378 19.2060064,1.8092642 C19.7146642,1.69227782 20.7528263,1.66300495 22.3204929,1.72144558 C22.7334314,2.18947539 23.1121218,2.42349029 23.4565642,2.42349029 C23.9732278,2.42349029 24.8809496,0.14470458 25.9201629,0.14470458 C26.9593762,0.14470458 29.043899,3.18419581 28.6217285,5.22599185 C28.199558,7.26778789 26.7626646,6.5590375 26.2149413,8.12400629 C25.6672179,9.68897508 26.4600556,10.2733814 25.5918547,11.1925602 C24.7236539,12.1117389 23.9002295,12.4104063 23.4565642,13.6395516 C23.0128989,14.868697 23.7328959,16.92442 22.1518454,17.5163942 C20.570795,18.1083684 19.7504188,16.0612644 18.5664703,16.5176479 C17.3825219,16.9740314 15.3878672,19.5658106 14.04121,22.94328 C13.8462852,23.4404985 9.48583588,23.2123592 8.09687221,22.94328 C6.70790854,22.6742009 7.56113133,20.2922193 6.27911613,19.0544551 C4.99710093,17.8166908 3.49025746,18.7358695 1.72989092,18.4797187 C0.556313238,18.3089515 0.364173877,16.0845635 1.15347284,11.8065547 C3.27583497,9.97184107 4.33701604,8.74432492 4.33701604,8.12400629 C4.33701604,7.19352834 3.35803026,6.34309093 3.51117416,5.45197633 C3.66431806,4.56086172 3.97050075,1.89361422 4.77889453,1.25865039 C5.5872883,0.623686565 5.92395262,-0.131942465 9.39749171,0.14470458 C10.8708054,0.367535787 11.3305524,3.17237104 12.1007916,3.17237104 Z" id="path-1"></path>
    </defs>
    <g id="" stroke="none" stroke-width="1" fill="none" fill-rule="evenodd">
        <g id="" transform="translate(-1215.000000, -874.000000)">
            <g id="" transform="translate(1215.000000, 874.000000)">
                <mask id="mask-2" fill="white">
                    <use xlink:href="#path-1"></use>
                </mask>
                <use id="" fill="#D8D8D8" xlink:href="#path-1"></use>
                <rect id="" fill="#8F9096" mask="url(#mask-2)" x="9" y="-3" width="10" height="31"></rect>
                <rect id="" fill="#797A81" mask="url(#mask-2)" x="-1" y="-3" width="10" height="31"></rect>
                <rect id="" fill="#797A81" mask="url(#mask-2)" x="19" y="-3" width="10" height="31"></rect>
            </g>
        </g>
    </g>
</svg>
