<?xml version="1.0" encoding="UTF-8"?>
<svg width="20px" height="28px" viewBox="0 0 20 28" version="1.1" xmlns="http://www.w3.org/2000/svg" xmlns:xlink="http://www.w3.org/1999/xlink">
    <g id="" stroke="none" stroke-width="1" fill="none" fill-rule="evenodd" opacity="0.5">
        <g id="" transform="translate(-1071.000000, -957.000000)" fill="#FFFFFF" fill-rule="nonzero">
            <g id="" transform="translate(1071.000000, 957.000000)">
                <path d="M3.10630209,1.27266666 C2.07496877,1.27266666 1.23963541,2.05166667 1.23963541,3.01133334 L1.23963541,24.9886667 C1.23963541,25.9486667 2.07496874,26.7273333 3.10630209,26.7273333 L16.2296354,26.7273333 C17.2609687,26.7273333 18.0963021,25.9483333 18.0963021,24.9886667 L18.0963021,3.01133334 C18.0963021,2.05133335 17.2609688,1.27266666 16.2296354,1.27266666 L3.10630209,1.27266666 Z M3.20796875,0 L16.1279687,0 C17.8983021,0 19.3346354,1.358 19.3346354,3.03533333 L19.3346354,24.9646667 C19.3346354,26.642 17.8983021,28 16.1279687,28 L3.20796875,28 C1.43763542,28 0.00130208203,26.642 0.00130208203,24.9646667 L0.00130208203,3.03533333 C0.00130208203,1.358 1.43763542,0 3.20796875,0 Z M5.26063541,1.909 L14.0753021,1.909 C14.2436354,1.909 14.3819688,2.19566668 14.3819688,2.54566668 C14.3819688,2.89566668 14.2436354,3.18166666 14.0753021,3.18166666 L5.26063541,3.18166666 C5.09230209,3.18166666 4.95396874,2.89533333 4.95396874,2.54533333 C4.95396874,2.19533333 5.09230209,1.909 5.26063541,1.909 Z M8.42963542,24.8183333 C8.42963542,24.1153333 8.98396875,23.5456667 9.66763543,23.5453333 C10.3516354,23.5453333 10.9059688,24.1153333 10.9059688,24.8186667 C10.9059688,25.521 10.3516354,26.0906667 9.66796875,26.091 C8.98430207,26.091 8.42963542,25.521 8.42963542,24.8183333 Z M4.17730209,3.81833334 L15.1586354,3.81833334 C16.0983021,3.81833334 16.8586354,4.51433333 16.8586354,5.371 L16.8586354,21.3563333 C16.8586354,22.213 16.0983021,22.909 15.1586354,22.909 L4.17730209,22.909 C3.23763543,22.909 2.47730208,22.213 2.47730208,21.3563333 L2.47730208,5.371 C2.47730208,4.51566667 3.23763541,3.81833334 4.17730209,3.81833334 Z" id="形状"></path>
            </g>
        </g>
    </g>
</svg>
