<svg width="17px" height="18px" viewBox="0 0 17 18" version="1.1" xmlns="http://www.w3.org/2000/svg" xmlns:xlink="http://www.w3.org/1999/xlink">
    <g stroke="none" stroke-width="1" fill="none" fill-rule="evenodd">
        <g id="lives" transform="translate(-1871.000000, -39.000000)" fill="#757575" fill-rule="nonzero">
            <g transform="translate(1540.000000, 34.000000)">
                <g transform="translate(331.000000, 5.000000)">
                    <path d="M0.0117187559,7.99875 C0.0117187559,7.99875 2.48671876,2.30999999 10.0429687,5.28375001 L9.42046875,6.68624999 C9.42046875,6.68624999 8.86546876,8.06249999 10.6692188,7.77375 L15.7392188,6.57 C15.7392188,6.57 16.8867188,6.25874999 16.3804688,5.25000001 L13.6204687,0.322500006 C13.6204687,0.322500006 12.7617188,-0.495 12.1917187,0.476249994 L11.5767188,1.87500001 C11.5767188,1.87500001 2.23171875,-1.90875001 0.0117187559,7.99875 Z M16.5117187,10.00125 C16.5117187,10.00125 14.1717187,15.52875 6.51421876,12.855 L7.10296875,11.49375 C7.10296875,11.49375 7.62421874,10.155 5.82421874,10.4775 L0.761718744,11.7525 C0.761718744,11.7525 -0.363281256,12.0825 0.154218744,13.03875 L3.05296875,17.71125 C3.05296875,17.71125 3.93046875,18.46125 4.48546874,17.52375 L5.06296876,16.15875 C5.06296876,16.15875 14.5317187,19.5825 16.5117187,10.00125 Z" id="形状"></path>
                </g>
            </g>
        </g>
    </g>
</svg>
