<svg width="12px" height="19px" viewBox="0 0 12 19" version="1.1" xmlns="http://www.w3.org/2000/svg" xmlns:xlink="http://www.w3.org/1999/xlink">
    <g id="" stroke="none" stroke-width="1" fill="none" fill-rule="evenodd">
        <g transform="translate(-579.000000, -271.000000)" fill="#303242" fill-rule="nonzero" stroke="#303242" stroke-width="1.7">
            <g transform="translate(585.000000, 280.500000) scale(-1, 1) translate(-585.000000, -280.500000) translate(580.000000, 272.000000)">
                <path d="M1.57761972,0.26587413 L9.12309713,7.73533252 C9.1479126,7.75511476 9.17195599,7.77635087 9.19511375,7.79904165 C9.55837691,8.15933765 9.56256264,8.7453388 9.20448336,9.11078724 L1.67131583,16.7189117 C1.49329322,16.9063039 1.24968332,17 1.01544304,17 C0.781202754,17 0.54696247,16.9063039 0.359570244,16.7282813 C-0.00584459904,16.3628664 -0.00584459887,15.7819505 0.350200632,15.4165357 L7.227,8.47 L0.275243741,1.58698933 C-0.0901711012,1.22157449 -0.090171101,0.640658584 0.26587413,0.275243741 C0.621919361,-0.0901711012 1.21220488,-0.090171101 1.57761972,0.26587413 Z" id="形状结合"></path>
            </g>
        </g>
    </g>
</svg>
