<svg width="18" height="17" xmlns="http://www.w3.org/2000/svg"><path d="M6.7 1c.337 0 .675.138.888.362.3.325.974.838 1.45.838.487 0 1.175-.563 1.437-.825.213-.225.537-.362.875-.362.162 0 .325.025.463.087h0l.037.012 2.013 1.125c.425.3.587.888.375 1.363-.013 0-.163.362-.163.687 0 1 .813 1.813 1.813 1.813h.075c.425 0 .762.35.862.9 0 0 .163.888.163 1.575 0 .687-.163 1.55-.163 1.562-.1.538-.45.888-.875.888h0-.075c-1 0-1.813.813-1.813 1.813 0 .312.163.687.163.687.213.475.037 1.063-.387 1.362h0l-.038.025-2.025 1.113a1.218 1.218 0 01-1.338-.3c-.262-.288-.974-.888-1.487-.888-.513 0-1.213.588-1.475.875a1.207 1.207 0 01-1.35.275h0l-.038-.012-1.95-1.1a1.13 1.13 0 01-.375-1.363s.163-.362.163-.687c0-1-.813-1.813-1.813-1.813h0-.075c-.425 0-.775-.362-.875-.9h0l-.007-.044C1.122 9.882 1 9.146 1 8.55c0-.688.162-1.55.162-1.563.1-.55.45-.9.888-.887h.062c1 0 1.813-.813 1.813-1.813 0-.312-.163-.687-.163-.687-.212-.475-.037-1.063.388-1.363h0l.037-.025L6.25 1.087C6.387 1.025 6.537 1 6.7 1zm-.075 1.175L4.937 3.1c.075.237.2.65.2 1.075a3.228 3.228 0 01-2.9 3.212c-.037.3-.112.788-.112 1.175 0 .4.075.913.113 1.176a3.228 3.228 0 012.9 3.212c0 .438-.113.838-.2 1.075h0l1.575.875c.137-.138.362-.35.65-.563.624-.45 1.224-.687 1.787-.687.562 0 1.175.237 1.8.7.287.225.525.45.65.575h0l1.637-.9c-.087-.238-.212-.65-.2-1.075a3.237 3.237 0 012.9-3.212c.038-.288.113-.788.113-1.175 0-.4-.075-.913-.112-1.176a3.228 3.228 0 01-2.9-3.212c0-.425.112-.837.2-1.075h0l-1.613-.9a5.44 5.44 0 01-.65.538c-.613.437-1.188.65-1.738.65s-1.15-.225-1.762-.663a5.98 5.98 0 01-.65-.55h0zM8.95 5.638a2.915 2.915 0 012.913 2.912c0 1.6-1.3 2.9-2.913 2.9-1.6 0-2.9-1.313-2.9-2.912 0-1.6 1.3-2.9 2.9-2.9zm0 1.2c-.95 0-1.713.774-1.713 1.712 0 .95.775 1.712 1.713 1.712.95 0 1.712-.774 1.712-1.712 0-.95-.762-1.712-1.712-1.712z" stroke="#AEB5BE" stroke-width=".5"/></svg>