<svg width="22px" height="15px" viewBox="0 0 22 15" version="1.1" xmlns="http://www.w3.org/2000/svg" xmlns:xlink="http://www.w3.org/1999/xlink">
    <g id="" stroke="none" stroke-width="1" fill="none" fill-rule="evenodd">
        <g id="sport-betting-football" transform="translate(-1868.000000, -84.000000)" fill="#FFFFFF" fill-rule="nonzero">
            <g id="" transform="translate(1540.000000, 34.000000)">
                <g id="" transform="translate(328.000000, 50.000000)">
                    <path d="M4.11594512,12.5541235 L3.84922837,12.3911963 C1.48251556,10.9068916 0.0331437282,8.95239874 0.0207256098,7.72046494 C0.0207256098,5.49461128 4.69545732,0.990221037 10.9284329,0.990221037 C12.3450183,0.990221037 13.6457012,1.20095274 14.8433598,1.5565625 L14.8433598,1.5565625 C15.5930598,1.72342758 16.7212588,2.21938623 17.5526088,2.70294129 L17.7924329,2.84729421 C20.3422866,4.34875762 21.8490183,6.4165625 21.8490183,7.72046494 C21.8490183,9.86729421 17.3545793,14.4507088 10.941311,14.4507088 C9.55048171,14.4507088 8.23692073,14.2268064 7.0392622,13.8580259 L7.0392622,13.8580259 C5.9198985,13.5311062 4.94545948,13.0964721 4.11594512,12.5541235 Z M10.941311,2.21509909 C8.04375,2.21509909 5.68706707,4.67802591 5.68706707,7.72046494 C5.68706707,8.65558689 5.91887195,9.53802591 6.30521341,10.3019284 L6.30521341,10.3019284 C6.68038528,11.0615593 7.2707571,11.7349468 8.07632888,12.3220908 L8.35282317,12.5146113 C9.1255061,12.9624162 10.0140915,13.2258308 10.954189,13.2258308 C13.85175,13.2258308 16.2084329,10.762904 16.2084329,7.72046494 C16.2084329,6.77217226 15.976628,5.88973323 15.5774085,5.11266006 L15.5774085,5.11266006 C15.0645752,4.24060059 14.2756653,3.375 13.5169207,2.91314787 L13.2855537,2.78478591 C12.5813305,2.41779665 11.7873988,2.21509909 10.941311,2.21509909 Z M10.941311,4.2170503 C12.8743076,4.2170503 14.441311,5.78405368 14.441311,7.7170503 C14.441311,9.65004693 12.8743076,11.2170503 10.941311,11.2170503 C9.00831435,11.2170503 7.44131098,9.65004693 7.44131098,7.7170503 C7.44131098,5.78405368 9.00831435,4.2170503 10.941311,4.2170503 Z" id="形状结合"></path>
                </g>
            </g>
        </g>
    </g>
</svg>
