<?xml version="1.0" encoding="UTF-8"?>
<svg width="28px" height="28px" viewBox="0 0 28 28" version="1.1" xmlns="http://www.w3.org/2000/svg" xmlns:xlink="http://www.w3.org/1999/xlink">
    <g id="" stroke="none" stroke-width="1" fill="none" fill-rule="evenodd" opacity="0.5">
        <g id="" transform="translate(-1119.000000, -872.000000)" fill="#FFFFFF" fill-rule="nonzero">
            <g id="" transform="translate(1119.000000, 872.000000)">
                <path d="M28,14 C28,6.272 21.728,0 14,0 C6.272,0 0,6.272 0,14 C0,21.728 6.272,28 14,28 C21.728,28 28,21.728 28,14 Z M6.468,18.97 C6.706,18.998 6.958,19.012 7.21,19.012 C8.666,19.012 9.996,18.494 11.046,17.612 C9.688,17.584 8.554,16.618 8.162,15.316 C8.344,15.358 8.54,15.372 8.75,15.386 C9.03,15.386 9.31,15.344 9.562,15.274 C8.148,14.966 7.084,13.622 7.084,12.012 L7.084,11.97 C7.504,12.222 7.98,12.376 8.484,12.404 C7.658,11.802 7.112,10.78 7.112,9.646 C7.112,9.044 7.266,8.47 7.532,7.994 C9.058,10.01 11.34,11.354 13.902,11.522 C13.846,11.284 13.818,11.032 13.818,10.78 C13.818,8.974 15.204,7.532 16.912,7.56 C17.808,7.574 18.606,7.98 19.166,8.624 C19.866,8.484 20.538,8.232 21.126,7.868 C20.902,8.624 20.398,9.254 19.768,9.646 C20.398,9.576 20.986,9.408 21.546,9.156 C21.126,9.8 20.608,10.36 20.006,10.822 C20.006,10.962 20.02,11.102 20.02,11.242 C20.02,15.54 16.912,20.482 11.214,20.482 C9.45,20.468 7.826,19.908 6.468,18.97 L6.468,18.97 Z" id="形状"></path>
            </g>
        </g>
    </g>
</svg>
