<svg width="50px" height="47px" viewBox="0 0 50 47" version="1.1" xmlns="http://www.w3.org/2000/svg" xmlns:xlink="http://www.w3.org/1999/xlink">
    <g id="" stroke="none" stroke-width="1" fill="none" fill-rule="evenodd">
        <g id="" transform="translate(-1285.000000, -495.000000)" fill="#FF5D27">
            <g id="" transform="translate(1285.000000, 495.000000)">
                <g id="" opacity="0.200000003" fill-rule="nonzero">
                    <path d="M43.6871094,45 C43.6871094,43.894557 42.4344238,43 40.8864258,43 L8.80068359,43 C7.25268555,43 6,43.894557 6,45 C6,46.105443 7.25268555,47 8.80068359,47 L40.8864258,47 C42.4344238,47 43.6871094,46.1018167 43.6871094,45 Z M3.46269531,18.0498535 L5.12939153,24.0820443 L44.8961816,23.9894886 L46.5373047,18.0498535 C46.5831055,18.0498535 46.6238281,18.0549316 46.6696777,18.0549316 C48.507959,18.0549316 49.9999512,16.5629395 49.9999512,14.7246582 C49.9999512,12.886377 48.5079102,11.3943848 46.6696777,11.3943848 C44.8314453,11.3943848 43.3394043,12.8864258 43.3394043,14.7246582 C43.3394043,15.0811035 43.3955078,15.4273926 43.5023926,15.7481934 L35.4720215,20.4431641 L26.8408203,6.13417969 C27.7371094,5.53842773 28.3328613,4.51489258 28.3328613,3.35898437 C28.3328613,1.52070312 26.8408203,0.0287109375 25.0025879,0.0287109375 C23.1643555,0.0287109375 21.6723145,1.52070312 21.6723145,3.35898437 C21.6723145,4.5199707 22.2630859,5.53842773 23.1643555,6.13417969 L14.5332031,20.4431641 L6.50288086,15.7481934 C6.6046875,15.4273926 6.66582031,15.0811035 6.66582031,14.7246582 C6.66582031,12.8864258 5.17382813,11.3943848 3.33554688,11.3943848 C1.4921875,11.3943848 0.0001953125,12.8864258 0.0001953125,14.7246582 C0.0001953125,16.5628906 1.49208984,18.0549316 3.33037109,18.0549316 C3.37612305,18.0549316 3.4168457,18.0549316 3.46269531,18.0498535 Z" id="形状"></path>
                </g>
                <text id="Win" font-family="Arial-BoldMT, Arial" font-size="18" font-weight="bold" line-spacing="18">
                    <tspan x="9" y="40">Win</tspan>
                </text>
            </g>
        </g>
    </g>
</svg>
