<?xml version="1.0" encoding="UTF-8"?>
<svg width="41px" height="42px" viewBox="0 0 41 42" version="1.1" xmlns="http://www.w3.org/2000/svg" xmlns:xlink="http://www.w3.org/1999/xlink">
    <g id="" stroke="none" stroke-width="1" fill="none" fill-rule="evenodd">
        <g id="account" transform="translate(-1054.000000, -382.000000)" fill="#FFB845" fill-rule="nonzero" stroke="#FFB845">
            <g id="" transform="translate(1055.000000, 383.000000)">
                <path d="M35.9716534,0.00718303927 L3.72992624,0.00718303927 C1.67840434,0.00718303927 0.00976337744,1.67604688 0.00976337744,3.72729017 L0.00976337744,11.167783 C0.00976337744,13.2193049 1.67840434,14.8879459 3.72992624,14.8879459 L4.77633,14.8879459 L4.77633,36.1290339 C4.77633,38.1805001 6.44497096,39.8491968 8.49643713,39.8491968 L31.2053096,39.8491968 C33.2568316,39.8491968 34.9254725,38.1805001 34.9254725,36.1290339 L34.9254725,14.8879459 L35.9716534,14.8879459 C38.0231753,14.8879459 39.6920391,13.2193049 39.6920391,11.167783 L39.6920391,3.72729017 C39.6920391,1.67604688 38.0231753,0.00718303927 35.9716534,0.00718303927 Z M31.2053096,37.3691625 L8.49643713,37.3691625 C7.8134694,37.3691625 7.25630853,36.8132831 7.25630853,36.1290339 L7.25630853,8.68646728 L32.4452154,8.68646728 L32.4452154,36.1290339 C32.4452154,36.8132831 31.8882774,37.3691625 31.2053096,37.3691625 Z M37.2117819,11.167783 C37.2117819,11.8520323 36.654844,12.4079116 35.9716534,12.4079116 L34.9254725,12.4079116 L34.9254725,8.64774461 C35.5139458,8.55085436 35.9716534,8.06272575 35.9716534,7.44633868 C35.9716534,6.76097515 35.4171112,6.20621013 34.7317477,6.20621013 L4.9699991,6.20621013 C4.28469127,6.20621013 3.72992624,6.76097515 3.72992624,7.44633868 C3.72992624,8.06272571 4.18757814,8.55085432 4.77633,8.64774461 L4.77633,12.4079116 L3.72992624,12.4079116 C3.04695851,12.4079116 2.48979765,11.8520322 2.48979765,11.167783 L2.48979765,3.72729017 C2.48979765,3.04326383 3.04695848,2.48738445 3.72992624,2.48738445 L35.9716534,2.48738445 C36.654844,2.48738445 37.2117819,3.04326383 37.2117819,3.72729017 L37.2117819,11.167783 Z" id="形状结合" stroke-width="0.5"></path>
                <path d="M20.0057303,22.3956002 C17.9304143,21.829725 16.6580205,21.3959094 16.6580205,19.729978 C16.6580205,19.3654936 16.7273518,18.6668986 17.1888999,18.0950807 C17.6999704,17.4598742 18.5755253,17.1396298 19.7917938,17.1396298 C20.7558286,17.1396298 21.5125299,17.2928189 22.0407681,17.594575 C22.5142016,17.865297 22.8093547,18.2608154 22.9453761,18.8055611 C23.0358369,19.1641028 23.4009816,19.383982 23.758863,19.2941815 C24.1174047,19.2037207 24.3372838,18.8392363 24.2474833,18.4806946 C24.0210012,17.5734454 23.5033277,16.8840945 22.7070086,16.4291493 C22.1160421,16.0917372 21.3633026,15.8863846 20.4646373,15.8216754 L20.4646373,14.2950669 C20.4646373,13.9245597 20.1642819,13.6242043 19.7937747,13.6242043 C19.4232676,13.6242043 19.1229122,13.9245597 19.1229122,14.2950669 L19.1229122,15.8269578 C18.5425104,15.8811022 18.0188942,16.0052382 17.5619682,16.200026 C17.0108588,16.4278055 16.5247214,16.7884953 16.14695,17.2498995 C15.4259048,18.1426221 15.3195969,19.184572 15.3195969,19.7273368 C15.3195969,20.3790508 15.45958,20.9620937 15.7362448,21.4540156 C15.9878182,21.9030181 16.3417379,22.275426 16.8217743,22.5943499 C17.6332803,23.1351337 18.6600434,23.4157603 19.6557725,23.6858221 C20.5735864,23.9373956 21.4385765,24.1724616 22.0552947,24.5785447 C22.6588068,24.9773646 22.9288686,25.490416 22.9288686,26.2451364 C22.9288686,26.6096207 22.8601977,27.3075555 22.3986495,27.8800337 C21.887579,28.512599 21.0120241,28.8354846 19.7957556,28.8354846 C18.8317208,28.8354846 18.0750196,28.6822955 17.5474416,28.3805394 C17.0733478,28.1098173 16.7781947,27.7136387 16.641513,27.1695533 C16.5515487,26.8104923 16.1879904,26.5919439 15.8286865,26.6809329 C15.4693014,26.770888 15.2506591,27.134898 15.3400661,27.4944198 C15.5665482,28.3990278 16.0842217,29.089039 16.8805409,29.5439841 C17.4715074,29.880736 18.2242469,30.0867489 19.1229122,30.1514581 L19.1229122,31.676746 C19.1229122,32.0472532 19.4232676,32.3476086 19.7937747,32.3476086 C20.1642819,32.3476086 20.4646373,32.0472532 20.4646373,31.676746 L20.4646373,30.1448551 C21.045039,30.0907107 21.5686552,29.9665747 22.0255813,29.7724472 C22.5766907,29.5446677 23.062828,29.1839779 23.4405994,28.7225737 C24.1616446,27.8291908 24.2679526,26.7879011 24.2679526,26.2451364 C24.2679526,25.0440547 23.7714086,24.1070921 22.7908664,23.4619812 C21.9965282,22.938365 20.9842916,22.6617002 20.0057303,22.3956002 Z" id="路径" stroke-width="1.5"></path>
            </g>
        </g>
    </g>
</svg>
