<?xml version="1.0" encoding="UTF-8"?>
<svg width="40px" height="40px" viewBox="0 0 40 40" version="1.1" xmlns="http://www.w3.org/2000/svg" xmlns:xlink="http://www.w3.org/1999/xlink">
    <title>credit-card-outline</title>
    <defs>
        <filter id="filter-1">
            <feColorMatrix in="SourceGraphic" type="matrix" values="0 0 0 0 0.364706 0 0 0 0 0.643137 0 0 0 0 0.000000 0 0 0 1.000000 0"></feColorMatrix>
        </filter>
        <rect id="path-2" x="0" y="0" width="40" height="40"></rect>
    </defs>
    <g id="页面-1" stroke="none" stroke-width="1" fill="5DA400">
        <g id="credit-card-outline" transform="translate(-405.000000, -373.000000)">
            <g transform="translate(405.000000, 373.000000)" id="形状">
                <mask id="mask-3" fill="white">
                    <use xlink:href="#path-2"></use>
                </mask>
                <g id="蒙版"></g>
                <path d="M36,4 C38.2,4 40,5.78794643 40,8.01785714 L40,8.01785714 L40,32.125 C40,34.3440012 38.209139,36.1428571 36,36.1428571 L36,36.1428571 L4,36.1428571 C1.790861,36.1428571 0,34.3440012 0,32.125 L0,32.125 L0,8.01785714 C0,5.78794643 1.78,4 4,4 L4,4 Z M36,18.125 L4,18.125 L4,32.125 L36,32.125 L36,18.125 Z M28,26 L23.4464286,31 L23.4464286,28.5 L12,28.5 L12,26 L28,26 Z M16.5535714,19 L16.5535714,21.5 L28,21.5 L28,24 L12,24 L16.5535714,19 Z M36,8.01785714 L4,8.01785714 L4,12.0357143 L36,12.0357143 L36,8.01785714 Z" id="形状结合" fill="#5DA400" fill-rule="nonzero" mask="url(#mask-3)"></path>
            </g>
        </g>
    </g>
</svg>
