<?xml version="1.0" encoding="UTF-8"?>
<svg width="92px" height="30px" viewBox="0 0 92 30" version="1.1" xmlns="http://www.w3.org/2000/svg" xmlns:xlink="http://www.w3.org/1999/xlink">
    <title>形状结合备份</title>
    <g id="页面-1" stroke="none" stroke-width="1" fill="none" fill-rule="evenodd">
        <g id="icon" transform="translate(-415.000000, -600.000000)" fill="#FFFFFF">
            <path d="M500.230979,600 L506.717186,630 L499.444772,630 L498.855117,625.519481 L488.437876,625.519481 L486.66891,630 L478.217186,630 L488.581698,606.031033 C490.164723,602.37013 493.771825,600 497.760331,600 L500.230979,600 Z M461.217186,600 L455.114446,630 L447.717186,630 L453.819926,600 L461.217186,600 Z M423.838813,600 C428.593506,600 432.690746,603.347904 433.638246,608.007233 L436.090243,620.064935 L444.639466,600 L452.217186,600 L439.781953,630 L431.23273,630 L425.885616,608.87134 C425.095219,605.748158 422.848558,603.197056 419.850333,602.018227 L415.699267,600.38613 C415.59647,600.345713 415.545902,600.229615 415.586319,600.126818 C415.616401,600.050308 415.690238,600 415.772449,600 L423.838813,600 Z M482.717186,600.872702 L481.527104,607.388876 C476.237847,605.65123 472.535368,605.65123 470.419666,607.388876 C468.237847,610.740051 473.394872,612.662338 478.155203,615.779221 C479.543632,616.753247 482.320492,624.545455 472.601484,629.543868 C469.956856,630.412691 465.328756,630.040338 458.717186,628.426809 L459.708922,622.469165 C467.510575,624.455046 471.808095,624.330929 472.601484,622.096812 C473.791566,618.745636 470.419666,618.701299 467.246112,616.51152 C464.270905,614.805195 458.717186,611.484757 463.874211,604.223877 C467.444459,600.127996 473.725451,599.010938 482.717186,600.872702 Z M494.641175,608.884926 C494.575233,608.900372 494.521588,608.948139 494.498629,609.011855 L490.796497,619.285714 L497.282703,619.285714 L494.881515,609.034046 C494.856325,608.926499 494.748721,608.859736 494.641175,608.884926 Z" id="形状结合备份"></path>
        </g>
    </g>
</svg>