<?xml version="1.0" encoding="UTF-8"?>
<svg width="92px" height="30px" viewBox="0 0 92 30" version="1.1" xmlns="http://www.w3.org/2000/svg" xmlns:xlink="http://www.w3.org/1999/xlink">
    <title>形状结合</title>
    <g id="页面-1" stroke="none" stroke-width="1" fill="none" fill-rule="evenodd">
        <g id="icon" transform="translate(-415.000000, -529.000000)" fill="#5DA400">
            <path d="M500.230979,529 L506.717186,559 L499.444772,559 L498.855117,554.519481 L488.437876,554.519481 L486.66891,559 L478.217186,559 L488.581698,535.031033 C490.164723,531.37013 493.771825,529 497.760331,529 L500.230979,529 Z M461.217186,529 L455.114446,559 L447.717186,559 L453.819926,529 L461.217186,529 Z M423.838813,529 C428.593506,529 432.690746,532.347904 433.638246,537.007233 L436.090243,549.064935 L444.639466,529 L452.217186,529 L439.781953,559 L431.23273,559 L425.885616,537.87134 C425.095219,534.748158 422.848558,532.197056 419.850333,531.018227 L415.699267,529.38613 C415.59647,529.345713 415.545902,529.229615 415.586319,529.126818 C415.616401,529.050308 415.690238,529 415.772449,529 L423.838813,529 Z M482.717186,529.872702 L481.527104,536.388876 C476.237847,534.65123 472.535368,534.65123 470.419666,536.388876 C468.237847,539.740051 473.394872,541.662338 478.155203,544.779221 C479.543632,545.753247 482.320492,553.545455 472.601484,558.543868 C469.956856,559.412691 465.328756,559.040338 458.717186,557.426809 L459.708922,551.469165 C467.510575,553.455046 471.808095,553.330929 472.601484,551.096812 C473.791566,547.745636 470.419666,547.701299 467.246112,545.51152 C464.270905,543.805195 458.717186,540.484757 463.874211,533.223877 C467.444459,529.127996 473.725451,528.010938 482.717186,529.872702 Z M494.641175,537.884926 C494.575233,537.900372 494.521588,537.948139 494.498629,538.011855 L490.796497,548.285714 L497.282703,548.285714 L494.881515,538.034046 C494.856325,537.926499 494.748721,537.859736 494.641175,537.884926 Z" id="形状结合"></path>
        </g>
    </g>
</svg>
