<?xml version="1.0" encoding="UTF-8"?>
<svg t="1623118654665" class="icon" viewBox="0 0 2323 1024" version="1.1" xmlns="http://www.w3.org/2000/svg" p-id="1679" width="200" height="200"><path d="M2231.860349 89.376559c45.965087 0 81.715711 35.750623 81.715711 81.71571s-35.750623 81.715711-81.715711 81.715711h-107.25187c-7.660848 2.553616-15.321696 5.107232-20.428928 10.214464-5.107232 5.107232-10.214464 12.76808-12.76808 20.428928v658.832917c0 43.411471-35.750623 79.162095-79.162094 79.162095-43.411471 0-79.162095-35.750623-79.162095-79.162095V283.451372l-2.553616-5.107232c-2.553616-5.107232-7.660848-12.76808-10.214464-15.321696-5.107232-5.107232-12.76808-7.660848-20.428928-10.214464h-107.25187c-45.965087 0-81.715711-35.750623-81.715711-81.715711s35.750623-81.715711 81.715711-81.71571h439.221945zM219.610973 265.57606V1021.446384H22.982544V265.57606h196.628429zM120.01995 0c66.394015 0 120.01995 53.625935 120.01995 122.573566S186.413965 245.147132 120.01995 245.147132 0 188.967581 0 122.573566 53.625935 0 120.01995 0zM520.937656 783.9601c0 40.857855 30.643392 74.054863 71.501247 76.608479H760.977556c45.965087 0 81.715711 35.750623 81.715711 81.71571 0 45.965087-35.750623 81.715711-81.715711 81.715711h-163.431421c-125.127182 0-229.825436-99.591022-234.932669-227.27182V171.092269c0-43.411471 35.750623-79.162095 79.162095-79.162094s79.162095 35.750623 79.162095 79.162094v612.867831zM1261.486284 61.286783c265.57606 0 480.0798 214.503741 480.079801 480.079801S1527.062344 1021.446384 1261.486284 1021.446384s-480.0798-214.503741-480.0798-480.0798S995.910224 61.286783 1261.486284 61.286783z m0 150.663342c-181.306733 0-326.862843 145.55611-326.862843 326.862843S1080.179551 868.229426 1261.486284 868.229426s326.862843-145.55611 326.862843-326.862842S1442.793017 211.950125 1261.486284 211.950125z m0 165.985037c89.376559 0 163.431421 74.054863 163.431422 163.431422s-74.054863 163.431421-163.431422 163.431421c-89.376559 0-163.431421-74.054863-163.431421-163.431421s74.054863-163.431421 163.431421-163.431422z" fill="#5DA400" p-id="1680"></path></svg>