<svg  xmlns="http://www.w3.org/2000/svg" xmlns:xlink="http://www.w3.org/1999/xlink" width="31px" height="20px"><path fill-rule="evenodd"  fill="rgb(255, 255, 255)" d="M12.510,8.380 L28.816,8.380 C29.915,8.380 30.807,9.271 30.807,10.370 C30.807,11.470 29.915,12.361 28.816,12.361 L12.510,12.361 C11.411,12.361 10.519,11.470 10.519,10.370 C10.519,9.271 11.411,8.380 12.510,8.380 Z"/><path fill-rule="evenodd"  fill="rgb(255, 255, 255)" d="M3.494,0.000 L19.799,0.000 C20.899,0.000 21.790,0.891 21.790,1.991 C21.790,3.090 20.899,3.982 19.799,3.982 L3.494,3.982 C2.394,3.982 1.503,3.090 1.503,1.991 C1.503,0.891 2.394,0.000 3.494,0.000 Z"/><path fill-rule="evenodd"  fill="rgb(255, 255, 255)" d="M1.991,16.019 L18.297,16.019 C19.396,16.019 20.287,16.910 20.287,18.009 C20.287,19.109 19.396,20.000 18.297,20.000 L1.991,20.000 C0.891,20.000 -0.000,19.109 -0.000,18.009 C-0.000,16.910 0.891,16.019 1.991,16.019 Z"/></svg>