<svg xmlns="http://www.w3.org/2000/svg" xmlns:xlink="http://www.w3.org/1999/xlink" width="31px" height="20px"><path fill-rule="evenodd"  fill="rgb(255, 255, 255)" d="M2.184,8.380 L18.490,8.380 C19.589,8.380 20.481,9.271 20.481,10.370 C20.481,11.470 19.589,12.361 18.490,12.361 L2.184,12.361 C1.085,12.361 0.193,11.470 0.193,10.370 C0.193,9.271 1.085,8.380 2.184,8.380 Z"/><path fill-rule="evenodd"  fill="rgb(255, 255, 255)" d="M11.201,0.000 L27.506,0.000 C28.606,0.000 29.497,0.891 29.497,1.991 C29.497,3.090 28.606,3.982 27.506,3.982 L11.201,3.982 C10.101,3.982 9.210,3.090 9.210,1.991 C9.210,0.891 10.101,0.000 11.201,0.000 Z"/><path fill-rule="evenodd"  fill="rgb(255, 255, 255)" d="M12.703,16.019 L29.009,16.019 C30.109,16.019 31.000,16.910 31.000,18.009 C31.000,19.109 30.109,20.000 29.009,20.000 L12.703,20.000 C11.604,20.000 10.713,19.109 10.713,18.009 C10.713,16.910 11.604,16.019 12.703,16.019 Z"/></svg>